<svg id="Layer_1" enable-background="new 0 0 500 500" viewBox="0 0 500 500" xmlns="http://www.w3.org/2000/svg" xmlns:xlink="http://www.w3.org/1999/xlink"><linearGradient id="SVGID_1_" gradientUnits="userSpaceOnUse" x1="92.916" x2="407.083" y1="407.084" y2="92.917"><stop offset="0" stop-color="#e13fff"/><stop offset=".0902" stop-color="#c640fa"/><stop offset=".339" stop-color="#8043ed"/><stop offset=".5633" stop-color="#4946e2"/><stop offset=".7551" stop-color="#2148da"/><stop offset=".9069" stop-color="#0949d6"/><stop offset="1" stop-color="#0049d4"/></linearGradient><path clip-rule="evenodd" d="m304.886 149.907c0 4.278-3.477 7.755-7.751 7.755s-7.751-3.477-7.751-7.755c0-4.273 3.477-7.75 7.751-7.75 4.275 0 7.751 3.477 7.751 7.75zm-2.398-121.038c-1.36 0-2.53.264-3.738 1.021l-48.75 30.504-48.75-30.504c-2.175-1.363-4.936-1.363-7.111 0l-101.418 63.464c-1.958 1.225-3.147 3.37-3.147 5.681v58.342l-50.906 29.391c-2.074 1.199-3.35 3.407-3.35 5.804v114.857c0 2.391 1.276 4.606 3.35 5.804l50.906 29.386v58.347c0 2.311 1.188 4.455 3.147 5.68l101.419 63.464c2.175 1.359 4.936 1.359 7.111 0l48.749-30.503 48.75 30.504c2.173 1.362 4.938 1.361 7.11 0l101.419-63.464c1.957-1.225 3.147-3.37 3.147-5.68v-58.347l50.906-29.386c2.072-1.198 3.35-3.413 3.35-5.804v-114.858c0-2.397-1.278-4.606-3.35-5.804l-50.906-29.391v-58.342c0-2.311-1.19-4.455-3.147-5.681l-101.419-63.464c-1.034-.648-2.2-.989-3.372-1.021zm44.64 104.619c0-4.273 3.477-7.75 7.75-7.75 4.274 0 7.751 3.477 7.751 7.75 0 4.272-3.477 7.749-7.751 7.749-4.274.001-7.75-3.476-7.75-7.749zm-.695 119.93c0-4.273 3.477-7.755 7.751-7.755s7.751 3.482 7.751 7.755-3.477 7.75-7.751 7.75c-4.275 0-7.751-3.477-7.751-7.75zm-29.016 133.264c0 4.273-3.479 7.75-7.753 7.75-4.272 0-7.751-3.477-7.751-7.75s3.479-7.75 7.751-7.75c4.274 0 7.753 3.477 7.753 7.75zm133.863-83.122v-107.119l-50.906-29.391c-2.074-1.198-3.35-3.412-3.35-5.804v-58.503l-49.218-30.794-43.957 29.725-.067 28.161c8.416 2.789 14.506 10.732 14.506 20.073 0 11.667-9.489 21.153-21.152 21.153-11.664 0-21.153-9.486-21.153-21.153 0-9.297 6.036-17.214 14.397-20.04l.076-31.772c.006-2.22 1.11-4.289 2.947-5.536l41.978-28.386-33.076-20.696-45.603 28.532v159.736l91.477-51.549v-26.651c-8.386-2.811-14.451-10.738-14.451-20.056 0-11.662 9.489-21.153 21.152-21.153 11.664 0 21.152 9.491 21.152 21.153 0 9.319-6.063 17.246-14.451 20.056v30.563c0 2.418-1.304 4.654-3.411 5.842l-101.467 57.181v180.857l45.603 28.537 40.165-25.135-24.328-25.334c-13.875 6.087-29.629-4.09-29.629-19.374 0-9.324 6.065-17.251 14.451-20.062v-83.042c0-2.241 1.123-4.337 2.987-5.578l27.943-18.611c-3.97-13.494 6.159-27.123 20.29-27.123 11.664 0 21.152 9.491 21.152 21.153 0 17.408-19.934 27.284-33.771 16.966l-25.198 16.784v79.452c12.579 4.216 18.254 18.886 11.718 30.439l25.991 27.07 42.947-26.876v-135.19c-8.221-2.907-14.128-10.748-14.128-19.949 0-11.667 9.491-21.158 21.152-21.158 11.664 0 21.153 9.491 21.153 21.158 0 9.437-6.218 17.455-14.775 20.169v64.861zm-47.232-53.694c-4.272 0-7.751-3.477-7.751-7.75 0-4.278 3.479-7.755 7.751-7.755 4.274 0 7.751 3.477 7.751 7.755 0 4.273-3.477 7.75-7.751 7.75zm-201.183-107.709c4.274 0 7.751 3.477 7.751 7.75 0 4.278-3.477 7.755-7.751 7.755s-7.75-3.477-7.75-7.755c-.001-4.273 3.476-7.75 7.75-7.75zm-49.298 111.261c0 4.273-3.477 7.75-7.751 7.75s-7.751-3.477-7.751-7.75 3.477-7.755 7.751-7.755c4.275 0 7.751 3.483 7.751 7.755zm29.016 133.264c0-4.273 3.477-7.75 7.751-7.75s7.751 3.477 7.751 7.75-3.477 7.75-7.751 7.75-7.751-3.478-7.751-7.75zm-37.461-245.444c-4.274 0-7.751-3.477-7.751-7.749 0-4.273 3.477-7.75 7.751-7.75 4.272 0 7.75 3.477 7.75 7.75 0 4.272-3.478 7.749-7.75 7.749zm98.177 90.506-91.477-51.549v-26.651c8.387-2.811 14.452-10.738 14.452-20.056 0-11.662-9.489-21.153-21.153-21.153s-21.152 9.491-21.152 21.153c0 9.319 6.063 17.246 14.452 20.056v30.563c0 2.418 1.303 4.654 3.411 5.842l101.467 57.181v180.857l-45.605 28.537-40.164-25.135 24.329-25.334c13.873 6.086 29.627-4.089 29.627-19.374 0-9.324-6.063-17.251-14.452-20.062v-83.042c0-2.241-1.121-4.337-2.985-5.578l-27.943-18.611c3.971-13.498-6.162-27.123-20.29-27.123-11.664 0-21.152 9.491-21.152 21.153 0 17.407 19.932 27.285 33.771 16.966l25.197 16.784v79.452c-12.581 4.216-18.254 18.888-11.718 30.439l-25.991 27.07-42.948-26.876v-135.188c8.219-2.907 14.127-10.748 14.127-19.949 0-11.667-9.489-21.158-21.153-21.158s-21.152 9.491-21.152 21.158c0 9.437 6.22 17.455 14.777 20.169v64.861l-40.853-23.586v-107.119l50.906-29.391c2.074-1.198 3.35-3.412 3.35-5.804v-58.503l49.216-30.794 43.959 29.725.067 28.161c-8.416 2.789-14.506 10.732-14.506 20.073 0 11.667 9.489 21.153 21.153 21.153s21.152-9.486 21.152-21.153c0-9.297-6.037-17.214-14.397-20.04l-.078-31.772c-.004-2.22-1.108-4.289-2.945-5.536l-41.978-28.388 33.074-20.696 45.605 28.532zm-147.349 18.122c-4.272 0-7.751-3.477-7.751-7.75 0-4.278 3.479-7.755 7.751-7.755 4.274 0 7.751 3.477 7.751 7.755 0 4.273-3.477 7.75-7.751 7.75z" fill="url(#SVGID_1_)" fill-rule="evenodd"/></svg>