<svg xmlns="http://www.w3.org/2000/svg" version="1.1" xmlns:xlink="http://www.w3.org/1999/xlink" width="512" height="512" x="0" y="0" viewBox="0 0 512 512" style="enable-background:new 0 0 512 512" xml:space="preserve"><g><linearGradient id="a" x1="256" x2="256" y1="500.652" y2="11.348" gradientUnits="userSpaceOnUse"><stop stop-opacity="1" stop-color="#7253a2" offset="0"></stop><stop stop-opacity="1" stop-color="#8e31eb" offset="0.04320986273448319"></stop><stop stop-opacity="1" stop-color="#6762ad" offset="0.28"></stop><stop stop-opacity="1" stop-color="#8e31eb" offset="0.3827160195849374"></stop><stop stop-opacity="1" stop-color="#8e31eb" offset="0.4791666323265437"></stop><stop stop-opacity="1" stop-color="#8e31eb" offset="0.5640431715391573"></stop><stop stop-opacity="1" stop-color="#4b8ac9" offset="0.819"></stop><stop stop-opacity="1" stop-color="#8e31eb" offset="1"></stop></linearGradient><path fill="url(#a)" fill-rule="evenodd" d="M61.04 217.68c17.4 10.39 40.96 13.73 64.09 13.73 22.39 0 44.37-3.14 59.92-6.04 47.59-8.89 97.68-26.95 130.73-47.13 42.96-26.22 59.9-41.99 88.11-76.42l15.9 13.97c2.39 2.09 5.68 2.58 8.58 1.27s4.7-4.1 4.7-7.29V21.35a10 10 0 0 0-3.4-7.52 10 10 0 0 0-7.9-2.4L334.1 22.9c-3.16.42-5.7 2.57-6.62 5.61-.93 3.04-.02 6.24 2.38 8.34l16.37 14.37c-22.33 30.37-48.54 58.03-99.88 92.31-51.09 34.11-133.14 63.2-182.91 64.86-2.22.07-4.12 1.6-4.67 3.75-.56 2.15.37 4.4 2.27 5.54zm190.86-65.83c54.65-36.49 81.55-65.75 105.11-98.46a4.99 4.99 0 0 0-.76-6.68l-16.48-14.46 83.3-10.9v84l-16.49-14.46a4.978 4.978 0 0 0-3.71-1.23 5.03 5.03 0 0 0-3.47 1.84c-29.41 36.23-45.5 51.75-88.83 78.21-32.08 19.59-80.88 37.15-127.35 45.83-40.79 7.62-75.09 7.88-99.25 1 51.3-7.24 121.94-33.99 167.93-64.69zm248.52 343.8c0 2.76-2.24 5-5 5H16.58c-2.76 0-5-2.24-5-5s2.24-5 5-5h24.51V369.77c0-8.8 7.16-15.96 15.96-15.96h53.76c8.8 0 15.96 7.16 15.96 15.96v120.88h29.04V300.71c0-8.8 7.15-15.96 15.95-15.96h53.76c8.8 0 15.96 7.16 15.96 15.96v189.94h29.04V247.97c0-8.79 7.16-15.95 15.96-15.95h53.75c8.8 0 15.96 7.16 15.96 15.95v242.68h29.04V171.28c0-8.8 7.16-15.96 15.96-15.96h53.76c8.8 0 15.96 7.16 15.96 15.96v319.37h24.51c2.76 0 5 2.24 5 5z" clip-rule="evenodd" opacity="1" data-original="url(#a)"></path></g></svg>