<svg id="Layer_1" enable-background="new 0 0 512 512" height="512" viewBox="0 0 512 512" width="512" xmlns="http://www.w3.org/2000/svg" xmlns:xlink="http://www.w3.org/1999/xlink"><linearGradient id="SVGID_1_" gradientUnits="userSpaceOnUse" x1="256" x2="256" y1="34.035" y2="477.965"><stop offset="0" stop-color="#a03a8d"/><stop offset="1" stop-color="#1f3c8d"/></linearGradient><path clip-rule="evenodd" d="m60.08 142.05c0 13.99 11.38 25.37 25.37 25.37h4.73c3.31 0 6 2.69 6 6v33.72c0 2.28 1.1 4.13 3.11 5.21 2 1.08 4.15.99 6.06-.26l66.65-43.69c.98-.64 2.12-.98 3.29-.98h89c13.98 0 25.37-11.38 25.37-25.37v-82.65c0-13.99-11.39-25.37-25.37-25.37h-178.84c-13.99 0-25.37 11.38-25.37 25.37zm177.63-35.41c-1.8 1.8-4.28 2.91-7.03 2.91-2.74 0-5.23-1.11-7.03-2.91s-2.91-4.29-2.91-7.03 1.11-5.23 2.91-7.03 4.29-2.91 7.03-2.91c2.75 0 5.23 1.11 7.03 2.91s2.92 4.29 2.92 7.03-1.12 5.23-2.92 7.03zm-55.81 0c-1.8 1.8-4.29 2.91-7.03 2.91-2.75 0-5.24-1.11-7.04-2.91s-2.91-4.29-2.91-7.03 1.11-5.23 2.91-7.03 4.29-2.91 7.04-2.91c2.74 0 5.23 1.11 7.03 2.91s2.91 4.29 2.91 7.03-1.11 5.23-2.91 7.03zm-55.82 0c-1.8 1.8-4.28 2.91-7.03 2.91s-5.23-1.11-7.03-2.91-2.92-4.29-2.92-7.03 1.12-5.23 2.92-7.03 4.28-2.91 7.03-2.91 5.23 1.11 7.03 2.91 2.92 4.29 2.92 7.03-1.12 5.23-2.92 7.03zm175.58 35.41c0 20.61-16.77 37.37-37.37 37.37h-41.95v1.26c0 13.99 11.39 25.37 25.38 25.37h88.99c1.17 0 2.31.34 3.29.98l66.65 43.69c1.91 1.25 4.06 1.34 6.07.26 2-1.08 3.11-2.93 3.11-5.21v-33.72c0-3.31 2.68-6 6-6h4.72c13.99 0 25.37-11.38 25.37-25.37v-82.64c0-13.99-11.38-25.37-25.37-25.37h-124.89zm42.51 3.22c-1.8 1.8-4.29 2.92-7.04 2.92-2.74 0-5.23-1.12-7.03-2.92s-2.91-4.29-2.91-7.03 1.11-5.23 2.91-7.03 4.29-2.91 7.03-2.91c2.75 0 5.24 1.11 7.04 2.91s2.91 4.29 2.91 7.03c0 2.75-1.11 5.23-2.91 7.03zm41.75 0c-1.8-1.8-2.92-4.29-2.92-7.03s1.12-5.23 2.92-7.03 4.28-2.91 7.03-2.91 5.23 1.11 7.03 2.91 2.92 4.29 2.92 7.03-1.12 5.23-2.92 7.03-4.28 2.92-7.03 2.92-5.23-1.12-7.03-2.92zm72.91 178.01c0 18.47-15.02 33.49-33.49 33.49s-33.49-15.02-33.49-33.49 15.02-33.49 33.49-33.49 33.49 15.02 33.49 33.49zm-118.16 67.71c-18.47 0-33.49-15.02-33.49-33.49s15.02-33.49 33.49-33.49 33.49 15.02 33.49 33.49-15.02 33.49-33.49 33.49zm-118.16-67.71c0-18.47 15.02-33.49 33.49-33.49s33.49 15.02 33.49 33.49-15.02 33.49-33.49 33.49-33.49-15.03-33.49-33.49zm-51.18 67.71c-18.47 0-33.49-15.02-33.49-33.49s15.02-33.49 33.49-33.49 33.49 15.02 33.49 33.49-15.02 33.49-33.49 33.49zm-118.16-67.71c0-18.47 15.02-33.49 33.49-33.49s33.49 15.02 33.49 33.49-15.02 33.49-33.49 33.49-33.49-15.03-33.49-33.49zm43.91 120.46h-55.42c-5.83 0-10.76-2.2-14.64-6.55-3.89-4.35-5.53-9.49-4.88-15.28 3.16-28.11 26.89-49.31 55.19-49.31h18.66c18.72 0 36.22 9.66 46.42 25.12-21.75 6.57-39 23.82-45.33 46.02zm83.58-36.92c28.3 0 52.03 21.2 55.19 49.31.65 5.8-.99 10.94-4.87 15.28-3.89 4.35-8.82 6.55-14.65 6.55h-90c-5.83 0-10.76-2.2-14.65-6.55-3.88-4.35-5.52-9.49-4.87-15.28 3.16-28.11 26.89-49.31 55.19-49.31zm66.01-34.22h18.66c18.72 0 36.22 9.66 46.42 25.12-21.75 6.57-39 23.82-45.33 46.02h-20.84c-6.33-22.2-23.58-39.45-45.33-46.02 10.2-15.46 27.7-25.12 46.42-25.12zm103.33 34.22c28.3 0 52.03 21.2 55.19 49.31.65 5.8-.99 10.94-4.88 15.28-3.88 4.35-8.81 6.55-14.64 6.55h-90c-5.83 0-10.76-2.2-14.65-6.55-3.88-4.35-5.52-9.49-4.87-15.28 3.16-28.11 26.89-49.31 55.19-49.31zm66.01-34.22h18.66c28.3 0 52.03 21.2 55.19 49.31.65 5.8-.99 10.94-4.88 15.28-3.88 4.35-8.81 6.55-14.64 6.55h-55.42c-6.33-22.2-23.58-39.45-45.33-46.02 10.2-15.46 27.7-25.12 46.42-25.12z" fill="url(#SVGID_1_)" fill-rule="evenodd"/></svg>