<?xml version="1.0" encoding="utf-8"?>
<!-- Generator: Adobe Illustrator 27.5.0, SVG Export Plug-In . SVG Version: 6.00 Build 0)  -->
<svg version="1.1" id="Layer_1" xmlns="http://www.w3.org/2000/svg" xmlns:xlink="http://www.w3.org/1999/xlink" x="0px" y="0px"
	 viewBox="0 0 1024 1024" style="enable-background:new 0 0 1024 1024;" xml:space="preserve">
<g id="_x23_ffffffff">
	<path style="fill:#FFFFFF;" d="M0,0h1024v1024H0V0 M312.94,140.58c-6.01-0.35-12.15,0.08-17.69,2.62
		c-10.41,4.03-17.84,13.53-21.31,23.91c-3.47,10.47-2.57,22.21,2.23,32.13c-3.99,7.2-1.98,18,5.94,21.61
		c3.19,2,7.02,1.41,10.59,1.54c-0.24,10.87,1.71,21.78-0.02,32.61c-0.28,0.85-0.61,1.68-0.97,2.5c-3.18,4.2-6.39,8.39-10.39,11.87
		c-1.11,0.44-2.21,0.9-3.31,1.36c-7.81,2-15.4,4.79-23.13,7.11c-8.55,2.76-17.68,5.24-24.37,11.59
		c-6.71,6.5-10.05,15.47-13.17,24.07c-5.77,17.3-10.83,34.83-15.22,52.53c-5.73,23.21-11.2,46.5-15.05,70.1
		c-5.82,4.17-10.91,9.34-14.85,15.33c-9.29,14.53-13.84,31.63-15.6,48.65c-1.69,15.53-1.94,31.41,1.5,46.73
		c1.64,7.22,4.32,14.3,8.58,20.4c-1.05,3.97-4.82,6.5-6.39,10.29c-4.8,9.96-8.43,20.45-12.56,30.7c-0.84,2.02-1.54,4.11-1.71,6.32
		l-0.5-0.5c-0.49,1.99-2.27,4.24-1.5,6.24c-0.23,0.08-0.69,0.22-0.92,0.29c-7.09,1.11-15.64-1.31-21.32,4.23
		c-4.04,3.51-4.59,9.11-4.53,14.13c-0.19,31.39,0.12,62.79-0.1,94.18c0.16,4.36,5.61,3.1,8.56,3.32c-0.02,2.31-0.02,4.63,0.01,6.95
		c0.04,61.52,0.19,123.03-0.06,184.54c-9.51,1.04-19.62,0.87-28.4,5.1c4.27,2.99,9.64,3.18,14.64,3.79
		c5.09,0.37,10.15,1.67,15.27,1.08c4.45,1.9,9.41,1.21,14.09,0.84c2.54,0.56,5.12,0.98,7.73,1.02c15.04,0.36,30.09,1.97,45.13,1.27
		c10.94,0.82,21.9,1.42,32.88,1.38c19.35-0.05,38.65,1.47,57.99,1.52c27.03,0.44,54.05,1.05,81.07,1.33
		c37.3,0.05,74.58,0.99,111.88,0.96c35.02,0.09,70.05,0.08,105.07-0.06c26.02-0.69,52.05-0.41,78.08-0.69
		c27.95-0.93,55.94-0.53,83.88-1.94c12.79-0.03,25.56-0.66,38.34-1.04c14.57-0.55,29.16-0.57,43.69-1.72
		c3.75-0.35,7.86,0.66,11.31-1.27c3.23,0.13,6.47,0.03,9.71-0.07c5.67,0.66,11.3-0.62,16.97-0.7c7.01-0.07,13.96-1.12,20.94-1.65
		c5.98-1,12.44-0.89,17.79-4.11c-3.98-2.61-8.91-2.64-13.44-3.47c-12.29-1.89-24.79-1.74-37.09-3.42
		c-1.06-20.35,0.35-40.73-0.16-61.1c0.06-39.6,0.07-79.2,0.18-118.82c-0.06-3.17-0.05-6.34-0.02-9.51c2.64-0.06,5.52,0.56,8.01-0.52
		c1.51-4.52,0.75-9.43,0.72-14.11c-0.35-29.04,0.1-58.1-0.32-87.14c0.08-6.53-5.2-12.65-11.76-13.23
		c-10.27-0.62-20.61,0.37-30.86-0.5c-31.89-1.14-63.89-0.15-95.82-0.68c26.56-0.1,53.13-0.17,79.69,0.07
		c5.23-0.26,11.65,2.02,15.76-2.2c-1.04-2.6-1.84-5.26-2.73-7.89c0.35-4.91-2.2-9.38-3.54-13.98c-3.14-7.81-5.26-16.34-10.9-22.83
		c-2.96-3.11-6.56-5.59-10.35-7.59c-4.05-2.12-8.7-2.43-12.88-4.12c-2.31-2.34-4.36-5.12-7.9-5.52c-0.22-4.1-1.89-8.52,0.15-12.39
		c-0.38-0.28-1.15-0.85-1.54-1.13c-0.05-0.61-0.14-1.82-0.19-2.42c9.21-1.46,17.83-5.86,24.72-12.09
		c9.46-8.57,15.35-20.5,17.44-33.02c1.16-2.21,1.24-4.73,1.44-7.16c0.4,0.6,0.81,1.2,1.24,1.81c1.04,22.62-4.64,45.73,1.57,67.97
		c3.07,12.28,11.88,23.22,23.7,28.01c8.11,3.67,17.41,4.38,26.09,2.64c1.68-0.41,4.02-1.5,3.59-3.64c0.12-3.6-3.93-4.37-6.03-6.42
		c-7.79-6.89-10.29-17.6-11.53-27.5c-2.26-20.2,1.38-40.56-0.9-60.77c19.95-0.17,39.91,0.05,59.86,0c2.16-0.11,4.89-0.11,6.24-2.15
		c1.5-2.41,1.1-5.41,1.25-8.12c-0.14-2.6,0.56-5.87-1.81-7.7c-3.12-2.24-7.24-1.46-10.83-1.53c-0.22-80.92,0.07-161.84-0.14-242.76
		c-0.1-11.4,0.26-22.81-0.17-34.2l0.08-0.45c3.95-0.31,9.3,1.03,11.93-2.81c2.64-3.03,0.48-8.56-3.46-8.96
		c-148.65,0.15-297.32,0.03-445.98,0.04c-3.67,0.16-7.44-0.52-11.03,0.32c-4.7,1.67-4.51,9.28,0.07,10.95
		c2.98,0.74,6.11,0.29,9.15,0.41c-0.31,56.55,0.2,113.12-0.31,169.67c0.2,4.61,0.34,9.23,0.22,13.85
		c-9.14,3.28-18.41,6.26-27.46,9.74c-11.14-22.44-21.67-45.19-32.47-67.8c-4.06-8.22-7.84-16.6-12.72-24.38
		c-3.29-5.22-9.16-7.74-14.47-10.37c-8.29-3.83-16.72-7.32-25.03-11.11c-2.7-1.22-4.73-3.44-6.98-5.29
		c-1.06-2.31-3.44-3.58-5.47-4.9l-0.01-0.25c-1.25-1.31-2.34-2.76-3.13-4.39c-0.08-1.49-0.11-2.98-0.09-4.46
		c8.07,0.31,15.5-4.79,19.78-11.37c4.84-7.93,5.17-17.55,5.48-26.57c0.54-6.92,1.29-13.82,1.87-20.73
		c0.09-5.2,1.37-10.37,0.52-15.57c8.16,0.41,17.37-2.34,21.69-9.8c1.69-3.34,3.13-8.1,0.03-11.04c-3.11,0.99-6.95,1.79-9.66-0.61
		c-4.06-3.69-6.39-8.85-10.23-12.76c-5.02-5.23-11.58-8.98-18.75-10.23C336.13,132.92,323.72,135.34,312.94,140.58z"/>
	<path style="fill:#FFFFFF;" d="M394.78,480.99c-0.07-21.86-1.06-43.73-0.35-65.57c4.39,7.4,9.86,14.16,15.95,20.22
		c3.4,3.48,7.9,5.58,12.48,7.04c6.22,1.54,12.15-1.64,17.53-4.35c8.08-4.22,16.2-8.35,24.1-12.89c1.35,7.46,0.27,15.03,0.5,22.55
		c0.25,7.6-0.52,15.22,0.25,22.82c-3.98,0.66-9.95-1.16-12.07,3.37c-0.93,4.13-0.8,8.53-0.1,12.69c0.96,3.5,5.09,3.39,8,3.38
		c11.97-0.22,23.95,0.37,35.91-0.39c31.68-0.36,63.35,0.09,95.02,0.35c10.64-0.9,21.29,0.04,31.94-0.45
		c28.9,0.03,57.78,0.2,86.69-0.15c-0.21,1.72-0.41,3.44-0.59,5.17c-0.2,1.56-0.43,3.12-0.62,4.69c-3.41,0.83-9.19,0.73-9.25,5.54
		c-0.73,3.85,3.46,4.75,6.22,5.71c-0.44,7.93,0.98,16.43,6.14,22.73c3.37,4.33,8.34,7.31,13.69,8.44c3.49,0.45,7.03,0.3,10.54,0.62
		c-0.63-0.35-1.24-0.7-1.85-1.05c0.68-0.02,2.03-0.07,2.71-0.09c0.05,4.97,0.04,9.95-0.11,14.92c-3.35,1.19-5.93,3.69-8.37,6.17
		c-6.93,0.66-15.3,1.18-20,7c-5.13,4.26-8.91,9.86-11.95,15.74c-4.22,8.13-8.92,16.05-12.54,24.48c-1.08,2.02-0.18,5.51-3.03,6.2
		c-0.34,0.46-0.67,0.94-0.98,1.42c-4.08,4.74-5.9,10.82-9.17,16.06c-3.37-0.71-6.83-0.8-10.21-1.44c-3.21-3.94-4.51-9.02-6.76-13.51
		c-4.2-8.73-8.1-17.6-12.58-26.19c-1.75-3.34-2.87-7.06-5.22-10.05c-1.8-0.71-3.79-0.48-5.67-0.56
		c-23.61,0.19-47.22-0.18-70.83,0.09c-0.73,0.93-1.46,1.85-2.18,2.78c-0.47-1.03-1.12-1.91-1.94-2.64c-1.13,1-2.18,2.12-2.98,3.41
		c0.47,2.69,2.08,4.99,3.19,7.44c6.82,14.13,13.54,28.3,20.34,42.44c0.17,3.12-2.94,6.73-0.08,9.32c3.28,3.44,3.75,8.62,7.22,11.91
		c1.56,1.76,4.11,1.59,6.25,1.91c4.53,0.28,9.02,0.91,13.51,1.56c5.61,0.86,11.34,0.82,16.91,2.04c0.86,0.29,1.72,0.6,2.6,0.93
		c0.62,1.67,1.27,3.35,1.93,5.03c-4.44-0.03-8.88-0.01-13.3,0.41c-0.03-1.29-0.04-2.57-0.05-3.85c-0.66-0.08-1.97-0.24-2.62-0.32
		c-0.37-0.04-1.11-0.11-1.48-0.14c-11.15-0.76-22.34-0.02-33.5-0.11c-9.96,0.17-19.95-0.36-29.89,0.44
		c-0.07,0.71-0.22,2.12-0.3,2.83c-0.08,0.82-0.24,2.45-0.33,3.27c-11.05-0.2-22.12-0.08-33.17,0.01
		c0.87-11.46,2.32-22.86,3.32-34.31c1.27-1.58,4.16-2.56,3.39-5.03c-0.21-3.59-4.37-3.48-7.02-3.52c3.21-7.49,7.31-14.68,9.43-22.58
		c1.36-3.81-4.79-6.53-6.72-3.21c-4.03,6.09-6.84,12.9-10.24,19.36c0.28-10.42,2.13-20.71,2.69-31.1c-0.03-1.74-0.44-4.04-2.34-4.65
		c-1.77-1.21-3.74-0.03-5.48,0.58c-2.7,2.69-2.6,6.78-3.68,10.21c-0.42-2.04-0.84-4.08-1.25-6.11c-0.15,3.02-0.35,6.04-0.36,9.07
		c-0.66-6.88-0.61-13.91-2.64-20.59c-2.18,0.15-5.18-0.97-6.57,1.3c-1.16,1.47-1.19,3.4-1.15,5.19c0.48,11.38,1.03,22.76,1.62,34.13
		c-4.59-7.72-7.97-16.15-13.01-23.6c-1.14-1.91-3.61-0.9-5.4-0.99c-0.42,0.62-1.27,1.85-1.7,2.47c0.53,5.71,3.62,10.62,5.95,15.72
		c2.32,4.91,4.69,9.8,6.86,14.79c-1.94,0.06-3.89,0.11-5.77,0.6c-0.9,1.12-1.42,2.52-1.52,3.96c0.58,1.87,2.44,2.77,3.96,3.77
		c0.87,11.51,2.36,22.98,3.14,34.51c-27.1-0.31-54.21-0.05-81.31-0.03c-0.25-5.5-0.54-11-0.35-16.51c0.86-2.33,1.85-4.62,2.68-6.96
		c1.18-1.61,2.46-3.16,3.45-4.89c0.85-2.08-0.82-3.89-1.64-5.64c7.69-16.69,15.66-33.29,23.87-49.72c0.83-2.3-2.18-3.55-3.39-5.03
		c-0.66,1.29-1.32,2.59-1.95,3.9c-0.38-1.26-0.76-2.51-1.12-3.75c-6.7-0.28-13.4-0.05-20.1-0.05c-1.81,0.05-3.52-0.49-5.18-1.11
		c-0.28-14.63-1.24-29.23-1.95-43.84c-0.2-3.01-0.35-6.01-0.55-9.01c2.48-0.85,6.12-0.81,7.09-3.76c0.69-5.27-0.06-10.6-0.02-15.89
		C395.44,499.02,394.69,490.01,394.78,480.99 M682.13,612.16"/>
	<path style="fill:#FFFFFF;" d="M322.67,689.26c2.67,0.01,5.35-0.01,8.01-0.24c1.31,10.43,2.02,20.93,3.1,31.39
		c4.78,46.53,9.45,93.07,14.16,139.61c0.73,7.78,1.68,15.55,1.97,23.37c-0.6,3.76-1.03,7.8,0.26,11.47
		c4.49,1.07,9.18,0.72,13.77,0.68c-0.29,2.05-0.51,4.17-1.34,6.11c-2.64,4.93-3.17,10.59-3.18,16.09c-3.91-0.04-7.82,0.2-11.69,0.69
		c-2.78-2.43-6.11-4.17-9.68-5.08c-5.68-1.47-11.29-3.28-16.56-5.87c-0.34-0.17-1.02-0.49-1.36-0.65
		c0.22-15.16-0.18-30.34,0.3-45.49c1.34-5.04,2.69-10.08,3.95-15.14c2.73-11.6,5.86-23.1,8.35-34.75
		c2.32-10.25,5.1-20.76,3.73-31.34c-1.71-7.38-5.69-14.17-10.9-19.64c-2.62-2.82-6.09-4.69-8.65-7.57
		C318.85,731.69,320.87,710.48,322.67,689.26z"/>
	<path style="fill:#FFFFFF;" d="M395.64,688.82c5.78,0.58,11.58,0.25,17.37,0.33c28.43-0.01,56.86,0.1,85.29-0.07
		c0.09,5.99,0.2,11.99,0.14,17.98c0.07,69.92,0.04,139.85-0.02,209.77c-14.8,0.34-29.6,0.26-44.4,0.31
		c-4.29-0.11-8.61-0.11-12.82,0.83c-2.82-3.26-7.07-4.41-11.08-5.44c-11.98-2.96-23.86-6.92-34.61-13.06
		c-0.8-1.36-1.42-2.81-2.03-4.23c0.7-0.05,2.09-0.16,2.79-0.21c1.81-0.08,3.63-0.21,5.46-0.33c0.18-3.58,0.38-7.16,0.54-10.74
		c-0.44-0.33-1.31-1-1.75-1.33c-0.99-45.48-2.01-90.97-3.59-136.44c0.26-8.08-0.51-16.15-0.44-24.23
		C396.49,710.91,395.34,699.87,395.64,688.82z"/>
	<path style="fill:#FFFFFF;" d="M518.82,689.16c63.73,0.05,127.46,0.3,191.19-0.03c0.44,12.11-0.09,24.24-0.13,36.35
		c-17.94,2.89-35.51,8.05-52.21,15.21c-11.86,5.47-24.31,12.47-30.23,24.72c-5.6,11.08-4.03,23.95-1.26,35.59
		c6.78,28.26,14.12,56.39,22.01,84.37c-0.5,0.89-0.99,1.79-1.46,2.7c0.73,2.92,1.55,5.82,2.45,8.7c0.88,0.08,2.62,0.23,3.49,0.31
		c-0.22,2.47-0.7,4.99-2.32,6.97c-12.28,5.65-25.23,9.6-38.23,13.17c-31.09,0.05-62.18-0.07-93.27-0.15
		c-0.06-70.09,0.12-140.18-0.08-210.27C518.91,700.92,518.76,695.04,518.82,689.16z"/>
	<path style="fill:#FFFFFF;" d="M817.32,736.22c5.66,0.49,11.35,0.23,17.03,0.27c-0.08,4.61,0.01,9.23-0.06,13.85
		c0.21,8.36-0.6,16.82,0.47,25.13l-0.52,0.04c-11.05-0.87-22.21,0.53-33.2-0.83c7.93-3.09,13.98-10.45,15.5-18.81
		c1.03-4.7,0.6-9.52,0.7-14.27c0.02-1.62,0.09-3.22,0.09-4.82L817.32,736.22z"/>
	<path style="fill:#FFFFFF;" d="M734.47,798.41c11.61,0.08,23.21-0.03,34.82,0.04c-0.05,41.13,0,82.25-0.05,123.38
		c-8.84,0.46-17.71,0.1-26.53-0.44c-0.24-6.83-1.1-14.19-5.34-19.8c-0.47-0.36-1.42-1.08-1.89-1.44c-0.32-1.42-0.65-2.85-0.82-4.27
		c0.92-0.72,1.88-1.4,2.87-2.02c-0.38-3.16-0.79-6.3-1.03-9.46c-0.45-0.33-1.35-0.99-1.8-1.33c-0.22-9.71,0.3-19.42-0.22-29.12
		C734.38,835.44,734.67,816.92,734.47,798.41z"/>
	<path style="fill:#FFFFFF;" d="M785.42,798.45c16.39-0.09,32.79,0.02,49.18-0.05c-0.54,42.46,0.19,84.96-0.48,127.43
		c-16.14-1.38-32.37-2.06-48.57-1.91l-0.01-0.2C785.37,881.97,785.43,840.21,785.42,798.45z"/>
	<path style="fill:#FFFFFF;" d="M143.65,798.46c16.43,0.02,32.86-0.03,49.29,0c0.11,41.95,0.05,83.9-0.02,125.86
		c-10.16,0.32-20.31,0.83-30.46,1.35c-6.14,0.77-12.32,1.15-18.51,1.22c-0.58-11.94-0.06-23.91-0.2-35.86
		C143.75,860.17,143.74,829.31,143.65,798.46z"/>
	<path style="fill:#FFFFFF;" d="M209.13,798.5c4.94-0.14,9.89-0.03,14.83-0.03c-1.75,12.7-3.94,25.34-5.72,38.04
		c-2.43,14.54-3.96,29.24-6.99,43.67c-1.33,4.11-1.63,8.43-1.62,12.72c0.79,0.64,1.59,1.28,2.39,1.93l0.58-0.12
		c0.61-0.09,1.83-0.27,2.44-0.35l-0.27,1.68c-0.26,1.52-0.66,3.04-1.3,4.48c-3.38,4.31-3.44,9.86-3.67,15.08
		c-1.3-12.51-0.07-25.09-0.69-37.62C209.31,851.49,209.06,824.99,209.13,798.5z"/>
	<path style="fill:#FFFFFF;" d="M674.16,819.18c9.64,22.28,20.12,44.18,30.36,66.18c1.58,3.9,2.1,8.42,5.25,11.51
		c0.14,1.15,0.31,2.32,0.5,3.49c-9.19,3.46-18.06,7.75-27.39,10.83c-1.02-2.54-1.98-5.11-3.4-7.45c-0.23-0.29-0.68-0.88-0.91-1.17
		c-0.25-1.7-0.47-3.4-0.58-5.09c0.16-0.21,0.5-0.64,0.67-0.86c2.38-1.92,1.29-5.2,0.9-7.74c-1.17-4.24-2.21-8.52-2.67-12.89
		c-1.1-7.67-2.02-15.36-2.61-23.08c-0.6-5.95-0.58-11.94-0.22-17.9C674.38,829.73,673.82,824.45,674.16,819.18z"/>
</g>
<g id="_x23_351516ff">
	<path style="fill:#351516;" d="M312.94,140.58c10.78-5.24,23.19-7.66,35.11-5.61c7.17,1.25,13.73,5,18.75,10.23
		c3.84,3.91,6.17,9.07,10.23,12.76c2.71,2.4,6.55,1.6,9.66,0.61c3.1,2.94,1.66,7.7-0.03,11.04c-4.32,7.46-13.53,10.21-21.69,9.8
		c-10.54,0.11-21.2-1.97-30.71-6.59c-3.29-1.55-6.15-3.85-8.74-6.38c-1.82,2.84-4.21,5.32-7.2,6.94c-4.74,3-10.54,2.95-15.83,4.22
		c-1.41,9.39-1.68,18.92-1.76,28.41c-0.08,2.58-0.19,6.39-3.45,6.91c-2.58-3-2.4-7.22-3.72-10.77c-1.14-3.84-4.33-7.62-8.64-7.55
		c-3.59-0.34-6.53,2.12-8.75,4.64c-4.8-9.92-5.7-21.66-2.23-32.13c3.47-10.38,10.9-19.88,21.31-23.91
		C300.79,140.66,306.93,140.23,312.94,140.58z"/>
	<path style="fill:#351516;" d="M726.35,443.4c13.64-6.95,29.82-9.56,44.78-5.82c12.64,2.87,24.27,10.44,31.26,21.45
		c-0.04,1.67-0.07,3.37,0.03,5.05c1.07,5.3,0.67,11.18,3.69,15.88c1.06,2.11,3.67,1.52,5.59,1.84c0.18,4.53,0.06,9.09-0.79,13.56
		c-2.09,12.52-7.98,24.45-17.44,33.02c-6.89,6.23-15.51,10.63-24.72,12.09c0.05,0.6,0.14,1.81,0.19,2.42
		c-0.6,2.73-0.41,5.55-0.25,8.34c-0.05-0.51-0.16-1.51-0.22-2.01c-0.24-2.99-0.19-5.98-0.13-8.97c-8.26,0.63-15.86-3.07-23.36-5.91
		c-2.56-5.04-5.1-10.1-6.63-15.56c10.86,0.7,17.98-12.84,12.62-21.78c-1.42-2.63-4.5-3.22-7.14-3.82c-1.73,1.55-3.39,3.18-4.99,4.87
		c-1.74-2.32-3.43-4.67-5.24-6.93c-2.78-5.02-5.29-10.31-6.16-16.03c-0.58-4.14-0.15-8.34-0.04-12.49
		c-4.08,3.19-6.92,7.55-10.24,11.45c-0.88,0.99-1.76,1.99-2.57,3.04c-3.13-1.61-6.08-3.7-8.07-6.66c-0.49-2.66-0.64-5.54,0.8-7.95
		C711.47,454.35,718.11,447.42,726.35,443.4 M774.22,464.45c-0.14,0.39-0.42,1.18-0.55,1.58c2.75,1.55,6.32,0.54,9.41,0.78
		c6.07-0.48,12.07,0.78,18.13,0.91c-1.03-2.44-3.86-2.5-6.09-3C788.22,463.43,781.17,464.05,774.22,464.45 M782.92,482.98
		c-2.32,1.23-3.92,3.29-3.84,6.02c7.31,0.27,13.15-4.99,18.31-9.5c2.14-2.14,5.25-4.1,4.89-7.56
		C794.68,473.19,789.27,479.16,782.92,482.98z"/>
	<path style="fill:#351516;" d="M809.94,458.38c4.73-2.04,9.74-3.93,15-3.1c9.38,0.49,16.84,7.85,20.25,16.19
		c2.72,5.94,4.03,12.39,4.89,18.83c2.28,20.21-1.36,40.57,0.9,60.77c1.24,9.9,3.74,20.61,11.53,27.5c2.1,2.05,6.15,2.82,6.03,6.42
		c0.43,2.14-1.91,3.23-3.59,3.64c-8.68,1.74-17.98,1.03-26.09-2.64c-11.82-4.79-20.63-15.73-23.7-28.01
		c-6.21-22.24-0.53-45.35-1.57-67.97c-0.16-2.71-0.32-5.42-0.69-8.1C812.1,474.04,812.54,465.97,809.94,458.38z"/>
</g>
<g id="_x23_f98c55ff">
	<path style="fill:#F98C55;" d="M325.52,166.44c2.59,2.53,5.45,4.83,8.74,6.38c9.51,4.62,20.17,6.7,30.71,6.59
		c0.85,5.2-0.43,10.37-0.52,15.57c-0.58,6.91-1.33,13.81-1.87,20.73c-0.31,9.02-0.64,18.64-5.48,26.57
		c-4.28,6.58-11.71,11.68-19.78,11.37c-11.2-0.54-22.48-3.75-31.51-10.56c-5.16-3.89-8.27-9.65-12-14.76
		c-0.02-1.97-0.08-3.93-0.24-5.89l-0.87-0.05c-3.57-0.13-7.4,0.46-10.59-1.54c-7.92-3.61-9.93-14.41-5.94-21.61
		c2.22-2.52,5.16-4.98,8.75-4.64c4.31-0.07,7.5,3.71,8.64,7.55c1.32,3.55,1.14,7.77,3.72,10.77c3.26-0.52,3.37-4.33,3.45-6.91
		c0.08-9.49,0.35-19.02,1.76-28.41c5.29-1.27,11.09-1.22,15.83-4.22C321.31,171.76,323.7,169.28,325.52,166.44 M317.77,183.83
		c-1.78,0.76-4.51,1.1-5.19,3.12c0.29,0.72,0.87,2.18,1.16,2.91c5.09-0.38,10.21-0.08,15.29-0.63c1.8-1.05,3.53-4.17,1.01-5.46
		C326.19,181.94,321.75,183.09,317.77,183.83 M346.82,183.78c-2.5,0.86-1.44,3.68-1.23,5.59c4.93,1.4,10.09,1.5,15.15,2.19
		c0.25-1.37,0.5-2.74,0.76-4.11C357.56,183.98,351.92,182.48,346.82,183.78 M319.51,198.28c-0.53,3.53-0.93,7.94,2.44,10.22
		c0.58-0.3,1.75-0.92,2.33-1.22c0.91-3.54,1.98-8-0.53-11.09C322.16,194.39,319.78,196.46,319.51,198.28 M351.23,197.12
		c-2.42,2.65-1.79,6.62-1.37,9.88c0.3,1.79,2.15,1.91,3.58,1.51c2.33-2.69,2.43-6.74,1.16-9.92
		C354.22,197.33,352.29,195.33,351.23,197.12 M278.52,202.06c4.21-1.84,8.65-0.87,12.8,0.57c-2.01-3.09-5.92-4.01-9.4-3.89
		C280.13,198.93,278.39,200.06,278.52,202.06 M340.06,199.77c0.71,5.87,5.17,10.39,5.97,16.2c-3.21,1.48-6.77,1.3-10.21,1.26
		c1.36,2.63,4.71,2.29,7.23,2.15c2.26-0.39,5.32-1.71,5.21-4.44c-0.45-3.66-2.73-6.71-4.2-10
		C342.96,203.07,342.45,200.41,340.06,199.77 M322.28,221.41c0.6,7.96,8.98,13.78,16.67,13.02c5.49-1.06,9.26-6.43,9.65-11.82
		c-3.87,0-7.72,0.43-11.59,0.5C332.07,222.82,327.17,222.12,322.28,221.41z"/>
</g>
<g id="_x23_db9b74ff">
	<path style="fill:#DB9B74;" d="M456.09,192.93c-4.58-1.67-4.77-9.28-0.07-10.95c3.59-0.84,7.36-0.16,11.03-0.32
		c148.66-0.01,297.33,0.11,445.98-0.04c3.94,0.4,6.1,5.93,3.46,8.96c-2.63,3.84-7.98,2.5-11.93,2.81
		c-108.53-0.04-217.06,0.52-325.59,0.19c-37.91-0.31-75.82-0.06-113.73-0.24C462.2,193.22,459.07,193.67,456.09,192.93z"/>
</g>
<g id="_x23_291312ff">
	<path style="fill:#291312;" d="M317.77,183.83c3.98-0.74,8.42-1.89,12.27-0.06c2.52,1.29,0.79,4.41-1.01,5.46
		c-5.08,0.55-10.2,0.25-15.29,0.63c-0.29-0.73-0.87-2.19-1.16-2.91C313.26,184.93,315.99,184.59,317.77,183.83z"/>
</g>
<g id="_x23_2b1112ff">
	<path style="fill:#2B1112;" d="M346.82,183.78c5.1-1.3,10.74,0.2,14.68,3.67c-0.26,1.37-0.51,2.74-0.76,4.11
		c-5.06-0.69-10.22-0.79-15.15-2.19C345.38,187.46,344.32,184.64,346.82,183.78z"/>
</g>
<g id="_x23_a6dbd9ff">
	<path style="fill:#A6DBD9;" d="M465.24,193.34c37.91,0.18,75.82-0.07,113.73,0.24c108.53,0.33,217.06-0.23,325.59-0.19l-0.08,0.45
		c-0.44,2.38-0.77,4.79-0.75,7.21c0.16,14.33,0.06,28.67,0.16,43c-0.1,1.87,0.09,4-1.25,5.5c-2.74,3.3-6.31,5.75-9.34,8.75
		c-3.7,3.31-6.4,7.58-10.23,10.76c-5.48,4.51-9.76,10.25-15.06,14.96c-7.49,6.5-13.73,14.24-20.89,21.08
		c-6.52,7.83-14.96,13.72-21.54,21.47c-4.51,5.16-10.22,9.12-14.5,14.48c-3.77,4.57-8.29,8.4-12.44,12.6
		c-6.95,7.38-14.22,14.45-21.41,21.6c-2.71,2.56-5.9,5.6-5.2,9.74c1.18,10.28,1.34,20.71,0,31c-0.89,6.09,1.01,12.33-0.5,18.34
		c0.27,0.48,0.56,0.96,0.86,1.45c-0.32,0.45-0.94,1.35-1.26,1.8c-14.96-3.74-31.14-1.13-44.78,5.82
		c-8.24,4.02-14.88,10.95-19.03,19.08c-1.44,2.41-1.29,5.29-0.8,7.95c-3.71,0.15-7.4,0.48-11.09,0.74
		c-0.24-2.28-0.48-4.55-0.71-6.81c-26,0.13-52-0.03-78,0.19c-0.28,1.61-0.57,3.22-0.88,4.83c-1.06,0.94-2.38,1.43-3.8,1.32
		c-48.93,0.02-97.87-0.23-146.8,0.11c-0.77-7.6,0-15.22-0.25-22.82c-0.23-7.52,0.85-15.09-0.5-22.55
		c21.76-12.37,43.4-24.96,64.64-38.2c2.67-1.73,6.01-2.74,7.96-5.37c0.07-1.89-1.24-3.45-2.07-5.04c3.43-1.69,7.05-3.18,10.94-3.14
		c4.68,0.05,9.12-1.5,13.32-3.44c3.2-1.58,7.28-2.33,9.11-5.75c2.9-4.95,8.27-7.83,10.99-12.92c1.31-2.01,0.49-4.48,0.5-6.7
		c-0.77-3.37,3.81-5.32,2.69-8.8c-1.34-4.43-6.88-4.13-10.44-5.65c5.49-5.61,11.78-10.41,16.72-16.56c-1.12-1.39-2.33-2.7-3.6-3.95
		c-8.74,6.56-16,14.8-24.21,21.97c-1.47-2.35-3.07-4.62-4.75-6.83c-7.88,0.54-15.12,5.15-20.42,10.8
		c-5.4,5.74-5.85,14.54-11.62,19.9c-4.86-0.35-8.92,2.77-13.38,4.16c-15.19,5.79-30.42,11.47-45.72,16.94
		c0.12-4.62-0.02-9.24-0.22-13.85C465.44,306.46,464.93,249.89,465.24,193.34z"/>
</g>
<g id="_x23_9bd1d1ff">
	<path style="fill:#9BD1D1;" d="M903.73,201.05c-0.02-2.42,0.31-4.83,0.75-7.21c0.43,11.39,0.07,22.8,0.17,34.2
		c0.21,80.92-0.08,161.84,0.14,242.76c-8.28-0.06-16.55,0.17-24.82,0.04c-9-0.03-18.01,0.84-26.99-0.01
		c-2.62-0.1-5.21,0.34-7.79,0.64c-3.41-8.34-10.87-15.7-20.25-16.19c-5.26-0.83-10.27,1.06-15,3.1c-2.25,0.08-4.49,0-6.72-0.07
		c-0.44,1.89-0.85,3.81-0.8,5.77c-0.1-1.68-0.07-3.38-0.03-5.05c-6.99-11.01-18.62-18.58-31.26-21.45c0.32-0.45,0.94-1.35,1.26-1.8
		c-0.3-0.49-0.59-0.97-0.86-1.45c1.51-6.01-0.39-12.25,0.5-18.34c1.34-10.29,1.18-20.72,0-31c-0.7-4.14,2.49-7.18,5.2-9.74
		c7.19-7.15,14.46-14.22,21.41-21.6c4.15-4.2,8.67-8.03,12.44-12.6c4.28-5.36,9.99-9.32,14.5-14.48
		c6.58-7.75,15.02-13.64,21.54-21.47c7.16-6.84,13.4-14.58,20.89-21.08c5.3-4.71,9.58-10.45,15.06-14.96
		c3.83-3.18,6.53-7.45,10.23-10.76c3.03-3,6.6-5.45,9.34-8.75c1.34-1.5,1.15-3.63,1.25-5.5
		C903.79,229.72,903.89,215.38,903.73,201.05z"/>
</g>
<g id="_x23_1d0f0dff">
	<path style="fill:#1D0F0D;" d="M319.51,198.28c0.27-1.82,2.65-3.89,4.24-2.09c2.51,3.09,1.44,7.55,0.53,11.09
		c-0.58,0.3-1.75,0.92-2.33,1.22C318.58,206.22,318.98,201.81,319.51,198.28z"/>
</g>
<g id="_x23_170d07ff">
	<path style="fill:#170D07;" d="M351.23,197.12c1.06-1.79,2.99,0.21,3.37,1.47c1.27,3.18,1.17,7.23-1.16,9.92
		c-1.43,0.4-3.28,0.28-3.58-1.51C349.44,203.74,348.81,199.77,351.23,197.12z"/>
</g>
<g id="_x23_d15c2fff">
	<path style="fill:#D15C2F;" d="M278.52,202.06c-0.13-2,1.61-3.13,3.4-3.32c3.48-0.12,7.39,0.8,9.4,3.89
		C287.17,201.19,282.73,200.22,278.52,202.06z"/>
</g>
<g id="_x23_cb542cff">
	<path style="fill:#CB542C;" d="M340.06,199.77c2.39,0.64,2.9,3.3,4,5.17c1.47,3.29,3.75,6.34,4.2,10c0.11,2.73-2.95,4.05-5.21,4.44
		c-2.52,0.14-5.87,0.48-7.23-2.15c3.44,0.04,7,0.22,10.21-1.26C345.23,210.16,340.77,205.64,340.06,199.77z"/>
</g>
<g id="_x23_cda183ff">
	<path style="fill:#CDA183;" d="M292.7,222.39l0.87,0.05c0.16,1.96,0.22,3.92,0.24,5.89c-0.09,3.72,0.01,7.45,0.04,11.18
		c0.26,7.79-1.82,16.29,2.2,23.44c3.47,7.08,6.37,14.51,10.89,21.03c-0.71-0.14-2.12-0.42-2.83-0.56
		c-4.14-5.08-5.26-11.7-8.07-17.47c-1.35-2.87-2.88-5.64-4.33-8.45c0.36-0.82,0.69-1.65,0.97-2.5
		C294.41,244.17,292.46,233.26,292.7,222.39z"/>
</g>
<g id="_x23_fffefcff">
	<path style="fill:#FFFEFC;" d="M322.28,221.41c4.89,0.71,9.79,1.41,14.73,1.7c3.87-0.07,7.72-0.5,11.59-0.5
		c-0.39,5.39-4.16,10.76-9.65,11.82C331.26,235.19,322.88,229.37,322.28,221.41z"/>
</g>
<g id="_x23_db5236ff">
	<path style="fill:#DB5236;" d="M293.81,228.33c3.73,5.11,6.84,10.87,12,14.76c9.03,6.81,20.31,10.02,31.51,10.56
		c-0.02,1.48,0.01,2.97,0.09,4.46c0.41,3.71,0.86,7.42,1.25,11.14c-13.37,0.47-25.71-6.83-34.4-16.54
		c-4.03-3.95-6.82-8.89-10.41-13.2C293.82,235.78,293.72,232.05,293.81,228.33z"/>
</g>
<g id="_x23_fa8a53ff">
	<path style="fill:#FA8A53;" d="M293.85,239.51c3.59,4.31,6.38,9.25,10.41,13.2c8.69,9.71,21.03,17.01,34.4,16.54
		c0.84,1.8,1.92,3.47,2.95,5.17c0.56,2.19,0.93,4.43,1.21,6.68c-9.64,8.84-24.67,8.32-35.88,2.88c-4.52-6.52-7.42-13.95-10.89-21.03
		C292.03,255.8,294.11,247.3,293.85,239.51z"/>
</g>
<g id="_x23_7baba7ff">
	<path style="fill:#7BABA7;" d="M281.32,269.37c4-3.48,7.21-7.67,10.39-11.87c1.45,2.81,2.98,5.58,4.33,8.45
		c2.81,5.77,3.93,12.39,8.07,17.47c1.38,2.92,2.48,5.96,3.66,8.97c9.93,3.79,21.39,4.09,31.28-0.01c2.37-0.93,4.74-1.88,7.14-2.73
		c-11.41,6.83-25.85,8.08-38.27,3.33c2.86,9.42,4.56,19.13,5.67,28.9c3.17,27.13,5.24,54.39,6.3,81.69l-0.33-0.56
		c-0.61-3.73-1.27-7.46-2.42-11.07c-4.6-14.79-10.1-29.28-15.17-43.91c-3.7-9.81-7.1-19.74-11.46-29.28
		c4.24-4,9.09-7.32,13.03-11.65c0.38-0.37,1.14-1.11,1.52-1.48c-4.45-2.51-9.61-3.21-14.17-5.39c-3.47-9.46-5.97-19.33-9.58-28.78
		c-0.3-0.1-0.9-0.29-1.2-0.39c-0.53-0.08-1.57-0.24-2.1-0.33C279.11,270.27,280.21,269.81,281.32,269.37z"/>
</g>
<g id="_x23_9b897aff">
	<path style="fill:#9B897A;" d="M337.41,258.11c0.79,1.63,1.88,3.08,3.13,4.39l0.01,0.25c0.1,3.91,0.33,7.83,1.06,11.67
		c-1.03-1.7-2.11-3.37-2.95-5.17C338.27,265.53,337.82,261.82,337.41,258.11z"/>
</g>
<g id="_x23_7caaa6ff">
	<path style="fill:#7CAAA6;" d="M340.55,262.75c2.03,1.32,4.41,2.59,5.47,4.9c1.22,3.77,3.48,7.07,6.33,9.81
		c3.96,5.97,7.71,12.08,11.47,18.18c-3.25,2.91-6.27,6.13-8.16,10.11c0.39,0.31,1.16,0.93,1.55,1.23c4.7,4.4,11.15,6.9,15.05,12.08
		c-0.84,2.21-1.6,4.47-1.98,6.81c-3.04,18.37-6.57,36.67-9.27,55.09c-1.82,7.75-1.71,15.72-2.04,23.62
		c-0.03,0.39-0.08,1.17-0.11,1.56c-1.43-32.11-2.4-64.36-7.06-96.22c-1.4-10.18-4.01-20.23-8.02-29.71
		c-0.24,0.22-0.72,0.66-0.96,0.89c-0.28-2.25-0.65-4.49-1.21-6.68C340.88,270.58,340.65,266.66,340.55,262.75z"/>
</g>
<g id="_x23_62837aff">
	<path style="fill:#62837A;" d="M346.02,267.65c2.25,1.85,4.28,4.07,6.98,5.29c8.31,3.79,16.74,7.28,25.03,11.11
		c5.31,2.63,11.18,5.15,14.47,10.37c4.88,7.78,8.66,16.16,12.72,24.38c10.8,22.61,21.33,45.36,32.47,67.8
		c9.05-3.48,18.32-6.46,27.46-9.74c15.3-5.47,30.53-11.15,45.72-16.94c0.75-0.04,2.25-0.11,3-0.15c1.96,3.76,4,7.49,6.19,11.14
		c3.26,5.31,5.69,11.08,9.07,16.33c-21.24,13.24-42.88,25.83-64.64,38.2c-7.9,4.54-16.02,8.67-24.1,12.89
		c-5.38,2.71-11.31,5.89-17.53,4.35c0.97-0.33,1.94-0.66,2.92-0.97c-5.33-3.12-8.7-8.44-11.76-13.63c-2.53-4.34-3.99-9.2-5.06-14.09
		c-5.29-26.09-7.12-52.71-11.23-78.99c-0.6-3.76-0.73-7.58-1.37-11.33c0.02-1.52-1.3-2.27-2.24-3.2c-0.9,7.17,0.35,14.37,0.02,21.56
		c0.11,24.47,0.08,48.93,0.29,73.39c-0.71,21.84,0.28,43.71,0.35,65.57c-0.09,9.02,0.66,18.03,0.59,27.06
		c-0.04,5.29,0.71,10.62,0.02,15.89c-0.97,2.95-4.61,2.91-7.09,3.76c-6.68,1.4-13.49,2.58-20.34,2.1c-1.76-1.37-4.02-2.75-4.25-5.2
		c-0.67-4.35-0.82-8.76-0.97-13.15c-0.63-25.15-1.77-50.28-2.54-75.42c-0.73-9.95-0.37-19.96-1.34-29.89
		c0.03-0.39,0.08-1.17,0.11-1.56c3.4-8.82,4.23-18.35,6.01-27.57c3.25-16.82,4.85-33.89,7.33-50.83c0.31-2.36,0.27-4.76-0.05-7.12
		c-3.9-5.18-10.35-7.68-15.05-12.08c2.36-4.2,6.61-6.68,9.79-10.17c-4.32-6.28-8.6-12.61-13.18-18.7c-0.37-0.17-1.1-0.49-1.47-0.65
		C349.5,274.72,347.24,271.42,346.02,267.65 M437.12,386.89c1.59,7.09,2.85,14.21,3.06,21.48c3.63-4.37,1.74-10.36,0.8-15.37
		C440.23,390.76,440.1,387.17,437.12,386.89z"/>
</g>
<g id="_x23_63847bff">
	<path style="fill:#63847B;" d="M254.88,277.84c7.73-2.32,15.32-5.11,23.13-7.11c0.53,0.09,1.57,0.25,2.1,0.33
		c2.8,8.97,5.55,17.95,7.89,27.05c0.65,1.97,1.2,4.55,3.48,5.26c3.95,1.45,8.06,2.41,12.06,3.73c-3.94,4.33-8.79,7.65-13.03,11.65
		c-1.05,2.63,0.17,5.34,1.04,7.83c8.54,22.97,16.68,46.08,24.56,69.29c0.77,2.54,1.91,4.96,3.45,7.14l0.33,0.56
		c0.94,17.77,0.46,35.59,1.34,53.37c0.22,18.26,0.4,36.52,0.54,54.78c-0.1,5.51,0.28,11.06-0.37,16.55
		c-0.23,2.82-2.44,5.34-5.32,5.62c-6.1,0.68-12.26,0.12-18.39,0.21c-5.76-0.85-11.6-0.99-17.37-1.72
		c-2.05-7.52-4.51-14.94-7.77-22.03c-1.27-2.59-1.97-5.4-2.39-8.23c1.56-1.7,3.22-3.29,4.87-4.9c-0.49-2.07-0.34-4.63-2.22-6.03
		c-2.06-1.67-4.73-2.25-7.19-3.07c-2.8-6.91-3.63-14.41-6.04-21.44c4.26-0.07,8.57,0.27,12.8-0.36c2.33-0.48,2.88-3.25,3.01-5.25
		c0.31-8.76-4.11-17.1-10.47-22.9c-4.19-3.58-9.59-5.17-14.57-7.3c1.32-16.65,2.51-33.32,4.71-49.88c0.79-8.38,2.5-16.67,2.64-25.09
		c-2.12,7.24-3.31,14.72-4.81,22.11c-3.7,17.13-7,34.35-10.89,51.45c-4.21-0.52-8.1,1.2-12.06,2.21c-3.34-0.2-6.27-2.05-9.5-2.73
		c-11.49-1.91-23.91,0.08-33.37,7.19c3.85-23.6,9.32-46.89,15.05-70.1c4.39-17.7,9.45-35.23,15.22-52.53
		c3.12-8.6,6.46-17.57,13.17-24.07C237.2,283.08,246.33,280.6,254.88,277.84z"/>
</g>
<g id="_x23_2a4f48ff">
	<path style="fill:#2A4F48;" d="M280.11,271.06c0.3,0.1,0.9,0.29,1.2,0.39c3.61,9.45,6.11,19.32,9.58,28.78
		c4.56,2.18,9.72,2.88,14.17,5.39c-0.38,0.37-1.14,1.11-1.52,1.48c-4-1.32-8.11-2.28-12.06-3.73c-2.28-0.71-2.83-3.29-3.48-5.26
		C285.66,289.01,282.91,280.03,280.11,271.06z"/>
</g>
<g id="_x23_31554eff">
	<path style="fill:#31554E;" d="M352.35,277.46c0.37,0.16,1.1,0.48,1.47,0.65c4.58,6.09,8.86,12.42,13.18,18.7
		c-3.18,3.49-7.43,5.97-9.79,10.17c-0.39-0.3-1.16-0.92-1.55-1.23c1.89-3.98,4.91-7.2,8.16-10.11
		C360.06,289.54,356.31,283.43,352.35,277.46z"/>
	<path style="fill:#31554E;" d="M291.55,326.58c-0.87-2.49-2.09-5.2-1.04-7.83c4.36,9.54,7.76,19.47,11.46,29.28
		c5.07,14.63,10.57,29.12,15.17,43.91c1.15,3.61,1.81,7.34,2.42,11.07c-1.54-2.18-2.68-4.6-3.45-7.14
		C308.23,372.66,300.09,349.55,291.55,326.58z"/>
	<path style="fill:#31554E;" d="M394.12,320.47c0.94,0.93,2.26,1.68,2.24,3.2c0.64,3.75,0.77,7.57,1.37,11.33
		c4.11,26.28,5.94,52.9,11.23,78.99c1.07,4.89,2.53,9.75,5.06,14.09c3.06,5.19,6.43,10.51,11.76,13.63
		c-0.98,0.31-1.95,0.64-2.92,0.97c-4.58-1.46-9.08-3.56-12.48-7.04c-6.09-6.06-11.56-12.82-15.95-20.22
		c-0.21-24.46-0.18-48.92-0.29-73.39C394.47,334.84,393.22,327.64,394.12,320.47z"/>
</g>
<g id="_x23_fbfcfcff">
	<path style="fill:#FBFCFC;" d="M343.78,280.21c4.01,9.48,6.62,19.53,8.02,29.71c4.66,31.86,5.63,64.11,7.06,96.22
		c0.97,9.93,0.61,19.94,1.34,29.89c0.77,25.14,1.91,50.27,2.54,75.42c-13.66,0.29-27.31,1.34-40.97,0.27
		c-0.14-18.26-0.32-36.52-0.54-54.78c-0.88-17.78-0.4-35.6-1.34-53.37c-1.06-27.3-3.13-54.56-6.3-81.69
		c-1.11-9.77-2.81-19.48-5.67-28.9c12.42,4.75,26.86,3.5,38.27-3.33c-2.4,0.85-4.77,1.8-7.14,2.73c-9.89,4.1-21.35,3.8-31.28,0.01
		c-1.18-3.01-2.28-6.05-3.66-8.97c0.71,0.14,2.12,0.42,2.83,0.56c11.21,5.44,26.24,5.96,35.88-2.88
		C343.06,280.87,343.54,280.43,343.78,280.21z"/>
</g>
<g id="_x23_1f2348ff">
	<path style="fill:#1F2348;" d="M561.04,331.89c8.21-7.17,15.47-15.41,24.21-21.97c1.27,1.25,2.48,2.56,3.6,3.95
		c-4.94,6.15-11.23,10.95-16.72,16.56c-3.08,0.27-5.93,1.79-6.57,5.06c0.12,0.45,0.38,1.35,0.5,1.8c0.09,0.25,0.26,0.76,0.35,1.02
		c-2.68-0.89-6.27-1.83-8.13,1.05c-2.26,2.29-0.39,5.32,1.89,6.68c-2.06-0.47-4.12-0.91-6.17-1.36c-2.96,3.28-6.03,6.48-9.58,9.12
		c-1.45,1.12-2.9,2.24-4.33,3.39c-1.11,0.86-2.23,1.71-3.33,2.57c-0.66-1.66-1.34-3.31-2.01-4.96l0.75-0.39
		c0.36,1.2,0.71,2.4,1.09,3.61c1.36-0.44,2.7-0.92,4.04-1.44c0.77-1.78-1.17-2.91-2.04-4.14c2.2-2.08,4.39-4.17,6.67-6.18
		C551.01,342.02,555.93,336.84,561.04,331.89z"/>
</g>
<g id="_x23_31564eff">
	<path style="fill:#31564E;" d="M370.28,325.87c0.38-2.34,1.14-4.6,1.98-6.81c0.32,2.36,0.36,4.76,0.05,7.12
		c-2.48,16.94-4.08,34.01-7.33,50.83c-1.78,9.22-2.61,18.75-6.01,27.57c0.33-7.9,0.22-15.87,2.04-23.62
		C363.71,362.54,367.24,344.24,370.28,325.87z"/>
</g>
<g id="_x23_f88a52ff">
	<path style="fill:#F88A52;" d="M535.87,335.86c5.3-5.65,12.54-10.26,20.42-10.8c1.68,2.21,3.28,4.48,4.75,6.83
		c-5.11,4.95-10.03,10.13-15.78,14.37c-3.76,2.15-5.82,6.32-9.76,8.15l-0.75,0.39c0.67,1.65,1.35,3.3,2.01,4.96
		c1.1-0.86,2.22-1.71,3.33-2.57c4.58,2.91,10.01,3.78,15.36,3.76c-3.48-2.68-7.17-5.07-11.03-7.15c3.55-2.64,6.62-5.84,9.58-9.12
		c2.05,0.45,4.11,0.89,6.17,1.36c-2.28-1.36-4.15-4.39-1.89-6.68c1.86-2.88,5.45-1.94,8.13-1.05c3.5,1.34,6.91,2.96,10.54,3.97
		c0.82,2.46,2.22,5.04,1.48,7.7c-2.27,5.28-7.63,8.17-10.64,12.93c-2.46,4.65-8.24,5.04-12.49,7.28
		c-5.55,2.83-12.17,0.81-17.66,3.75c-1.31,0.37-2.61,0.72-3.92,1.05c-2.93-4.51-4.62-9.67-7.43-14.24
		c-0.98-1.54-1.57-3.26-2.04-4.99C530.02,350.4,530.47,341.6,535.87,335.86 M550.69,349.69c0.11,0.52,0.33,1.57,0.44,2.1
		c5.54,3.41,11.65,6.71,18.2,7.47C563.67,355.13,556.91,352.85,550.69,349.69z"/>
</g>
<g id="_x23_ceb49aff">
	<path style="fill:#CEB49A;" d="M565.56,335.49c0.64-3.27,3.49-4.79,6.57-5.06c3.56,1.52,9.1,1.22,10.44,5.65
		c1.12,3.48-3.46,5.43-2.69,8.8c-0.01,2.22,0.81,4.69-0.5,6.7c-2.72,5.09-8.09,7.97-10.99,12.92c-1.83,3.42-5.91,4.17-9.11,5.75
		c-4.2,1.94-8.64,3.49-13.32,3.44c-3.89-0.04-7.51,1.45-10.94,3.14c-0.2-0.33-0.62-1-0.82-1.34c1.13-0.52,2.28-1.05,3.44-1.55
		c5.49-2.94,12.11-0.92,17.66-3.75c4.25-2.24,10.03-2.63,12.49-7.28c3.01-4.76,8.37-7.65,10.64-12.93c0.74-2.66-0.66-5.24-1.48-7.7
		c1.58-1.39,3.19-2.75,4.81-4.1c-0.51-1.15-1.02-2.3-1.51-3.45c-3.77-1.18-7.66-2.94-11.69-2.25c-1.44,1.2-1.8,3.17-2.5,4.81
		C565.94,336.84,565.68,335.94,565.56,335.49z"/>
</g>
<g id="_x23_fd8851ff">
	<path style="fill:#FD8851;" d="M568.56,332.48c4.03-0.69,7.92,1.07,11.69,2.25c0.49,1.15,1,2.3,1.51,3.45
		c-1.62,1.35-3.23,2.71-4.81,4.1c-3.63-1.01-7.04-2.63-10.54-3.97c-0.09-0.26-0.26-0.77-0.35-1.02
		C566.76,335.65,567.12,333.68,568.56,332.48z"/>
</g>
<g id="_x23_f5d7eeff">
	<path style="fill:#F5D7EE;" d="M535.5,354.41c3.94-1.83,6-6,9.76-8.15c-2.28,2.01-4.47,4.1-6.67,6.18
		c0.87,1.23,2.81,2.36,2.04,4.14c-1.34,0.52-2.68,1-4.04,1.44C536.21,356.81,535.86,355.61,535.5,354.41z"/>
</g>
<g id="_x23_d55c35ff">
	<path style="fill:#D55C35;" d="M550.69,349.69c6.22,3.16,12.98,5.44,18.64,9.57c-6.55-0.76-12.66-4.06-18.2-7.47
		C551.02,351.26,550.8,350.21,550.69,349.69z"/>
</g>
<g id="_x23_cc5039ff">
	<path style="fill:#CC5039;" d="M540.09,357.19c1.43-1.15,2.88-2.27,4.33-3.39c3.86,2.08,7.55,4.47,11.03,7.15
		C550.1,360.97,544.67,360.1,540.09,357.19z"/>
</g>
<g id="_x23_30554eff">
	<path style="fill:#30554E;" d="M252.89,378.01c1.5-7.39,2.69-14.87,4.81-22.11c-0.14,8.42-1.85,16.71-2.64,25.09
		c-2.2,16.56-3.39,33.23-4.71,49.88c-2.74-0.71-5.54-1.16-8.35-1.41C245.89,412.36,249.19,395.14,252.89,378.01z"/>
</g>
<g id="_x23_7baca7ff">
	<path style="fill:#7BACA7;" d="M510.87,359.92c4.46-1.39,8.52-4.51,13.38-4.16c0.47,1.73,1.06,3.45,2.04,4.99
		c2.81,4.57,4.5,9.73,7.43,14.24c1.31-0.33,2.61-0.68,3.92-1.05c-1.16,0.5-2.31,1.03-3.44,1.55c0.2,0.34,0.62,1.01,0.82,1.34
		c0.83,1.59,2.14,3.15,2.07,5.04c-1.95,2.63-5.29,3.64-7.96,5.37c-3.38-5.25-5.81-11.02-9.07-16.33c-2.19-3.65-4.23-7.38-6.19-11.14
		C513.12,359.81,511.62,359.88,510.87,359.92z"/>
</g>
<g id="_x23_3c5f55ff">
	<path style="fill:#3C5F55;" d="M437.12,386.89c2.98,0.28,3.11,3.87,3.86,6.11c0.94,5.01,2.83,11-0.8,15.37
		C439.97,401.1,438.71,393.98,437.12,386.89z"/>
</g>
<g id="_x23_78351dff">
	<path style="fill:#78351D;" d="M187.07,436.13c9.46-7.11,21.88-9.1,33.37-7.19c3.23,0.68,6.16,2.53,9.5,2.73
		c3.96-1.01,7.85-2.73,12.06-2.21c2.81,0.25,5.61,0.7,8.35,1.41c4.98,2.13,10.38,3.72,14.57,7.3c6.36,5.8,10.78,14.14,10.47,22.9
		c-0.13,2-0.68,4.77-3.01,5.25c-4.23,0.63-8.54,0.29-12.8,0.36c-0.42-0.02-1.25-0.06-1.67-0.08c-0.21,0.62-0.64,1.85-0.85,2.46
		c1.34-3.43,1.57-7.28-0.86-10.28c-0.13,0.6-0.39,1.8-0.52,2.4c-0.87-2.94-2.03-5.78-3.36-8.53c0.29,7.5-0.13,15.24-3.36,22.16
		c-0.15,0.34-0.44,1.03-0.59,1.38c-0.1-0.59-0.29-1.76-0.39-2.34c-2.89,3.54-5.61,7.23-7.62,11.35c-8.26,2.11-9.01,13.18-4.73,19.21
		c2.13,3.34,6.03,4.72,9.79,5.25c0.23,3.96,0.65,7.92,0.8,11.9c-4.12,7.15-2.56,15.64-4.42,23.4c-1.7,7.35-3.95,14.65-7.3,21.43
		c0.12,0.57,0.35,1.7,0.46,2.27c-6.01,8.67-15.26,14.66-25.04,18.31c-8.8,1.08-18.11,0.52-26.03-3.79
		c-7.19-3.46-13.15-9.08-17.19-15.94c-4.26-6.1-6.94-13.18-8.58-20.4c-3.44-15.32-3.19-31.2-1.5-46.73
		c1.76-17.02,6.31-34.12,15.6-48.65C176.16,445.47,181.25,440.3,187.07,436.13z"/>
</g>
<g id="_x23_ea8d62ff">
	<path style="fill:#EA8D62;" d="M252.32,452.65c1.33,2.75,2.49,5.59,3.36,8.53c0.09,2.46,0.13,5.06-1.39,7.16
		c-1.2,2.67-4,5.16-3.03,8.34c-0.13,0.12-0.37,0.37-0.49,0.49c-0.61-0.79-1.21-1.58-1.81-2.36
		C252.19,467.89,252.61,460.15,252.32,452.65z"/>
</g>
<g id="_x23_571f07ff">
	<path style="fill:#571F07;" d="M256.2,458.78c2.43,3,2.2,6.85,0.86,10.28c-1.02,3.12-3.57,5.35-5.8,7.62
		c-0.97-3.18,1.83-5.67,3.03-8.34c1.52-2.1,1.48-4.7,1.39-7.16C255.81,460.58,256.07,459.38,256.2,458.78z"/>
</g>
<g id="_x23_fa4592ff">
	<path style="fill:#FA4592;" d="M803.22,458.31c2.23,0.07,4.47,0.15,6.72,0.07c2.6,7.59,2.16,15.66,2.96,23.53
		c-0.3-0.03-0.9-0.09-1.2-0.11c-1.92-0.32-4.53,0.27-5.59-1.84c-3.02-4.7-2.62-10.58-3.69-15.88
		C802.37,462.12,802.78,460.2,803.22,458.31z"/>
</g>
<g id="_x23_fcecc2ff">
	<path style="fill:#FCECC2;" d="M616.72,464.55c26-0.22,52-0.06,78-0.19c0.23,2.26,0.47,4.53,0.71,6.81
		c-26.65,0.06-53.3,0.11-79.95-0.03c0.09-0.44,0.27-1.32,0.36-1.76C616.15,467.77,616.44,466.16,616.72,464.55z"/>
</g>
<g id="_x23_f49465ff">
	<path style="fill:#F49465;" d="M717.16,474.05c3.32-3.9,6.16-8.26,10.24-11.45c-0.11,4.15-0.54,8.35,0.04,12.49
		c0.87,5.72,3.38,11.01,6.16,16.03c-3.05-1.43-3.53-5.59-6.65-6.69c-2.24-4.09-3.23-9.82-8.24-11.43c-0.09,1.7-0.14,3.41-0.18,5.12
		C718.02,476.77,717.59,475.41,717.16,474.05z"/>
</g>
<g id="_x23_683b32ff">
	<path style="fill:#683B32;" d="M774.22,464.45c6.95-0.4,14-1.02,20.9,0.27c2.23,0.5,5.06,0.56,6.09,3
		c-6.06-0.13-12.06-1.39-18.13-0.91c-3.09-0.24-6.66,0.77-9.41-0.78C773.8,465.63,774.08,464.84,774.22,464.45z"/>
</g>
<g id="_x23_f89160ff">
	<path style="fill:#F89160;" d="M257.91,466.6c0.42,0.02,1.25,0.06,1.67,0.08c2.41,7.03,3.24,14.53,6.04,21.44
		c2.46,0.82,5.13,1.4,7.19,3.07c1.88,1.4,1.73,3.96,2.22,6.03c-1.65,1.61-3.31,3.2-4.87,4.9l-0.27,0.4c0.03,2.58,0.1,5.16-0.14,7.74
		c-0.01-0.87-0.05-2.6-0.07-3.47c-3.94-0.04-7.81-0.73-11.71-1.16c-2.46-0.6-4.27,2.14-3.75,4.36c1.35,6.33,10.73,9.97,15.06,4.22
		c-1.32,5.3-3.14,10.93-7.63,14.43c-4.24,3.25-9.55,5.3-14.94,5.09c-0.09-4.06-0.24-8.12-0.49-12.17c-0.15-3.98-0.57-7.94-0.8-11.9
		c-3.76-0.53-7.66-1.91-9.79-5.25c-4.28-6.03-3.53-17.1,4.73-19.21c0.82,0.12,2.46,0.34,3.27,0.46c1.85-3.02,3.35-6.23,4.74-9.47
		c0.15-0.35,0.44-1.04,0.59-1.38c0.6,0.78,1.2,1.57,1.81,2.36c0.12-0.12,0.36-0.37,0.49-0.49c2.23-2.27,4.78-4.5,5.8-7.62
		C257.27,468.45,257.7,467.22,257.91,466.6 M252.32,482.83c0.46,3.9,1.29,7.94,3.83,11.07c1.59,0.23,2.69-1.41,2.32-2.86
		c-0.57-3.63-1.25-7.37-2.93-10.66C253.88,479.78,253.35,482.01,252.32,482.83 M239.24,491.12c-3.09,4.51,1.51,10.49,5.67,12.71
		c0.39-0.24,1.17-0.7,1.56-0.93c-1.72-1.65-1.51-5.03,1.45-4.7c0.49,1.08,0.73,2.22,0.72,3.43c0.29,0.01,0.89,0.03,1.18,0.05
		c-0.19-1.32-0.38-2.62-0.55-3.92c-1.89-0.77-4.08-0.09-6.02-0.77C241.9,495.06,241.76,491.97,239.24,491.12z"/>
</g>
<g id="_x23_d69870ff">
	<path style="fill:#D69870;" d="M612.04,470.7c1.42,0.11,2.74-0.38,3.8-1.32c-0.09,0.44-0.27,1.32-0.36,1.76
		c26.65,0.14,53.3,0.09,79.95,0.03c3.69-0.26,7.38-0.59,11.09-0.74c1.99,2.96,4.94,5.05,8.07,6.66c-1.39,3.83-2.81,7.78-2.72,11.91
		c0.08,3.45-0.2,6.91-1.37,10.18c-0.19-1.47-0.34-2.94-0.46-4.4c0.18-1.73,0.38-3.45,0.59-5.17c-28.91,0.35-57.79,0.18-86.69,0.15
		c-10.65,0.49-21.3-0.45-31.94,0.45c-31.67-0.26-63.34-0.71-95.02-0.35c-11.96,0.76-23.94,0.17-35.91,0.39
		c-2.91,0.01-7.04,0.12-8-3.38c-0.7-4.16-0.83-8.56,0.1-12.69c2.12-4.53,8.09-2.71,12.07-3.37
		C514.17,470.47,563.11,470.72,612.04,470.7z"/>
</g>
<g id="_x23_d79971ff">
	<path style="fill:#D79971;" d="M845.19,471.47c2.58-0.3,5.17-0.74,7.79-0.64c8.98,0.85,17.99-0.02,26.99,0.01
		c8.27,0.13,16.54-0.1,24.82-0.04c3.59,0.07,7.71-0.71,10.83,1.53c2.37,1.83,1.67,5.1,1.81,7.7c-0.15,2.71,0.25,5.71-1.25,8.12
		c-1.35,2.04-4.08,2.04-6.24,2.15c-19.95,0.05-39.91-0.17-59.86,0C849.22,483.86,847.91,477.41,845.19,471.47z"/>
</g>
<g id="_x23_623126ff">
	<path style="fill:#623126;" d="M782.92,482.98c6.35-3.82,11.76-9.79,19.36-11.04c0.36,3.46-2.75,5.42-4.89,7.56
		c-5.16,4.51-11,9.77-18.31,9.5C779,486.27,780.6,484.21,782.92,482.98z"/>
</g>
<g id="_x23_5f2610ff">
	<path style="fill:#5F2610;" d="M240.36,485.2c2.01-4.12,4.73-7.81,7.62-11.35c0.1,0.58,0.29,1.75,0.39,2.34
		c-1.39,3.24-2.89,6.45-4.74,9.47C242.82,485.54,241.18,485.32,240.36,485.2z"/>
</g>
<g id="_x23_f88f5dff">
	<path style="fill:#F88F5D;" d="M717.16,474.05c0.43,1.36,0.86,2.72,1.37,4.07c2.2,2.79,4.81,5.52,8.42,6.31
		c3.12,1.1,3.6,5.26,6.65,6.69c1.81,2.26,3.5,4.61,5.24,6.93c1.6-1.69,3.26-3.32,4.99-4.87c2.64,0.6,5.72,1.19,7.14,3.82
		c5.36,8.94-1.76,22.48-12.62,21.78c1.53,5.46,4.07,10.52,6.63,15.56c1.54,5.55,6.87,8.58,11.66,11.02
		c3.72,1.88,7.76,2.99,11.83,3.86c0.06,0.5,0.17,1.5,0.22,2.01c0.16,1.62,0.31,3.26,0.47,4.9c-10.55,0.45-21.1,0.07-31.65,0.16
		c0.15-4.97,0.16-9.95,0.11-14.92c-0.68,0.02-2.03,0.07-2.71,0.09c0.61,0.35,1.22,0.7,1.85,1.05c-3.51-0.32-7.05-0.17-10.54-0.62
		c-5.35-1.13-10.32-4.11-13.69-8.44c-5.16-6.3-6.58-14.8-6.14-22.73c-2.76-0.96-6.95-1.86-6.22-5.71c0.06-4.81,5.84-4.71,9.25-5.54
		c0.19-1.57,0.42-3.13,0.62-4.69c0.12,1.46,0.27,2.93,0.46,4.4c1.17-3.27,1.45-6.73,1.37-10.18c-0.09-4.13,1.33-8.08,2.72-11.91
		C715.4,476.04,716.28,475.04,717.16,474.05 M718.68,491.43c-0.78,3.87-2.05,8.03-0.9,11.95c1.61,0.58,2.76,0.13,3.43-1.35
		c1.26-3.11,1.85-6.74,0.74-9.97C721.58,490.48,719.46,489.69,718.68,491.43 M742.04,511.1c3.73-1.23,4.59-5.75,5.13-9.15
		c-0.13-1.17-0.65-3.54-2.27-3.15C743.62,502.78,743.14,507.03,742.04,511.1 M715.13,518.21c-1.53,0.35-3.34,0.23-4.35,1.67
		c4.33,0.81,9.58-0.18,12.41-3.82C720.25,515.52,717.89,517.71,715.13,518.21z"/>
</g>
<g id="_x23_290c09ff">
	<path style="fill:#290C09;" d="M718.71,473c5.01,1.61,6,7.34,8.24,11.43c-3.61-0.79-6.22-3.52-8.42-6.31
		C718.57,476.41,718.62,474.7,718.71,473z"/>
</g>
<g id="_x23_231309ff">
	<path style="fill:#231309;" d="M252.32,482.83c1.03-0.82,1.56-3.05,3.22-2.45c1.68,3.29,2.36,7.03,2.93,10.66
		c0.37,1.45-0.73,3.09-2.32,2.86C253.61,490.77,252.78,486.73,252.32,482.83z"/>
</g>
<g id="_x23_f7dbd8ff">
	<path style="fill:#F7DBD8;" d="M811.7,481.8c0.3,0.02,0.9,0.08,1.2,0.11c0.37,2.68,0.53,5.39,0.69,8.1
		c-0.43-0.61-0.84-1.21-1.24-1.81c-0.2,2.43-0.28,4.95-1.44,7.16C811.76,490.89,811.88,486.33,811.7,481.8z"/>
</g>
<g id="_x23_d55c3aff">
	<path style="fill:#D55C3A;" d="M239.24,491.12c2.52,0.85,2.66,3.94,4.01,5.87c1.94,0.68,4.13,0,6.02,0.77
		c0.17,1.3,0.36,2.6,0.55,3.92c-0.29-0.02-0.89-0.04-1.18-0.05c0.01-1.21-0.23-2.35-0.72-3.43c-2.96-0.33-3.17,3.05-1.45,4.7
		c-0.39,0.23-1.17,0.69-1.56,0.93C240.75,501.61,236.15,495.63,239.24,491.12z"/>
</g>
<g id="_x23_2b0f07ff">
	<path style="fill:#2B0F07;" d="M718.68,491.43c0.78-1.74,2.9-0.95,3.27,0.63c1.11,3.23,0.52,6.86-0.74,9.97
		c-0.67,1.48-1.82,1.93-3.43,1.35C716.63,499.46,717.9,495.3,718.68,491.43z"/>
</g>
<g id="_x23_d45c35ff">
	<path style="fill:#D45C35;" d="M742.04,511.1c1.1-4.07,1.58-8.32,2.86-12.3c1.62-0.39,2.14,1.98,2.27,3.15
		C746.63,505.35,745.77,509.87,742.04,511.1z"/>
</g>
<g id="_x23_5c2312ff">
	<path style="fill:#5C2312;" d="M269.89,502.52l0.27-0.4c0.42,2.83,1.12,5.64,2.39,8.23c3.26,7.09,5.72,14.51,7.77,22.03
		c0.61,2.38,1.12,4.78,1.42,7.22c1.64,11.54-1.11,24.88-10.9,32.18c0.6,1.85,1.19,3.71,1.86,5.54c-2.88-4.34-6.43-8.39-10.98-11.02
		c-6.43-3.74-13.71-5.56-20.55-8.38c-0.67,1.35-1.35,2.7-2.08,4.03c-1.41,2.21-2.74,4.48-4.13,6.71c-0.11-0.57-0.34-1.7-0.46-2.27
		c3.35-6.78,5.6-14.08,7.3-21.43c1.86-7.76,0.3-16.25,4.42-23.4c0.25,4.05,0.4,8.11,0.49,12.17c5.39,0.21,10.7-1.84,14.94-5.09
		c4.49-3.5,6.31-9.13,7.63-14.43c0.23-1.32,0.39-2.63,0.47-3.95C269.99,507.68,269.92,505.1,269.89,502.52z"/>
</g>
<g id="_x23_fffdfcff">
	<path style="fill:#FFFDFC;" d="M254.22,509.99c-0.52-2.22,1.29-4.96,3.75-4.36c3.9,0.43,7.77,1.12,11.71,1.16
		c0.02,0.87,0.06,2.6,0.07,3.47c-0.08,1.32-0.24,2.63-0.47,3.95C264.95,519.96,255.57,516.32,254.22,509.99z"/>
</g>
<g id="_x23_333043ff">
	<path style="fill:#333043;" d="M321.77,511.72c13.66,1.07,27.31,0.02,40.97-0.27c0.15,4.39,0.3,8.8,0.97,13.15
		c0.23,2.45,2.49,3.83,4.25,5.2c-0.39,0.15-1.16,0.43-1.55,0.58c-0.07,0.57-0.22,1.7-0.29,2.26c6.89,4.07,14.98,4.18,22.73,4.07
		c0.71,14.61,1.67,29.21,1.95,43.84c0,0.27,0.01,0.8,0.01,1.06c-17.63-0.09-35.26,0.09-52.89-0.07
		c-8.07,16.44-15.37,33.26-23.17,49.83c-4.6,1.82-9.78,1.99-14.14,4.62c-4.17-10.07-9.24-19.73-13.72-29.65
		c-0.43-0.99-0.83-2-1.27-2.97c-1.75-3.7-3.7-7.3-5.45-11c-2.07-5.22-5.01-10.02-7.47-15.05c-0.67-1.83-1.26-3.69-1.86-5.54
		c9.79-7.3,12.54-20.64,10.9-32.18c4.71-0.78,9.49-0.55,14.24-0.58c5.25-0.01,10.25-1.83,15.08-3.71
		c-4.46-0.29-8.94-0.48-13.37-1.21c6.13-0.09,12.29,0.47,18.39-0.21c2.88-0.28,5.09-2.8,5.32-5.62
		C322.05,522.78,321.67,517.23,321.77,511.72z"/>
	<path style="fill:#333043;" d="M341.21,690.44c17.9-0.64,35.85-0.24,53.77-0.15c0.81,9.22,0.08,18.49,1.01,27.71
		c0.77,9.38-0.09,18.82,0.94,28.19c1.58,45.47,2.6,90.96,3.59,136.44c-8.14,0.79-16.33,0.66-24.49,0.94
		c-8.71,0.05-17.43,0.43-26.12-0.18c-0.29-7.82-1.24-15.59-1.97-23.37c-4.71-46.54-9.38-93.08-14.16-139.61
		C339.11,711.3,338.37,700.28,341.21,690.44z"/>
</g>
<g id="_x23_d6633bff">
	<path style="fill:#D6633B;" d="M715.13,518.21c2.76-0.5,5.12-2.69,8.06-2.15c-2.83,3.64-8.08,4.63-12.41,3.82
		C711.79,518.44,713.6,518.56,715.13,518.21z"/>
</g>
<g id="_x23_252132ff">
	<path style="fill:#252132;" d="M367.96,529.8c6.85,0.48,13.66-0.7,20.34-2.1c0.2,3,0.35,6,0.55,9.01c-7.75,0.11-15.84,0-22.73-4.07
		c0.07-0.56,0.22-1.69,0.29-2.26C366.8,530.23,367.57,529.95,367.96,529.8z"/>
</g>
<g id="_x23_2a2736ff">
	<path style="fill:#2A2736;" d="M280.32,532.38c5.77,0.73,11.61,0.87,17.37,1.72c4.43,0.73,8.91,0.92,13.37,1.21
		c-4.83,1.88-9.83,3.7-15.08,3.71c-4.75,0.03-9.53-0.2-14.24,0.58C281.44,537.16,280.93,534.76,280.32,532.38z"/>
</g>
<g id="_x23_d35c3fff">
	<path style="fill:#D35C3F;" d="M744.98,534.34c7.5,2.84,15.1,6.54,23.36,5.91c-0.06,2.99-0.11,5.98,0.13,8.97
		c-4.07-0.87-8.11-1.98-11.83-3.86C751.85,542.92,746.52,539.89,744.98,534.34z"/>
</g>
<g id="_x23_fee392ff">
	<path style="fill:#FEE392;" d="M768.94,542.89c0.39,0.28,1.16,0.85,1.54,1.13c-2.04,3.87-0.37,8.29-0.15,12.39
		c3.54,0.4,5.59,3.18,7.9,5.52c4.18,1.69,8.83,2,12.88,4.12c3.79,2,7.39,4.48,10.35,7.59c5.64,6.49,7.76,15.02,10.9,22.83
		c1.34,4.6,3.89,9.07,3.54,13.98c-3.53-9.65-6.31-19.6-10.75-28.89c-2.24-4.17-4.89-8.32-8.9-10.98
		c-4.95-3.31-10.62-5.49-16.46-6.56c-5.88-1.13-11.89-0.62-17.84-0.75c-13.59,0.08-27.26-0.51-40.77,1.41
		c-4.29,0.78-8.08,3.07-12.04,4.78c4.7-5.82,13.07-6.34,20-7c2.44-2.48,5.02-4.98,8.37-6.17c10.55-0.09,21.1,0.29,31.65-0.16
		c-0.16-1.64-0.31-3.28-0.47-4.9C768.53,548.44,768.34,545.62,768.94,542.89z"/>
</g>
<g id="_x23_f16349ff">
	<path style="fill:#F16349;" d="M241.17,557.92c6.84,2.82,14.12,4.64,20.55,8.38c4.55,2.63,8.1,6.68,10.98,11.02
		c2.46,5.03,5.4,9.83,7.47,15.05c0.26,2.97,1.41,5.71,2.35,8.51c-1.43,3.2-4.81,4.95-7.26,7.31c-6.52,5.94-14.94,8.92-23.01,12.05
		c-2.08-5.46-5.4-10.28-8.07-15.43c-1.49-2.87-3.17-5.63-5.13-8.19c1.18,8.18,4.48,15.85,6.99,23.68
		c-16.35,0.24-32.71-0.02-49.07,0.05c-9.56-0.08-19.13,0.29-28.67-0.48c0.1-6.28-0.15-12.55-0.51-18.82
		c-0.39-6.42,0.36-12.95-1.27-19.25c-3.63,10.67-5.79,21.78-8.5,32.72c-1.1-0.65-2.2-1.3-3.29-1.95c-2.33-1.44-4.64-2.93-6.98-4.34
		c4.13-10.25,7.76-20.74,12.56-30.7c1.57-3.79,5.34-6.32,6.39-10.29c4.04,6.86,10,12.48,17.19,15.94
		c7.92,4.31,17.23,4.87,26.03,3.79c7.95,0.21,16.22-2.27,21.78-8.16c4.77-5.21,8.17-11.68,9.87-18.53
		c-0.62,0.42-1.86,1.25-2.48,1.67C239.82,560.62,240.5,559.27,241.17,557.92z"/>
</g>
<g id="_x23_c13c2dff">
	<path style="fill:#C13C2D;" d="M239.09,561.95c0.62-0.42,1.86-1.25,2.48-1.67c-1.7,6.85-5.1,13.32-9.87,18.53
		c-5.56,5.89-13.83,8.37-21.78,8.16c9.78-3.65,19.03-9.64,25.04-18.31C236.35,566.43,237.68,564.16,239.09,561.95z"/>
</g>
<g id="_x23_fbc00fff">
	<path style="fill:#FBC00F;" d="M709.14,569.46c3.96-1.71,7.75-4,12.04-4.78c13.51-1.92,27.18-1.33,40.77-1.41
		c5.95,0.13,11.96-0.38,17.84,0.75c5.84,1.07,11.51,3.25,16.46,6.56c4.01,2.66,6.66,6.81,8.9,10.98
		c-0.36,8.79,0.93,17.62-0.44,26.36c-0.63,4.2-1.3,8.4-1.84,12.62c-26.56-0.24-53.13-0.17-79.69-0.07
		c31.93,0.53,63.93-0.46,95.82,0.68c-29.32,0.73-58.68,0.14-88.01,0.29c-4.13,0.13-8.37-0.42-12.38,0.78
		c-3.99,2.7-7.22,6.82-7.89,11.69c-0.46,4.54-0.28,9.12-0.42,13.69c-5.76,7.49-10.08,16.03-16.75,22.85
		c-4.69,3.66-10.53,6.16-16.59,5.31c-8.75-1.1-17.33-3.33-26.1-4.37c-3.9-0.71-7.77-1.59-11.56-2.78c-1.57-0.52-3.14-1.08-4.7-1.59
		c-0.35-6.11,0.63-12.23,2.42-18.05c0.57-1.43,1.19-3.62,3.14-3.41c9.2-0.44,18.51-0.42,27.59-2c1.85-2.35,3.19-5.03,4.44-7.73
		c2.83-6.17,6.49-11.99,8.45-18.53c0.31-0.48,0.64-0.96,0.98-1.42c2.85-0.69,1.95-4.18,3.03-6.2c3.62-8.43,8.32-16.35,12.54-24.48
		C700.23,579.32,704.01,573.72,709.14,569.46z"/>
</g>
<g id="_x23_929b1bff">
	<path style="fill:#929B1B;" d="M482.86,579.79c1.39-2.27,4.39-1.15,6.57-1.3c2.03,6.68,1.98,13.71,2.64,20.59
		c0.37,5.33,0.58,10.67,1.18,15.99c1.02-9.76,2.41-19.5,4.11-29.16c1.74-0.61,3.71-1.79,5.48-0.58c1.9,0.61,2.31,2.91,2.34,4.65
		c-0.56,10.39-2.41,20.68-2.69,31.1c3.4-6.46,6.21-13.27,10.24-19.36c1.93-3.32,8.08-0.6,6.72,3.21c-2.12,7.9-6.22,15.09-9.43,22.58
		c-11.33,0.19-22.66,0.12-33.99-0.01c-2.17-4.99-4.54-9.88-6.86-14.79c-2.33-5.1-5.42-10.01-5.95-15.72
		c0.43-0.62,1.28-1.85,1.7-2.47c1.79,0.09,4.26-0.92,5.4,0.99c5.04,7.45,8.42,15.88,13.01,23.6c-0.59-11.37-1.14-22.75-1.62-34.13
		C481.67,583.19,481.7,581.26,482.86,579.79z"/>
</g>
<g id="_x23_f8e3b2ff">
	<path style="fill:#F8E3B2;" d="M390.8,580.55c1.66,0.62,3.37,1.16,5.18,1.11c6.7,0,13.4-0.23,20.1,0.05
		c0.36,1.24,0.74,2.49,1.12,3.75c-5.3,11-10.49,22.06-15.65,33.13c-2.91,6.03-5.59,12.2-9.1,17.92c-0.7-0.16-1.38-0.36-2.06-0.53
		c0.36-1.4,0.73-2.8,1.1-4.19c-10.1-0.58-20.21,1.54-29.65,5.03c-5.78,2.11-10.28,7.42-16.75,7.55c-1.69-0.09-3.4,0-4.74,1.18
		c-1.14-0.21-2.27-0.43-3.39-0.62c-9.62-1.14-19.38,0.09-29-1.25c2.35-4.06,4.63-8.15,6.79-12.31c7.8-16.57,15.1-33.39,23.17-49.83
		c17.63,0.16,35.26-0.02,52.89,0.07C390.81,581.35,390.8,580.82,390.8,580.55z"/>
	<path style="fill:#F8E3B2;" d="M558.02,584.48c0.72-0.93,1.45-1.85,2.18-2.78c23.61-0.27,47.22,0.1,70.83-0.09
		c1.88,0.08,3.87-0.15,5.67,0.56c2.35,2.99,3.47,6.71,5.22,10.05c4.48,8.59,8.38,17.46,12.58,26.19c2.25,4.49,3.55,9.57,6.76,13.51
		c3.38,0.64,6.84,0.73,10.21,1.44c3.27-5.24,5.09-11.32,9.17-16.06c-1.96,6.54-5.62,12.36-8.45,18.53
		c-2.88-2.41-6.58-2.81-10.19-2.57c1.24,3.09,2.65,6.15,4.56,8.91c-8.17,1.23-16.47,0.51-24.64,1.66
		c-5.28,0.71-10.66,1.47-15.99,0.72c-5.75-3.47-11.23-7.71-17.92-9.23c-7.62-1.74-15.2-4.5-23.14-3.87
		c-0.56,1.59-1.12,3.17-1.7,4.76c-4.07-6.38-7.07-13.35-10.26-20.19C568.18,605.4,562.88,595.04,558.02,584.48z"/>
</g>
<g id="_x23_ca3830ff">
	<path style="fill:#CA3830;" d="M158.02,614.52c2.71-10.94,4.87-22.05,8.5-32.72c1.63,6.3,0.88,12.83,1.27,19.25
		c0.36,6.27,0.61,12.54,0.51,18.82c-3.4-0.12-6.8-0.04-10.19-0.12c-0.13-0.61-0.37-1.83-0.5-2.44c-1-0.95-2-1.89-3-2.83
		c0.03-0.48,0.09-1.43,0.12-1.91C155.82,613.22,156.92,613.87,158.02,614.52z"/>
</g>
<g id="_x23_955c3eff">
	<path style="fill:#955C3E;" d="M419.15,581.56c1.21,1.48,4.22,2.73,3.39,5.03c-8.21,16.43-16.18,33.03-23.87,49.72
		c-2.07,0.22-4.15,0.38-6.22,0.2c3.51-5.72,6.19-11.89,9.1-17.92c5.16-11.07,10.35-22.13,15.65-33.13
		C417.83,584.15,418.49,582.85,419.15,581.56z"/>
</g>
<g id="_x23_985a3bff">
	<path style="fill:#985A3B;" d="M553.1,585.25c0.8-1.29,1.85-2.41,2.98-3.41c0.82,0.73,1.47,1.61,1.94,2.64
		c4.86,10.56,10.16,20.92,14.89,31.54c3.19,6.84,6.19,13.81,10.26,20.19c-2.04,1.74-5.64,1.84-6.54-1.08
		c-6.8-14.14-13.52-28.31-20.34-42.44C555.18,590.24,553.57,587.94,553.1,585.25z"/>
</g>
<g id="_x23_de950cff">
	<path style="fill:#DE950C;" d="M805.15,581.56c4.44,9.29,7.22,19.24,10.75,28.89c0.89,2.63,1.69,5.29,2.73,7.89
		c-4.11,4.22-10.53,1.94-15.76,2.2c0.54-4.22,1.21-8.42,1.84-12.62C806.08,599.18,804.79,590.35,805.15,581.56z"/>
</g>
<g id="_x23_ffffcfff">
	<path style="fill:#FFFFCF;" d="M493.68,596.12c1.08-3.43,0.98-7.52,3.68-10.21c-1.7,9.66-3.09,19.4-4.11,29.16
		c-0.6-5.32-0.81-10.66-1.18-15.99c0.01-3.03,0.21-6.05,0.36-9.07C492.84,592.04,493.26,594.08,493.68,596.12z"/>
</g>
<g id="_x23_fb8257ff">
	<path style="fill:#FB8257;" d="M280.17,592.37c1.75,3.7,3.7,7.3,5.45,11c-6.18,8.06-15.22,13.33-24.24,17.66
		c-3.05-0.24-6.08-0.6-9.13-0.79c8.07-3.13,16.49-6.11,23.01-12.05c2.45-2.36,5.83-4.11,7.26-7.31
		C281.58,598.08,280.43,595.34,280.17,592.37z"/>
</g>
<g id="_x23_c7372dff">
	<path style="fill:#C7372D;" d="M239.05,596.62c1.96,2.56,3.64,5.32,5.13,8.19c2.67,5.15,5.99,9.97,8.07,15.43
		c-2.07-0.05-4.14,0-6.21,0.06C243.53,612.47,240.23,604.8,239.05,596.62z"/>
</g>
<g id="_x23_e64e3bff">
	<path style="fill:#E64E3B;" d="M285.62,603.37c0.44,0.97,0.84,1.98,1.27,2.97c-5.27,8.4-13.91,14-22.78,18.02
		c-0.88-1.14-1.81-2.24-2.73-3.33C270.4,616.7,279.44,611.43,285.62,603.37z"/>
</g>
<g id="_x23_fb915fff">
	<path style="fill:#FB915F;" d="M264.11,624.36c8.87-4.02,17.51-9.62,22.78-18.02c4.48,9.92,9.55,19.58,13.72,29.65
		c0.85,2.54,1.69,5.1,2.65,7.62c1.56-0.01,3.13-0.01,4.7,0.07c9.62,1.34,19.38,0.11,29,1.25c2.24,5.03,3.19,10.53,2.76,16.03
		c0.17,1.84-0.89,4.58,1.53,5.3c-0.25,0.04-0.75,0.13-1,0.17c-5.72,0.88-11.26,2.62-16.96,3.61c-10.14,1.05-20.12,3.44-30.31,3.85
		c-3.83,0.36-7.43-1.24-10.34-3.6c-5.6-5.63-10.45-12-14.3-18.95c-1.78-7.38,0.9-15.27-1.77-22.47
		C265.85,627.31,265.05,625.79,264.11,624.36z"/>
</g>
<g id="_x23_dd4636ff">
	<path style="fill:#DD4636;" d="M146.04,614.55c0.17-2.21,0.87-4.3,1.71-6.32c2.34,1.41,4.65,2.9,6.98,4.34
		c-0.03,0.48-0.09,1.43-0.12,1.91c1,0.94,2,1.88,3,2.83c0.13,0.61,0.37,1.83,0.5,2.44c-2.17-0.05-4.33-0.13-6.49,0.04
		C149.75,618.05,147.82,616.38,146.04,614.55z"/>
</g>
<g id="_x23_fff3b2ff">
	<path style="fill:#FFF3B2;" d="M682.13,612.16"/>
</g>
<g id="_x23_f7ba81ff">
	<path style="fill:#F7BA81;" d="M145.54,614.05l0.5,0.5c1.78,1.83,3.71,3.5,5.58,5.24c-2.51,0.39-5.04,0.97-7.58,0.5
		C143.27,618.29,145.05,616.04,145.54,614.05z"/>
</g>
<g id="_x23_9e6366ff">
	<path style="fill:#9E6366;" d="M151.62,619.79c2.16-0.17,4.32-0.09,6.49-0.04c3.39,0.08,6.79,0,10.19,0.12
		c9.54,0.77,19.11,0.4,28.67,0.48c16.36-0.07,32.72,0.19,49.07-0.05c2.07-0.06,4.14-0.11,6.21-0.06c3.05,0.19,6.08,0.55,9.13,0.79
		c0.92,1.09,1.85,2.19,2.73,3.33c0.94,1.43,1.74,2.95,2.46,4.51c-2.77-2.08-5.06-4.78-8.09-6.48c-3.75-1.37-7.84-0.78-11.75-0.74
		c-29.26,0.35-58.53-0.01-87.8-0.02c-5.29,0.04-10.52-1.02-15.81-1.05c0.23-0.07,0.69-0.21,0.92-0.29
		C146.58,620.76,149.11,620.18,151.62,619.79z"/>
</g>
<g id="_x23_54647dff">
	<path style="fill:#54647D;" d="M121.8,624.81c5.68-5.54,14.23-3.12,21.32-4.23c5.29,0.03,10.52,1.09,15.81,1.05
		c29.27,0.01,58.54,0.37,87.8,0.02c1.38,3.99,3.09,8,3.17,12.3c0.3,22.34,0.19,44.68,0.1,67.02c-0.08,11.81,0.73,23.78-1.69,35.43
		c-2.27,0.04-4.53,0.16-6.8,0.14h-0.13c-28.46-0.56-56.95,0-85.42-0.28c-3.87-0.02-7.75,0-11.61,0.09
		c-6.21,0.13-12.42,0.01-18.62,0.09c-2.95-0.22-8.4,1.04-8.56-3.32c0.22-31.39-0.09-62.79,0.1-94.18
		C117.21,633.92,117.76,628.32,121.8,624.81z"/>
	<path style="fill:#54647D;" d="M819,621.15c10.25,0.87,20.59-0.12,30.86,0.5c6.56,0.58,11.84,6.7,11.76,13.23
		c0.42,29.04-0.03,58.1,0.32,87.14c0.03,4.68,0.79,9.59-0.72,14.11c-2.49,1.08-5.37,0.46-8.01,0.52
		c-6.28-0.36-12.58-0.19-18.86-0.16c-5.68-0.04-11.37,0.22-17.03-0.27c-7.73-1.15-15.57-0.4-23.34-0.5
		c-17.33-0.06-34.66,0.01-51.99-0.07c-4.69-0.01-9.34,0.6-14.01,0.78c-1.24-4.75-3.05-9.45-2.95-14.43
		c0.32-19.68-0.28-39.36,0.05-59.04c0.16-9.33-0.31-18.66,0.04-27.99c0.11-4.2,1.43-8.23,2.85-12.14c-3.13-0.15-6.25-0.33-9.36-0.61
		c4.01-1.2,8.25-0.65,12.38-0.78C760.32,621.29,789.68,621.88,819,621.15z"/>
</g>
<g id="_x23_42546dff">
	<path style="fill:#42546D;" d="M246.73,621.65c3.91-0.04,8-0.63,11.75,0.74c3.03,1.7,5.32,4.4,8.09,6.48
		c2.67,7.2-0.01,15.09,1.77,22.47c-0.87,6.4-0.39,12.86-0.07,19.28c-0.46,6.19,0.23,12.37-0.03,18.57
		c-0.31,13.21-0.1,26.44,0.05,39.66c0.44,0.22,1.32,0.65,1.76,0.86c-0.39,0.1-1.17,0.28-1.56,0.37c-0.18,1.99-0.27,3.99-0.37,6
		c-2.23,0.15-4.46,0.32-6.7,0.39c-4.37,0.02-8.74-0.2-13.11-0.07c2.42-11.65,1.61-23.62,1.69-35.43c0.09-22.34,0.2-44.68-0.1-67.02
		C249.82,629.65,248.11,625.64,246.73,621.65z"/>
</g>
<g id="_x23_40546dff">
	<path style="fill:#40546D;" d="M710.72,633.91c0.67-4.87,3.9-8.99,7.89-11.69c3.11,0.28,6.23,0.46,9.36,0.61
		c-1.42,3.91-2.74,7.94-2.85,12.14c-0.35,9.33,0.12,18.66-0.04,27.99c-0.33,19.68,0.27,39.36-0.05,59.04
		c-0.1,4.98,1.71,9.68,2.95,14.43c-5.97,0.43-11.91-0.34-17.79-1.28c-0.02-3.23-0.28-6.45-0.31-9.67
		c0.04-12.11,0.57-24.24,0.13-36.35c-0.2-6.2-0.58-12.43,0.15-18.6c0.46-7.64,0.09-15.29,0.14-22.93
		C710.44,643.03,710.26,638.45,710.72,633.91z"/>
</g>
<g id="_x23_587d9aff">
	<path style="fill:#587D9A;" d="M470.26,628.1c1.88-0.49,3.83-0.54,5.77-0.6c11.33,0.13,22.66,0.2,33.99,0.01
		c2.65,0.04,6.81-0.07,7.02,3.52c0.77,2.47-2.12,3.45-3.39,5.03c-13.65-0.14-27.31,0.13-40.95-0.23c-1.52-1-3.38-1.9-3.96-3.77
		C468.84,630.62,469.36,629.22,470.26,628.1 M473.27,634.69c7.22,0.63,14.48,0.74,21.73,0.61c6.08-0.18,12.39,1.11,18.28-0.96
		c-8.69-1.28-17.51-0.4-26.25-0.54C482.45,634.08,477.67,633.05,473.27,634.69z"/>
</g>
<g id="_x23_df6f50ff">
	<path style="fill:#DF6F50;" d="M300.61,635.99c4.36-2.63,9.54-2.8,14.14-4.62c-2.16,4.16-4.44,8.25-6.79,12.31
		c-1.57-0.08-3.14-0.08-4.7-0.07C302.3,641.09,301.46,638.53,300.61,635.99z"/>
</g>
<g id="_x23_fa915eff">
	<path style="fill:#FA915E;" d="M584.87,631.45c7.94-0.63,15.52,2.13,23.14,3.87c6.69,1.52,12.17,5.76,17.92,9.23
		c-3.58,5.15-3.98,11.43-5.49,17.32c-5.57-1.22-11.3-1.18-16.91-2.04c-4.49-0.65-8.98-1.28-13.51-1.56
		c-2.14-0.32-4.69-0.15-6.25-1.91c-3.47-3.29-3.94-8.47-7.22-11.91c-2.86-2.59,0.25-6.2,0.08-9.32c0.9,2.92,4.5,2.82,6.54,1.08
		C583.75,634.62,584.31,633.04,584.87,631.45z"/>
</g>
<g id="_x23_f9905eff">
	<path style="fill:#F9905E;" d="M361.84,636.82c9.44-3.49,19.55-5.61,29.65-5.03c-0.37,1.39-0.74,2.79-1.1,4.19
		c0.68,0.17,1.36,0.37,2.06,0.53c2.07,0.18,4.15,0.02,6.22-0.2c0.82,1.75,2.49,3.56,1.64,5.64c-0.99,1.73-2.27,3.28-3.45,4.89
		c-0.83,2.34-1.82,4.63-2.68,6.96c-2.42,2.02-4.78,4.36-7.91,5.19c-7.94,1.96-16.16,1.62-24.26,2.24
		c-4.26,0.31-8.82,0.06-12.62,2.34c0.66-6.6,0.18-13.91-4.3-19.2C351.56,644.24,356.06,638.93,361.84,636.82z"/>
</g>
<g id="_x23_345971ff">
	<path style="fill:#345971;" d="M473.27,634.69c4.4-1.64,9.18-0.61,13.76-0.89c8.74,0.14,17.56-0.74,26.25,0.54
		c-5.89,2.07-12.2,0.78-18.28,0.96C487.75,635.43,480.49,635.32,473.27,634.69z"/>
</g>
<g id="_x23_f07446ff">
	<path style="fill:#F07446;" d="M662,633.26c3.61-0.24,7.31,0.16,10.19,2.57c-1.25,2.7-2.59,5.38-4.44,7.73
		c-0.3-0.35-0.89-1.04-1.19-1.39C664.65,639.41,663.24,636.35,662,633.26z"/>
</g>
<g id="_x23_658ba3ff">
	<path style="fill:#658BA3;" d="M472.7,635.83c13.64,0.36,27.3,0.09,40.95,0.23c-1,11.45-2.45,22.85-3.32,34.31
		c-11.5,0.08-23,0.13-34.49-0.03C475.06,658.81,473.57,647.34,472.7,635.83z"/>
</g>
<g id="_x23_fbe08eff">
	<path style="fill:#FBE08E;" d="M641.92,643.83c8.17-1.15,16.47-0.43,24.64-1.66c0.3,0.35,0.89,1.04,1.19,1.39
		c-9.08,1.58-18.39,1.56-27.59,2c-1.95-0.21-2.57,1.98-3.14,3.41c-1.79,5.82-2.77,11.94-2.42,18.05c1.56,0.51,3.13,1.07,4.7,1.59
		c-0.77-0.1-2.31-0.29-3.08-0.38c-3.74-0.38-7.5-0.35-11.25-0.4c-0.66-1.68-1.31-3.36-1.93-5.03c-0.88-0.33-1.74-0.64-2.6-0.93
		c1.51-5.89,1.91-12.17,5.49-17.32C631.26,645.3,636.64,644.54,641.92,643.83 M632.11,646.22c-0.63,3.95-1.58,7.84-2.34,11.77
		c-0.67,3.24-0.1,6.88,2.27,9.34c0-7.27,0.6-14.58,3.69-21.28C634.51,646.1,633.31,646.16,632.11,646.22z"/>
</g>
<g id="_x23_fff7f4ff">
	<path style="fill:#FFF7F4;" d="M340.35,645.55c1.34-1.18,3.05-1.27,4.74-1.18c4.48,5.29,4.96,12.6,4.3,19.2
		c-2.08,1.17-4.33,2.01-6.69,2.41l-1.45,0.28c-2.42-0.72-1.36-3.46-1.53-5.3c0.43-5.5-0.52-11-2.76-16.03
		C338.08,645.12,339.21,645.34,340.35,645.55z"/>
</g>
<g id="_x23_f0c457ff">
	<path style="fill:#F0C457;" d="M632.11,646.22c1.2-0.06,2.4-0.12,3.62-0.17c-3.09,6.7-3.69,14.01-3.69,21.28
		c-2.37-2.46-2.94-6.1-2.27-9.34C630.53,654.06,631.48,650.17,632.11,646.22z"/>
</g>
<g id="_x23_fefdfcff">
	<path style="fill:#FEFDFC;" d="M693.55,670.45c6.67-6.82,10.99-15.36,16.75-22.85c-0.05,7.64,0.32,15.29-0.14,22.93
		C704.62,670.45,699.08,670.55,693.55,670.45z"/>
</g>
<g id="_x23_382c3bff">
	<path style="fill:#382C3B;" d="M268.27,670.62c-0.32-6.42-0.8-12.88,0.07-19.28c3.85,6.95,8.7,13.32,14.3,18.95
		C277.86,670.77,273.06,670.65,268.27,670.62z"/>
</g>
<g id="_x23_3b2f3aff">
	<path style="fill:#3B2F3A;" d="M386.27,658.99c3.13-0.83,5.49-3.17,7.91-5.19c-0.19,5.51,0.1,11.01,0.35,16.51
		c-18.46-0.78-36.96-0.64-55.43-0.44c0.38-1.16,0.76-2.3,1.15-3.44c0.25-0.04,0.75-0.13,1-0.17l1.45-0.28
		c2.36-0.4,4.61-1.24,6.69-2.41c3.8-2.28,8.36-2.03,12.62-2.34C370.11,660.61,378.33,660.95,386.27,658.99z"/>
	<path style="fill:#3B2F3A;" d="M804.17,744.89c0.83-0.14,2.48-0.42,3.3-0.56c-1.41,0.76-2.78,1.6-4.2,2.34
		c-7.45,0.27-14.78,1.89-22.25,1.93c-15.08,0.08-30.16,0.34-45.24,0.16c0.05,7.87,0.01,15.75,0.26,23.62
		c-0.23,0.18-0.68,0.53-0.91,0.71c-0.14-8.55,0.46-17.12-0.35-25.65l-0.01-0.31c7.05,0.38,14.12,0.53,21.2,0.46
		C772.05,747.44,788.27,747.65,804.17,744.89z"/>
</g>
<g id="_x23_e1ba87ff">
	<path style="fill:#E1BA87;" d="M544.13,664.26c9.94-0.8,19.93-0.27,29.89-0.44c11.16,0.09,22.35-0.65,33.5,0.11
		c-2.28,0.95-4.5,2.01-6.76,3c-0.13-0.47-0.4-1.42-0.53-1.89c-4.79,0.24-9.41,1.81-14.22,1.73c-7.35,0.02-14.7,0.3-22.05,0.22
		c-6.71-0.11-13.42,0.65-20.13,0.1C543.91,666.38,544.06,664.97,544.13,664.26z"/>
</g>
<g id="_x23_efcf9bff">
	<path style="fill:#EFCF9B;" d="M607.52,663.93c0.37,0.03,1.11,0.1,1.48,0.14c-0.01,1.99-0.01,3.99,0,5.99
		c-21.82,0.34-43.67,0.19-65.5,0.3c0.09-0.82,0.25-2.45,0.33-3.27c6.71,0.55,13.42-0.21,20.13-0.1c7.35,0.08,14.7-0.2,22.05-0.22
		c4.81,0.08,9.43-1.49,14.22-1.73c0.13,0.47,0.4,1.42,0.53,1.89C603.02,665.94,605.24,664.88,607.52,663.93z"/>
</g>
<g id="_x23_c09167ff">
	<path style="fill:#C09167;" d="M609,664.07c0.65,0.08,1.96,0.24,2.62,0.32c0.01,1.28,0.02,2.56,0.05,3.85
		c-0.32,0.05-0.94,0.14-1.26,0.19c-0.25,0.56-0.75,1.67-0.99,2.23c-21.97-0.27-43.96,0.54-65.92-0.3c21.83-0.11,43.68,0.04,65.5-0.3
		C608.99,668.06,608.99,666.06,609,664.07z"/>
</g>
<g id="_x23_6b3522ff">
	<path style="fill:#6B3522;" d="M323.29,670.04c5.7-0.99,11.24-2.73,16.96-3.61c-0.39,1.14-0.77,2.28-1.15,3.44
		C333.86,669.76,328.2,672.84,323.29,670.04z"/>
</g>
<g id="_x23_76391cff">
	<path style="fill:#76391C;" d="M610.41,668.43c0.32-0.05,0.94-0.14,1.26-0.19c4.42-0.42,8.86-0.44,13.3-0.41
		c3.75,0.05,7.51,0.02,11.25,0.4c-1.05,0.39-2.08,0.81-3.1,1.25c1.4,0.46,2.81,0.93,4.25,1.35c-9.33,0.65-18.63-0.79-27.95-0.17
		C609.66,670.1,610.16,668.99,610.41,668.43z"/>
</g>
<g id="_x23_723b08ff">
	<path style="fill:#723B08;" d="M633.12,669.48c1.02-0.44,2.05-0.86,3.1-1.25c0.77,0.09,2.31,0.28,3.08,0.38
		c3.79,1.19,7.66,2.07,11.56,2.78c-4.46,1.56-9.03,0.04-13.49-0.56C635.93,670.41,634.52,669.94,633.12,669.48z"/>
</g>
<g id="_x23_915537ff">
	<path style="fill:#915537;" d="M282.64,670.29c2.91,2.36,6.51,3.96,10.34,3.6c10.19-0.41,20.17-2.8,30.31-3.85
		c4.91,2.8,10.57-0.28,15.81-0.17c18.47-0.2,36.97-0.34,55.43,0.44c27.1-0.02,54.21-0.28,81.31,0.03
		c11.49,0.16,22.99,0.11,34.49,0.03c11.05-0.09,22.12-0.21,33.17-0.01c21.96,0.84,43.95,0.03,65.92,0.3
		c9.32-0.62,18.62,0.82,27.95,0.17c4.46,0.6,9.03,2.12,13.49,0.56c8.77,1.04,17.35,3.27,26.1,4.37c6.06,0.85,11.9-1.65,16.59-5.31
		c5.53,0.1,11.07,0,16.61,0.08c-0.73,6.17-0.35,12.4-0.15,18.6c-63.73,0.33-127.46,0.08-191.19,0.03
		c-6.84-0.39-13.69-0.45-20.52-0.08c-28.43,0.17-56.86,0.06-85.29,0.07c-5.79-0.08-11.59,0.25-17.37-0.33
		c-17.86-0.75-35.78-0.05-53.66-0.36c-3.41-0.1-6.81,0.07-10.19,0.47l-1.11,0.09c-2.66,0.23-5.34,0.25-8.01,0.24
		c-18.14-0.1-36.29,0.17-54.43-0.07c0.26-6.2-0.43-12.38,0.03-18.57C273.06,670.65,277.86,670.77,282.64,670.29z"/>
</g>
<g id="_x23_85706eff">
	<path style="fill:#85706E;" d="M331.79,688.93c3.38-0.4,6.78-0.57,10.19-0.47c17.88,0.31,35.8-0.39,53.66,0.36
		c-0.3,11.05,0.85,22.09,0.85,33.14c-0.07,8.08,0.7,16.15,0.44,24.23c-1.03-9.37-0.17-18.81-0.94-28.19
		c-0.93-9.22-0.2-18.49-1.01-27.71l-0.12-0.94C373.84,689.12,352.8,689.6,331.79,688.93z"/>
</g>
<g id="_x23_333042ff">
	<path style="fill:#333042;" d="M268.24,689.19c18.14,0.24,36.29-0.03,54.43,0.07c-1.8,21.22-3.82,42.43-5.76,63.64
		c-9.84-5.51-19.63-11.12-29.82-15.95c-5.59-2.64-11.48-4.56-17.04-7.24c-0.44-0.21-1.32-0.64-1.76-0.86
		C268.14,715.63,267.93,702.4,268.24,689.19z"/>
</g>
<g id="_x23_271b2aff">
	<path style="fill:#271B2A;" d="M330.68,689.02l1.11-0.09c21.01,0.67,42.05,0.19,63.07,0.42l0.12,0.94
		c-17.92-0.09-35.87-0.49-53.77,0.15c-2.84,9.84-2.1,20.86-7.43,29.97C332.7,709.95,331.99,699.45,330.68,689.02z"/>
</g>
<g id="_x23_783b23ff">
	<path style="fill:#783B23;" d="M498.3,689.08c6.83-0.37,13.68-0.31,20.52,0.08c-0.06,5.88,0.09,11.76-0.05,17.64
		c-0.24,1.12-0.51,2.24-0.78,3.36c-6.36-1.92-12.84-3.58-19.55-3.1C498.5,701.07,498.39,695.07,498.3,689.08z"/>
</g>
<g id="_x23_925437ff">
	<path style="fill:#925437;" d="M498.44,707.06c6.71-0.48,13.19,1.18,19.55,3.1c0.27-1.12,0.54-2.24,0.78-3.36
		c0.2,70.09,0.02,140.18,0.08,210.27c-0.11,5.95,0.24,11.91-0.15,17.86c-0.01,1.57-0.98,2.96-2.71,2.78
		c-5.48,0.37-10.98-0.04-16.47,0.1c-2.44-6.71-0.57-14.02-1.1-20.98C498.48,846.91,498.51,776.98,498.44,707.06z"/>
</g>
<g id="_x23_34396dff">
	<path style="fill:#34396D;" d="M657.67,740.69c16.7-7.16,34.27-12.32,52.21-15.21c0.03,3.22,0.29,6.44,0.31,9.67
		c-0.04,0.34-0.11,1.02-0.15,1.36c-0.31,2.05-0.62,4.1-0.89,6.16c1.58,0.54,3.17,1.1,4.75,1.7c0.48,0.19,1.44,0.57,1.92,0.76
		c0.81,8.92,0.6,17.92,0.2,26.86c-13.35,0.86-26.81-0.36-40.09,1.64c-0.4,0.29-1.21,0.88-1.61,1.18
		c-6.59,1.33-13.34-0.04-19.96,0.79c-3.06,0.29-5.2,3.48-4.43,6.45c0.05,2.03,2.36,1.99,3.75,2.7c1.24,0.54,2.04,1.62,2.7,2.77
		c0.27,32.95,0.12,65.91,0.12,98.86c-2.79,0.01-5.78,0.43-8.31-1.01c-7.89-27.98-15.23-56.11-22.01-84.37
		c-2.77-11.64-4.34-24.51,1.26-35.59C633.36,753.16,645.81,746.16,657.67,740.69z"/>
</g>
<g id="_x23_709eb4ff">
	<path style="fill:#709EB4;" d="M268.49,730.08c0.39-0.09,1.17-0.27,1.56-0.37c5.56,2.68,11.45,4.6,17.04,7.24
		c10.19,4.83,19.98,10.44,29.82,15.95c2.56,2.88,6.03,4.75,8.65,7.57c5.21,5.47,9.19,12.26,10.9,19.64
		c1.37,10.58-1.41,21.09-3.73,31.34c-2.49,11.65-5.62,23.15-8.35,34.75c-0.55,0.13-1.66,0.39-2.22,0.51
		c0.23-20.6-0.9-41.22,0.05-61.8c3.39,1.58,5.22-2.9,4.34-5.56c-0.67-2.43-2.98-4.14-5.5-3.97c-19.82-0.23-39.65,0.21-59.46-0.18
		c0.59-9.72,0.71-19.46-0.01-29.17c-0.13-3.19-0.14-6.38-0.16-9.56c2.24-0.07,4.47-0.24,6.7-0.39
		C268.22,734.07,268.31,732.07,268.49,730.08z"/>
</g>
<g id="_x23_7e7049ff">
	<path style="fill:#7E7049;" d="M710.19,735.15c5.88,0.94,11.82,1.71,17.79,1.28c4.67-0.18,9.32-0.79,14.01-0.78
		c17.33,0.08,34.66,0.01,51.99,0.07c7.77,0.1,15.61-0.65,23.34,0.5l0.01,0.56c-7.74,1.36-15.51-0.47-23.28,0.06
		c-13.35,0.09-26.7-0.1-40.04,0.03c-6.48,0.1-12.99-0.43-19.42,0.55c-6.31,0.62-12.69,0.61-19,0.04c-1.86-0.28-3.71-0.63-5.55-0.95
		C710.08,736.17,710.15,735.49,710.19,735.15z"/>
</g>
<g id="_x23_8e4f31ff">
	<path style="fill:#8E4F31;" d="M125.73,736.44c6.2-0.08,12.41,0.04,18.62-0.09c-0.25,4.63-0.77,9.25-0.74,13.9
		c-0.15-1.41-0.34-2.81-0.52-4.19c-0.1-0.78-0.3-2.32-0.4-3.1c-5.66-0.08-11.29,0.65-16.95,0.43
		C125.71,741.07,125.71,738.75,125.73,736.44z"/>
</g>
<g id="_x23_fefffeff">
	<path style="fill:#FEFFFE;" d="M144.35,736.35c3.86-0.09,7.74-0.11,11.61-0.09c-1.79,5.96-3.31,12.08-3.31,18.35
		c-0.24,7.34,2.14,14.5,6.32,20.49c-5.13,0.04-10.27,0.22-15.39-0.27l0.09-1.28c-0.14-7.77,0.02-15.54-0.06-23.3
		C143.58,745.6,144.1,740.98,144.35,736.35z"/>
</g>
<g id="_x23_719fb4ff">
	<path style="fill:#719FB4;" d="M155.96,736.26c28.47,0.28,56.96-0.28,85.42,0.28c-0.05,12.68-0.05,25.37,0.08,38.05
		c-9.98,1.02-19.97-0.11-29.96,0.08c-7.07-1.65-14.35-0.81-21.51-1.59c-6.5-0.21-12.86-1.68-19.33-2.16
		c-3.18-1.09-6.36-2.36-8.97-4.51c-3.96-3.13-6.28-7.7-9.04-11.8C152.65,748.34,154.17,742.22,155.96,736.26z"/>
</g>
<g id="_x23_874b31ff">
	<path style="fill:#874B31;" d="M241.51,736.54c2.27,0.02,4.53-0.1,6.8-0.14c4.37-0.13,8.74,0.09,13.11,0.07
		c0.02,3.18,0.03,6.37,0.16,9.56c-0.34-0.1-1.03-0.31-1.37-0.41c-5.71-1.57-11.66-1.68-17.53-1.33
		C242.3,741.7,241.92,739.11,241.51,736.54z"/>
</g>
<g id="_x23_905136ff">
	<path style="fill:#905136;" d="M834.35,736.49c6.28-0.03,12.58-0.2,18.86,0.16c-0.03,3.17-0.04,6.34,0.02,9.51
		c-0.48,0.19-1.43,0.56-1.91,0.75c-4.78-0.36-9.55,0.42-14.32-0.15c-0.91,1.18-1.82,2.37-2.71,3.58
		C834.36,745.72,834.27,741.1,834.35,736.49z"/>
</g>
<g id="_x23_997360ff">
	<path style="fill:#997360;" d="M241.38,736.54h0.13c0.41,2.57,0.79,5.16,1.17,7.75c0.55,14.09,0.51,28.25,0.08,42.37
		c-0.43,0.31-1.28,0.92-1.7,1.22c-17.03-0.55-34.07,0.05-51.09-0.23c-16.09,0.1-32.17-0.16-48.25,0.25
		c-0.82-0.48-1.64-0.95-2.46-1.41c-0.05-3.02-0.45-6.13,0.36-9.07c0.82-1.73,2.66-2.66,4.05-3.87l-0.09,1.28
		c-2.06,2.58-4.2,5.56-3.17,9.09c0.22,2.22,2.99,1.58,4.53,1.83c24.69,0.03,49.37,0.31,74.06,0.39c7.53-0.07,15.08,0.38,22.58-0.44
		c0.03-3.71-0.01-7.41-0.12-11.11C241.33,761.91,241.33,749.22,241.38,736.54z"/>
</g>
<g id="_x23_f5c81bff">
	<path style="fill:#F5C81B;" d="M710.04,736.51c1.84,0.32,3.69,0.67,5.55,0.95c0.05,1.83,0.12,3.67,0.21,5.51
		c-0.47,0.35-1.43,1.05-1.9,1.4c-1.58-0.6-3.17-1.16-4.75-1.7C709.42,740.61,709.73,738.56,710.04,736.51z"/>
</g>
<g id="_x23_d3b350ff">
	<path style="fill:#D3B350;" d="M734.59,737.42c6.43-0.98,12.94-0.45,19.42-0.55c13.34-0.13,26.69,0.06,40.04-0.03
		c7.77-0.53,15.54,1.3,23.28-0.06c0,1.6-0.07,3.2-0.09,4.82c-0.41-0.01-1.23-0.04-1.64-0.05c0.04-1.27,0.08-2.54,0.14-3.79
		c-3.31-0.26-6.62-0.22-9.9,0.18c-13.59,0.84-27.22,0.2-40.82,0.35c-9.83-0.08-19.67,0.27-29.49-0.11L734.59,737.42z"/>
</g>
<g id="_x23_924b30ff">
	<path style="fill:#924B30;" d="M715.59,737.46c6.31,0.57,12.69,0.58,19-0.04c0.01,3.01,0,6.03,0.14,9.06
		c-0.54-0.2-1.6-0.6-2.14-0.8c-0.07-0.36-0.22-1.08-0.29-1.44c-5.58,0.58-10.99-1.16-16.5-1.27
		C715.71,741.13,715.64,739.29,715.59,737.46z"/>
</g>
<g id="_x23_e2b942ff">
	<path style="fill:#E2B942;" d="M734.59,737.42l0.94,0.76c0.34,2.43,0.56,4.88,0.82,7.34c11.54,0.61,23.09,0.48,34.64,0.16
		c11.23,0.22,22.46-0.51,33.55-2.23l-0.37,1.44c-15.9,2.76-32.12,2.55-48.2,2.7c-7.08,0.07-14.15-0.08-21.2-0.46l-0.04-0.65
		C734.59,743.45,734.6,740.43,734.59,737.42z"/>
</g>
<g id="_x23_fcc00bff">
	<path style="fill:#FCC00B;" d="M735.53,738.18c9.82,0.38,19.66,0.03,29.49,0.11c13.6-0.15,27.23,0.49,40.82-0.35
		c-0.44,1.83-0.86,3.67-1.3,5.51c-11.09,1.72-22.32,2.45-33.55,2.23c-11.55,0.32-23.1,0.45-34.64-0.16
		C736.09,743.06,735.87,740.61,735.53,738.18z"/>
</g>
<g id="_x23_db8f07ff">
	<path style="fill:#DB8F07;" d="M805.84,737.94c3.28-0.4,6.59-0.44,9.9-0.18c-0.06,1.25-0.1,2.52-0.14,3.79
		c-2.63,1.15-5.35,2.08-8.13,2.78c-0.82,0.14-2.47,0.42-3.3,0.56l0.37-1.44C804.98,741.61,805.4,739.77,805.84,737.94z"/>
</g>
<g id="_x23_232347ff">
	<path style="fill:#232347;" d="M807.47,744.33c2.78-0.7,5.5-1.63,8.13-2.78c0.41,0.01,1.23,0.04,1.64,0.05
		c-0.1,4.75,0.33,9.57-0.7,14.27c-1.52,8.36-7.57,15.72-15.5,18.81c-6.18,1.87-12.72,0.67-19.05,0.98
		c-15.64,0.24-31.29-0.42-46.91,0.17c0.01-0.68,0.04-2.06,0.05-2.74c0.23-0.18,0.68-0.53,0.91-0.71
		c14.79-0.13,29.51-2.04,43.94-5.26c6.54-1.55,13.13-4.35,17.52-9.64c2.66-3.16,4.29-7,5.77-10.81
		C804.69,745.93,806.06,745.09,807.47,744.33z"/>
</g>
<g id="_x23_ae6946ff">
	<path style="fill:#AE6946;" d="M715.8,742.97c5.51,0.11,10.92,1.85,16.5,1.27c0.07,0.36,0.22,1.08,0.29,1.44
		c0.54,0.2,1.6,0.6,2.14,0.8l0.04,0.65l0.01,0.31l-0.69,1.21c-2.17,0.68-4.38,1.17-6.58,1.72c0,10.22-0.85,20.42-0.54,30.65
		c-0.42,15.88,0.34,31.78-0.37,47.66c-2.79,0.12-5.57,0.19-8.35,0.2c-0.26-4.53,0.66-9.4-1.62-13.56c-0.17-1.98-0.27-3.96-0.35-5.93
		c0.12-4,0.01-7.99-0.39-11.95c-0.32-3.58-0.05-7.16,0.2-10.73c0.31-3.81,0-7.63-0.19-11.44c0.03-0.82,0.09-2.46,0.12-3.28
		c0.4-8.94,0.61-17.94-0.2-26.86c-0.48-0.19-1.44-0.57-1.92-0.76C714.37,744.02,715.33,743.32,715.8,742.97z"/>
</g>
<g id="_x23_aa6744ff">
	<path style="fill:#AA6744;" d="M125.74,743.39c5.66,0.22,11.29-0.51,16.95-0.43c0.1,0.78,0.3,2.32,0.4,3.1
		c-3.34-0.09-6.69-0.08-10.03,0.02c-0.98,20.96-0.01,41.96-0.14,62.94c0.08,36.31,0.08,72.62-0.1,108.94
		c-0.08,3.66,0.21,7.33,0.82,10.94c-2.68,0.11-5.35,0.42-8.01,0.79c0.01-0.44,0.04-1.32,0.05-1.76
		C125.93,866.42,125.78,804.91,125.74,743.39z"/>
</g>
<g id="_x23_aa6946ff">
	<path style="fill:#AA6946;" d="M242.68,744.29c5.87-0.35,11.82-0.24,17.53,1.33c-0.03,1.54-0.05,3.08-0.07,4.64
		c-3.45-0.42-7.42-3.08-10.68-0.97c-0.7,3.87-0.44,7.83-0.52,11.75c0.16,18.99,0.09,37.99,0.26,56.98c0.21,4.44-1.36,8.65-3.2,12.61
		c-0.91-0.47-1.81-0.92-2.72-1.37c-0.27-7.76-0.27-15.52-0.16-23.27c0.06-2.82-0.2-5.63-0.9-8.35c-0.92-3.17-1.15-6.48-1.16-9.76
		c0.42-0.3,1.27-0.91,1.7-1.22C243.19,772.54,243.23,758.38,242.68,744.29z"/>
</g>
<g id="_x23_ba734eff">
	<path style="fill:#BA734E;" d="M133.06,746.08c3.34-0.1,6.69-0.11,10.03-0.02c0.18,1.38,0.37,2.78,0.52,4.19
		c0.08,7.76-0.08,15.53,0.06,23.3c-1.39,1.21-3.23,2.14-4.05,3.87c-0.81,2.94-0.41,6.05-0.36,9.07c0.82,0.46,1.64,0.93,2.46,1.41
		c0.69,3.5,1.67,6.98,1.93,10.56c0.09,30.85,0.1,61.71,0.1,92.57c0.14,11.95-0.38,23.92,0.2,35.86c0.04,0.48,0.13,1.45,0.17,1.93
		c-3.49,0-6.99-0.02-10.48,0.08c-0.61-3.61-0.9-7.28-0.82-10.94c0.18-36.32,0.18-72.63,0.1-108.94
		C133.05,788.04,132.08,767.04,133.06,746.08z"/>
</g>
<g id="_x23_a1836eff">
	<path style="fill:#A1836E;" d="M260.21,745.62c0.34,0.1,1.03,0.31,1.37,0.41c0.72,9.71,0.6,19.45,0.01,29.17
		c-0.2,4.05-0.39,8.12-0.9,12.15c-1.11-12.33-0.21-24.73-0.55-37.09C260.16,748.7,260.18,747.16,260.21,745.62z"/>
</g>
<g id="_x23_bc7750ff">
	<path style="fill:#BC7750;" d="M851.32,746.91c0.48-0.19,1.43-0.56,1.91-0.75c-0.11,39.62-0.12,79.22-0.18,118.82
		c0.51,20.37-0.9,40.75,0.16,61.1c-1.85-0.05-3.69-0.09-5.52-0.05c1.09-0.55,2.19-1.1,3.28-1.66c-2.95-0.28-5.91-0.48-8.86-0.63
		c-0.08-7.27,1.29-14.47,0.97-21.74c-0.71-24,0.65-48,0-71.99c0.07-27.25-0.46-54.49,0.01-81.73
		C845.86,748.1,848.72,748.02,851.32,746.91z"/>
</g>
<g id="_x23_343a6eff">
	<path style="fill:#343A6E;" d="M781.02,748.6c7.47-0.04,14.8-1.66,22.25-1.93c-1.48,3.81-3.11,7.65-5.77,10.81
		c-4.39,5.29-10.98,8.09-17.52,9.64c-14.43,3.22-29.15,5.13-43.94,5.26c-0.25-7.87-0.21-15.75-0.26-23.62
		C750.86,748.94,765.94,748.68,781.02,748.6z"/>
</g>
<g id="_x23_ac6946ff">
	<path style="fill:#AC6946;" d="M834.29,750.34c0.89-1.21,1.8-2.4,2.71-3.58c4.77,0.57,9.54-0.21,14.32,0.15
		c-2.6,1.11-5.46,1.19-8.23,1.37c-0.47,27.24,0.06,54.48-0.01,81.73c0.65,23.99-0.71,47.99,0,71.99c0.32,7.27-1.05,14.47-0.97,21.74
		c2.95,0.15,5.91,0.35,8.86,0.63c-1.09,0.56-2.19,1.11-3.28,1.66c-4.52,0.42-9.07,0.39-13.57-0.2c0.67-42.47-0.06-84.97,0.48-127.43
		c0.57-3.49,0.81-7.02,0.76-10.55c0.63-4.15,1.44-8.47-0.6-12.38C833.69,767.16,834.5,758.7,834.29,750.34z"/>
</g>
<g id="_x23_bc7751ff">
	<path style="fill:#BC7751;" d="M249.46,749.29c3.26-2.11,7.23,0.55,10.68,0.97c0.34,12.36-0.56,24.76,0.55,37.09
		c0.24,3.29,0.49,6.58,0.93,9.85c-0.3,0.31-0.89,0.94-1.18,1.26c-0.04,14.16-0.3,28.33-0.03,42.49c0.41-0.69,0.82-1.38,1.21-2.07
		c-0.5,12.37,0.09,24.75-0.08,37.13c0.09,12.01-0.34,24.02-0.2,36.04c-0.09,1.75,0.37,3.44,1.33,4.94
		c-0.31,0.14-0.94,0.43-1.25,0.58c-0.06,2.12-0.11,4.24-0.18,6.38c0.29,0.09,0.87,0.28,1.16,0.38c-0.98,2.13-0.62,4.51-0.61,6.78
		c0.02,1.68-0.04,3.39-0.28,5.07c-0.02-2.74-0.2-5.47-0.35-8.19c-6.47-0.35-13.06-1-19.43,0.59c0.04-0.65,0.12-1.95,0.16-2.6
		c0.37-7.35,0.63-14.76,0-22.08c0.68-6.32,0.53-12.73-0.12-19.05c0-0.08,0-0.24,0-0.33c0.62-4.15,0.67-8.35,0.57-12.53
		c-0.09-21.33,0.1-42.67,0.03-64c-0.01-3.27-0.6-6.48-0.94-9.71l0.79-0.64c0.7,2.72,0.96,5.53,0.9,8.35
		c-0.11,7.75-0.11,15.51,0.16,23.27c0.91,0.45,1.81,0.9,2.72,1.37c1.84-3.96,3.41-8.17,3.2-12.61c-0.17-18.99-0.1-37.99-0.26-56.98
		C249.02,757.12,248.76,753.16,249.46,749.29z"/>
</g>
<g id="_x23_bb7650ff">
	<path style="fill:#BB7650;" d="M727.51,750.37c2.2-0.55,4.41-1.04,6.58-1.72c-0.74,7.42-0.29,14.92-0.27,22.38
		c0.36,5.69-0.76,11.55,1.1,17.07c-1.91,1.47-3.94,2.77-6,4c1.81,0.72,3.62,1.45,5.43,2.19c0.04,1.37,0.07,2.72,0.12,4.12
		c0.2,18.51-0.09,37.03,0.01,55.54c0.52,9.7,0,19.41,0.22,29.12c0.45,0.34,1.35,1,1.8,1.33c0.24,3.16,0.65,6.3,1.03,9.46
		c-0.99,0.62-1.95,1.3-2.87,2.02c0.17,1.42,0.5,2.85,0.82,4.27c-0.24,0.33-0.71,0.99-0.95,1.32c-0.11,7.46-0.2,14.94,0.05,22.4
		c-5.92-0.33-11.84-0.26-17.76-0.16c-0.58-6.26,0.36-12.58-0.56-18.81l-0.53-0.22c-1.07-0.42-2.13-0.83-3.18-1.24
		c0.81-0.24,2.42-0.72,3.23-0.96c0.01-2.1,0.04-4.19,0.07-6.28c-1.3-0.23-2.6-0.44-3.88-0.65c1.46-0.54,2.97-0.97,4.48-1.39
		c0.07-3.29,0.06-6.57-0.03-9.85c-0.11-23,0.03-45.99,0.21-68.99c2.28,4.16,1.36,9.03,1.62,13.56c2.78-0.01,5.56-0.08,8.35-0.2
		c0.71-15.88-0.05-31.78,0.37-47.66C726.66,770.79,727.51,760.59,727.51,750.37z"/>
</g>
<g id="_x23_906d5eff">
	<path style="fill:#906D5E;" d="M734.09,748.65l0.69-1.21c0.81,8.53,0.21,17.1,0.35,25.65c-0.01,0.68-0.04,2.06-0.05,2.74
		c-0.13,3.39-0.18,6.79-0.11,10.19c14.01,0.59,28.05,0.07,42.07,0.18c19.21-0.08,38.41-0.23,57.62-0.54
		c-0.07-3.39-0.29-6.77-0.42-10.15l0.52-0.04c2.04,3.91,1.23,8.23,0.6,12.38c-14.44-0.62-28.9,0.14-43.34-0.17
		c-19.04,0.12-38.08-0.18-57.1,0.42c-1.86-5.52-0.74-11.38-1.1-17.07C733.8,763.57,733.35,756.07,734.09,748.65z"/>
</g>
<g id="_x23_436984ff">
	<path style="fill:#436984;" d="M152.65,754.61c2.76,4.1,5.08,8.67,9.04,11.8c2.61,2.15,5.79,3.42,8.97,4.51
		c1.12,0.74,2.23,1.51,3.34,2.3c-4.13,3.59-10.08,1.27-15.03,1.88C154.79,769.11,152.41,761.95,152.65,754.61z"/>
</g>
<g id="_x23_557f95ff">
	<path style="fill:#557F95;" d="M170.66,770.92c6.47,0.48,12.83,1.95,19.33,2.16c7.16,0.78,14.44-0.06,21.51,1.59
		c-7.48,1.18-15.05,0.18-22.57,0.57c-4.98-0.13-10.46,0.7-14.93-2.02C172.89,772.43,171.78,771.66,170.66,770.92z"/>
</g>
<g id="_x23_222246ff">
	<path style="fill:#222246;" d="M675.93,773.63c13.28-2,26.74-0.78,40.09-1.64c-0.03,0.82-0.09,2.46-0.12,3.28l-0.84,0.01
		c-13.58,0.25-27.15-0.8-40.74-0.47C674.72,774.51,675.53,773.92,675.93,773.63z"/>
</g>
<g id="_x23_415570ff">
	<path style="fill:#415570;" d="M174,773.22c4.47,2.72,9.95,1.89,14.93,2.02c7.52-0.39,15.09,0.61,22.57-0.57
		c9.99-0.19,19.98,0.94,29.96-0.08c0.11,3.7,0.15,7.4,0.12,11.11c-7.5,0.82-15.05,0.37-22.58,0.44
		c-24.69-0.08-49.37-0.36-74.06-0.39c-1.54-0.25-4.31,0.39-4.53-1.83c-1.03-3.53,1.11-6.51,3.17-9.09
		c5.12,0.49,10.26,0.31,15.39,0.27C163.92,774.49,169.87,776.81,174,773.22z"/>
</g>
<g id="_x23_435673ff">
	<path style="fill:#435673;" d="M781.99,775.66c6.33-0.31,12.87,0.89,19.05-0.98c10.99,1.36,22.15-0.04,33.2,0.83
		c0.13,3.38,0.35,6.76,0.42,10.15c-19.21,0.31-38.41,0.46-57.62,0.54c-14.02-0.11-28.06,0.41-42.07-0.18
		c-0.07-3.4-0.02-6.8,0.11-10.19C750.7,775.24,766.35,775.9,781.99,775.66z"/>
</g>
<g id="_x23_97583cff">
	<path style="fill:#97583C;" d="M260.69,787.35c0.51-4.03,0.7-8.1,0.9-12.15c0.03,2.7,0.06,5.4,0.11,8.11
		c0.02,0.73,0.06,2.19,0.07,2.92c12.07,0.5,24.16,0.09,36.24,0.19c7.38-0.17,14.78,0.29,22.15-0.32c0.27,4.47,0.02,8.95-0.39,13.42
		c-3.86-1.23-6.02-4.8-9.03-7.23c-2.37-1.94-5.66-1.09-8.46-1.2c-0.01,2.25-0.02,4.5-0.03,6.76l-0.84-0.02
		c-0.56-0.2-1.68-0.6-2.24-0.79c-0.49-2.25-1.02-4.49-1.54-6.72c-10.9,0.19-21.81-0.07-32.7-0.53
		C263.1,789.91,261.96,788.38,260.69,787.35z"/>
</g>
<g id="_x23_445973ff">
	<path style="fill:#445973;" d="M261.59,775.2c19.81,0.39,39.64-0.05,59.46,0.18c2.52-0.17,4.83,1.54,5.5,3.97
		c0.88,2.66-0.95,7.14-4.34,5.56c-5.62-1.57-11.49-0.59-17.23-0.87c-14.42-0.4-28.91,0.7-43.28-0.73
		C261.65,780.6,261.62,777.9,261.59,775.2z"/>
</g>
<g id="_x23_475b75ff">
	<path style="fill:#475B75;" d="M654.36,775.6c6.62-0.83,13.37,0.54,19.96-0.79c13.59-0.33,27.16,0.72,40.74,0.47
		c0.05,2.54,0.07,5.09,0.06,7.64c-14.71,0.67-29.45,0.24-44.17,0.38c-5.75,0.26-11.9-1.23-17.27,1.45c-1.39-0.71-3.7-0.67-3.75-2.7
		C649.16,779.08,651.3,775.89,654.36,775.6z"/>
</g>
<g id="_x23_41485fff">
	<path style="fill:#41485F;" d="M715.06,775.28l0.84-0.01c0.19,3.81,0.5,7.63,0.19,11.44c-11.4-0.02-22.81-0.02-34.21-0.06
		c-8.49,0.18-17.17-1.22-25.5,0.87c-0.66-1.15-1.46-2.23-2.7-2.77c5.37-2.68,11.52-1.19,17.27-1.45
		c14.72-0.14,29.46,0.29,44.17-0.38C715.13,780.37,715.11,777.82,715.06,775.28z"/>
</g>
<g id="_x23_43495aff">
	<path style="fill:#43495A;" d="M261.7,783.31c14.37,1.43,28.86,0.33,43.28,0.73c5.74,0.28,11.61-0.7,17.23,0.87
		c-0.51,0.29-1.54,0.89-2.05,1.19c-7.37,0.61-14.77,0.15-22.15,0.32c-12.08-0.1-24.17,0.31-36.24-0.19
		C261.76,785.5,261.72,784.04,261.7,783.31z"/>
</g>
<g id="_x23_7e959bff">
	<path style="fill:#7E959B;" d="M320.16,786.1c0.51-0.3,1.54-0.9,2.05-1.19c-0.95,20.58,0.18,41.2-0.05,61.8
		c0.56-0.12,1.67-0.38,2.22-0.51c-1.26,5.06-2.61,10.1-3.95,15.14c-0.51-12.11,0.38-24.25-0.58-36.34
		c-0.24-3.67-0.03-7.34,0.17-10.99c0.3-4.84-0.45-9.66-0.25-14.49C320.18,795.05,320.43,790.57,320.16,786.1z"/>
</g>
<g id="_x23_b16f49ff">
	<path style="fill:#B16F49;" d="M260.69,787.35c1.27,1.03,2.41,2.56,4.24,2.44c10.89,0.46,21.8,0.72,32.7,0.53
		c0.52,2.23,1.05,4.47,1.54,6.72c-12.51,0.58-25.04,0.35-37.55,0.16C261.18,793.93,260.93,790.64,260.69,787.35z"/>
</g>
<g id="_x23_8f4c30ff">
	<path style="fill:#8F4C30;" d="M656.38,787.52c8.33-2.09,17.01-0.69,25.5-0.87c-2.42,3.31-3.9,7.11-3.81,11.26
		c-0.78-0.02-2.32-0.08-3.09-0.11c0.31-2.52,0.24-5.05,0.12-7.57c-5.99,0.06-11.99,0.1-17.98,0.08c0.3,32.01-0.28,64.03,0.2,96.05
		l-0.82,0.02C656.5,853.43,656.65,820.47,656.38,787.52z"/>
</g>
<g id="_x23_a3613fff">
	<path style="fill:#A3613F;" d="M681.88,786.65c11.4,0.04,22.81,0.04,34.21,0.06c-0.25,3.57-0.52,7.15-0.2,10.73
		c-12.6-0.23-25.22,0.66-37.82,0.47C677.98,793.76,679.46,789.96,681.88,786.65z"/>
</g>
<g id="_x23_b6714cff">
	<path style="fill:#B6714C;" d="M141.72,787.9c16.08-0.41,32.16-0.15,48.25-0.25c17.02,0.28,34.06-0.32,51.09,0.23
		c0.01,3.28,0.24,6.59,1.16,9.76l-0.79,0.64c-5.82,0.39-11.65,0.05-17.47,0.19c-4.94,0-9.89-0.11-14.83,0.03
		c-5.39,0.19-10.8,0.1-16.19-0.04c-16.43-0.03-32.86,0.02-49.29,0C143.39,794.88,142.41,791.4,141.72,787.9z"/>
	<path style="fill:#B6714C;" d="M728.92,792.1c2.06-1.23,4.09-2.53,6-4c19.02-0.6,38.06-0.3,57.1-0.42
		c14.44,0.31,28.9-0.45,43.34,0.17c0.05,3.53-0.19,7.06-0.76,10.55c-16.39,0.07-32.79-0.04-49.18,0.05c-5.38,0.23-10.76,0.2-16.13,0
		c-11.61-0.07-23.21,0.04-34.82-0.04c-0.05-1.4-0.08-2.75-0.12-4.12C732.54,793.55,730.73,792.82,728.92,792.1z"/>
</g>
<g id="_x23_ad6a46ff">
	<path style="fill:#AD6A46;" d="M657.12,790.31c5.99,0.02,11.99-0.02,17.98-0.08c0.12,2.52,0.19,5.05-0.12,7.57l-0.08,0.38
		c-1.37,6.91-0.22,14.01-0.74,21c-0.34,5.27,0.22,10.55-0.1,15.83c-0.36,5.96-0.38,11.95,0.22,17.9
		c0.79,11.06-0.47,22.13,0.15,33.19c-0.49,5.59-0.5,11.2-0.66,16.81c1.59-0.11,3.19-0.23,4.8-0.34c0.23,0.29,0.68,0.88,0.91,1.17
		c-1.76-0.06-3.52-0.08-5.27-0.09c0.06,6.4-0.18,12.81,0.1,19.21c-5.86-0.31-11.72-0.31-17.58,0.03c0.01-5.21,0.12-10.42,0.06-15.63
		c-0.49-0.26-1.46-0.78-1.95-1.04c0.58-0.07,1.75-0.2,2.34-0.26c0.01-2.6-0.16-5.18-0.28-7.76c0.02-0.39,0.04-1.17,0.06-1.56
		c0.27-3.43,0.54-6.86,0.36-10.28C656.84,854.34,657.42,822.32,657.12,790.31z"/>
</g>
<g id="_x23_b7734fff">
	<path style="fill:#B7734F;" d="M302.28,791.09c2.8,0.11,6.09-0.74,8.46,1.2c3.01,2.43,5.17,6,9.03,7.23
		c-0.2,4.83,0.55,9.65,0.25,14.49c-0.2,3.65-0.41,7.32-0.17,10.99c0.96,12.09,0.07,24.23,0.58,36.34
		c-0.48,15.15-0.08,30.33-0.3,45.49c0.34,0.16,1.02,0.48,1.36,0.65c-0.73,0.65-1.07,1.47-1.02,2.46c-0.2,4.74,0.13,9.48,0.06,14.22
		c-6.28-0.47-12.69-1.79-18.93-0.22c0.29-6.25,0.85-12.5,0.26-18.74c-0.42-0.17-1.26-0.51-1.68-0.68c2.73-1.11,1.75-4.45,1.84-6.72
		c-0.03-0.52-0.08-1.56-0.11-2.09c1.04-8.89-1.07-17.79,0.1-26.69c0.64-20.98,0.08-41.98,0.4-62.97c0.11-2.57-0.25-5.12-0.84-7.61
		c-2.61,0.06-5.22,0.11-7.83,0.11c2.56-0.17,5.11-0.5,7.67-0.72l0.84,0.02C302.26,795.59,302.27,793.34,302.28,791.09z"/>
</g>
<g id="_x23_8b6e61ff">
	<path style="fill:#8B6E61;" d="M260.44,798.46c0.29-0.32,0.88-0.95,1.18-1.26c12.51,0.19,25.04,0.42,37.55-0.16
		c0.56,0.19,1.68,0.59,2.24,0.79c-2.56,0.22-5.11,0.55-7.67,0.72c-0.89,0.01-1.77,0.01-2.65,0.01c-5.92,0.1-11.97-0.85-17.76,0.77
		c-3.64-0.32-7.48-1.47-11.03-0.1c-1.12,5.85-0.23,11.86-0.47,17.79c0.24,6.53-1.01,13.23,0.89,19.61c-0.37,0.74-0.74,1.49-1.1,2.25
		c-0.39,0.69-0.8,1.38-1.21,2.07C260.14,826.79,260.4,812.62,260.44,798.46z"/>
</g>
<g id="_x23_f9d9cdff">
	<path style="fill:#F9D9CD;" d="M674.98,797.8c0.77,0.03,2.31,0.09,3.09,0.11c12.6,0.19,25.22-0.7,37.82-0.47
		c0.4,3.96,0.51,7.95,0.39,11.95c-0.87-3.79-2.22-7.54-1.85-11.48c-13.18-0.71-26.35,0.57-39.53,0.27L674.98,797.8z"/>
	<path style="fill:#F9D9CD;" d="M441.2,917.97c4.21-0.94,8.53-0.94,12.82-0.83c14.8-0.05,29.6,0.03,44.4-0.31
		c0.53,6.96-1.34,14.27,1.1,20.98c5.49-0.14,10.99,0.27,16.47-0.1c1.73,0.18,2.7-1.21,2.71-2.78c0.39-5.95,0.04-11.91,0.15-17.86
		c31.09,0.08,62.18,0.2,93.27,0.15c-3.72,2.25-5.49,6.28-4.66,10.57c0.08,1.75,0.22,3.51,0.37,5.26
		c15.75,0.58,31.54,0.48,47.31,0.21c0.08-1.17,0.23-3.51,0.3-4.67c0.1,0.12,0.29,0.38,0.38,0.51c0.39,1.99,0.63,4.02,0.98,6.04
		c3.52,6.11,13.73,5.45,17.58-0.05c0.14-1.26,0.21-2.54,0.27-3.79c3.42,0.3,6.83,0.57,10.23,1.07c9.58,1.59,19.32,0.13,28.97,0.87
		c0.25,0.49,0.74,1.46,0.99,1.95c1.28,2.96,3.68,5.75,7.1,6.04c4.76,0.64,11.25-0.1,13.15-5.31c0.54-3.7-0.3-7.44-0.45-11.13
		c2.72,0.03,5.46,0.07,8.19,0.12c-0.04-1.18-0.08-2.36-0.12-3.52c8.82,0.54,17.69,0.9,26.53,0.44c0.19,4.35-0.76,8.94,0.68,13.13
		c2.83,6.24,12.78,5.27,15.14-0.82c0.86-3.33,0.44-6.83,0.49-10.22c16.2-0.15,32.43,0.53,48.57,1.91
		c-0.95,4.92-1.04,11.13,4.21,13.67c-3.45,1.93-7.56,0.92-11.31,1.27c-14.53,1.15-29.12,1.17-43.69,1.72
		c-12.78,0.38-25.55,1.01-38.34,1.04c-27.94,1.41-55.93,1.01-83.88,1.94c-26.03,0.28-52.06,0-78.08,0.69
		c-35.02,0.14-70.05,0.15-105.07,0.06c-37.3,0.03-74.58-0.91-111.88-0.96c-27.02-0.28-54.04-0.89-81.07-1.33
		c-19.34-0.05-38.64-1.57-57.99-1.52c-10.98,0.04-21.94-0.56-32.88-1.38c-15.04,0.7-30.09-0.91-45.13-1.27
		c-2.61-0.04-5.19-0.46-7.73-1.02c2.58-2.63,3.43-6.34,2.84-9.92c-0.04-0.48-0.13-1.45-0.17-1.93c6.19-0.07,12.37-0.45,18.51-1.22
		c10.15-0.52,20.3-1.03,30.46-1.35c0.45,4.51-1.22,10.49,3.16,13.54c4.89,3.91,13.97-0.04,12.78-6.78
		c10.63,0.1,21.27,0.07,31.9,0.15c0.35,1.57,0.69,3.18,1.12,4.77c1.08,2.4,3.24,4.72,6.07,4.73c4.73,0.36,11.37,0.76,13.56-4.55
		c0.24-1.68,0.3-3.39,0.28-5.07c3.72,0.22,7.45,0.38,11.17,0.01c0.13-0.55,0.4-1.66,0.53-2.22c0.2,0.96,0.43,1.92,0.67,2.9
		c8.85,0.47,17.77-0.63,26.56,0.77c0.44,3.11,2.31,6.34,5.62,7c4.81,0.65,10.87,1.04,14.01-3.49c0.42-3.13,0.4-6.29,0.43-9.42
		l0.96,0.01c0.11,1.79,0.23,3.6,0.35,5.42c7.98,0.45,15.98,0.23,23.97,0.2c3.43,0.6,3.12-3.39,3.58-5.66
		c0.13-2.86-0.36-5.76-1.91-8.2c3.87-0.49,7.78-0.73,11.69-0.69c-0.03,2.35,0.02,4.72,0.29,7.07c0.23,2.27,0.51,4.54,0.8,6.81
		c4.47,0.51,8.97,0.52,13.46,0.33c22.57,0.02,45.16,0.51,67.71-0.16c0.11-1.82,0.24-3.63,0.37-5.42
		C442.31,923.53,442.48,920.6,441.2,917.97 M735.84,925.75c0.08,2.05,0.15,4.13,0.21,6.2c2.14-0.16,4.3-0.3,6.45-0.44
		c0.11-1.87,0.22-3.74,0.34-5.6C740.5,925.77,738.17,925.71,735.84,925.75z"/>
</g>
<g id="_x23_436781ff">
	<path style="fill:#436781;" d="M223.96,798.47c5.82-0.14,11.65,0.2,17.47-0.19c0.34,3.23,0.93,6.44,0.94,9.71
		c0.07,21.33-0.12,42.67-0.03,64c0.1,4.18,0.05,8.38-0.57,12.53c-3.62,0.45-7.28,0.45-10.89-0.05c-5.58-0.77-11.26-0.68-16.78-1.8
		c-1.39-0.17-1.98-1.62-2.85-2.49c3.03-14.43,4.56-29.13,6.99-43.67C220.02,823.81,222.21,811.17,223.96,798.47z"/>
</g>
<g id="_x23_6e9eb3ff">
	<path style="fill:#6E9EB3;" d="M291.09,798.56c0.88,0,1.76,0,2.65-0.01c2.61,0,5.22-0.05,7.83-0.11c0.59,2.49,0.95,5.04,0.84,7.61
		c-0.32,20.99,0.24,41.99-0.4,62.97c-1.17,8.9,0.94,17.8-0.1,26.69c-5.99-0.52-12-0.34-17.99-0.57c-1.07-1.95-2.81-3.79-2.76-6.13
		c0.62-2.14,2.07-3.9,3.08-5.84C286.41,854.96,287.64,826.66,291.09,798.56z"/>
</g>
<g id="_x23_242247ff">
	<path style="fill:#242247;" d="M674.16,819.18c0.52-6.99-0.63-14.09,0.74-21c13.18,0.3,26.35-0.98,39.53-0.27
		c-0.37,3.94,0.98,7.69,1.85,11.48c0.08,1.97,0.18,3.95,0.35,5.93c-0.18,23-0.32,45.99-0.21,68.99c-3.99,0.12-7.99,0.22-11.9,1.05
		C694.28,863.36,683.8,841.46,674.16,819.18z"/>
</g>
<g id="_x23_824429ff">
	<path style="fill:#824429;" d="M192.94,798.46c5.39,0.14,10.8,0.23,16.19,0.04c-0.07,26.49,0.18,52.99-0.02,79.48
		c0.62,12.53-0.61,25.11,0.69,37.62c-0.09,3.08-0.38,6.16-0.62,9.26c-0.16,2.06-0.25,4.14-0.32,6.22
		c1.19,6.74-7.89,10.69-12.78,6.78c-4.38-3.05-2.71-9.03-3.16-13.54C192.99,882.36,193.05,840.41,192.94,798.46z"/>
</g>
<g id="_x23_406481ff">
	<path style="fill:#406481;" d="M262.3,799.23c3.55-1.37,7.39-0.22,11.03,0.1c-1.79,11.22-6.36,21.76-8.45,32.91
		c-0.69,1.47-1.43,2.92-2.16,4.39c-1.9-6.38-0.65-13.08-0.89-19.61C262.07,811.09,261.18,805.08,262.3,799.23z"/>
</g>
<g id="_x23_322f41ff">
	<path style="fill:#322F41;" d="M273.33,799.33c5.79-1.62,11.84-0.67,17.76-0.77c-3.45,28.1-4.68,56.4-6.85,84.61
		c-6.64-0.61-13.32-0.1-19.96-0.78c0.06-16.72,0.28-33.44,0.6-50.15C266.97,821.09,271.54,810.55,273.33,799.33z"/>
</g>
<g id="_x23_84462bff">
	<path style="fill:#84462B;" d="M769.29,798.45c5.37,0.2,10.75,0.23,16.13,0c0.01,41.76-0.05,83.52,0.12,125.27
		c-4.85,0.32-9.7,0.42-14.56,0.36c-0.59-0.76-1.17-1.51-1.74-2.25C769.29,880.7,769.24,839.58,769.29,798.45z"/>
</g>
<g id="_x23_fffbfcff">
	<path style="fill:#FFFBFC;" d="M262.72,836.63c0.73-1.47,1.47-2.92,2.16-4.39c-0.32,16.71-0.54,33.43-0.6,50.15
		c-0.04,4.66-0.12,9.32-0.17,13.98c0.52,0.03,1.55,0.09,2.06,0.11c0.69,0.06,2.08,0.16,2.77,0.21c-0.45,0.97-0.9,1.95-1.34,2.94
		c-2.25,4.23-3.05,9.02-5.09,13.33c0.07,1.33,0.12,2.67,0.16,4.03c-0.96-1.5-1.42-3.19-1.33-4.94c-0.14-12.02,0.29-24.03,0.2-36.04
		c0.17-12.38-0.42-24.76,0.08-37.13C261.98,838.12,262.35,837.37,262.72,836.63z"/>
</g>
<g id="_x23_302842ff">
	<path style="fill:#302842;" d="M674.28,852.91c0.59,7.72,1.51,15.41,2.61,23.08c0.34,3.08,0.51,6.19,0.75,9.3
		c-0.75,0.26-2.23,0.8-2.98,1.07l-0.23-0.26C673.81,875.04,675.07,863.97,674.28,852.91z"/>
</g>
<g id="_x23_709bb4ff">
	<path style="fill:#709BB4;" d="M676.89,875.99c0.46,4.37,1.5,8.65,2.67,12.89c0.39,2.54,1.48,5.82-0.9,7.74
		c-1.45-0.35-2.91-0.68-4.36-0.94c-0.08-3.12,0-6.24,0.36-9.32c0.75-0.27,2.23-0.81,2.98-1.07
		C677.4,882.18,677.23,879.07,676.89,875.99z"/>
</g>
<g id="_x23_56788aff">
	<path style="fill:#56788A;" d="M209.63,892.9c-0.01-4.29,0.29-8.61,1.62-12.72c0.87,0.87,1.46,2.32,2.85,2.49
		c5.52,1.12,11.2,1.03,16.78,1.8c3.61,0.5,7.27,0.5,10.89,0.05c0,0.09,0,0.25,0,0.33c-1.02,3.6-1.7,7.35-3.32,10.75
		c-6.48-0.79-12.99-1.31-19.5-1.79c-2.17-0.26-4.28,0.35-6.35,0.9l-0.58,0.12C211.22,894.18,210.42,893.54,209.63,892.9z"/>
</g>
<g id="_x23_55767eff">
	<path style="fill:#55767E;" d="M264.28,882.39c6.64,0.68,13.32,0.17,19.96,0.78c-1.01,1.94-2.46,3.7-3.08,5.84
		c-0.05,2.34,1.69,4.18,2.76,6.13c-5.88-1-12.27-1.46-17.75,1.34c-0.51-0.02-1.54-0.08-2.06-0.11
		C264.16,891.71,264.24,887.05,264.28,882.39z"/>
</g>
<g id="_x23_75a1a7ff">
	<path style="fill:#75A1A7;" d="M349.91,883.39c8.69,0.61,17.41,0.23,26.12,0.18c8.16-0.28,16.35-0.15,24.49-0.94
		c0.44,0.33,1.31,1,1.75,1.33c-0.16,3.58-0.36,7.16-0.54,10.74c-1.83,0.12-3.65,0.25-5.46,0.33c-7.03-1.16-14.15-0.46-21.22-0.59
		c-3.74-0.09-7.44,0.47-11.11,1.1c-4.59,0.04-9.28,0.39-13.77-0.68C348.88,891.19,349.31,887.15,349.91,883.39z"/>
</g>
<g id="_x23_5a7687ff">
	<path style="fill:#5A7687;" d="M716.42,884.31c0.09,3.28,0.1,6.56,0.03,9.85c-1.51,0.42-3.02,0.85-4.48,1.39
		c-0.55,0.33-1.65,0.99-2.2,1.32c-3.15-3.09-3.67-7.61-5.25-11.51C708.43,884.53,712.43,884.43,716.42,884.31z"/>
</g>
<g id="_x23_739db0ff">
	<path style="fill:#739DB0;" d="M648.19,885.37c2.53,1.44,5.52,1.02,8.31,1.01l0.82-0.02c0.18,3.42-0.09,6.85-0.36,10.28
		c-1.44,0.14-2.86,0.33-4.29,0.44c-0.87-0.08-2.61-0.23-3.49-0.31c-0.9-2.88-1.72-5.78-2.45-8.7
		C647.2,887.16,647.69,886.26,648.19,885.37z"/>
</g>
<g id="_x23_fdfffeff">
	<path style="fill:#FDFFFE;" d="M241.77,884.85c0.65,6.32,0.8,12.73,0.12,19.05c-1.25-1.11-2.54-2.13-3.8-3.2
		c-0.69-1.05-1.31-2.16-1.93-3.22c0.57-0.47,1.72-1.41,2.29-1.88C240.07,892.2,240.75,888.45,241.77,884.85z"/>
</g>
<g id="_x23_eb8860ff">
	<path style="fill:#EB8860;" d="M674.43,886.1l0.23,0.26c-0.36,3.08-0.44,6.2-0.36,9.32c1.45,0.26,2.91,0.59,4.36,0.94
		c-0.17,0.22-0.51,0.65-0.67,0.86c0.11,1.69,0.33,3.39,0.58,5.09c-1.61,0.11-3.21,0.23-4.8,0.34
		C673.93,897.3,673.94,891.69,674.43,886.1z"/>
</g>
<g id="_x23_8e6767ff">
	<path style="fill:#8E6767;" d="M212.6,894.71c2.07-0.55,4.18-1.16,6.35-0.9c6.51,0.48,13.02,1,19.5,1.79
		c-0.57,0.47-1.72,1.41-2.29,1.88c-7.06-1.2-14.25-1.16-21.39-1.44l0.27-1.68C214.43,894.44,213.21,894.62,212.6,894.71z"/>
</g>
<g id="_x23_7d6968ff">
	<path style="fill:#7D6968;" d="M266.17,896.48c5.48-2.8,11.87-2.34,17.75-1.34c-0.18,0.41-0.55,1.24-0.73,1.65
		c-4.75-0.34-9.5-0.1-14.25-0.1C268.25,896.64,266.86,896.54,266.17,896.48z"/>
</g>
<g id="_x23_a0846fff">
	<path style="fill:#A0846F;" d="M363.94,895.54c3.67-0.63,7.37-1.19,11.11-1.1c7.07,0.13,14.19-0.57,21.22,0.59
		c-0.7,0.05-2.09,0.16-2.79,0.21c0.61,1.42,1.23,2.87,2.03,4.23c-2.54,1.98-5.15,4.3-8.49,4.67c-3.52,0.5-6.92-0.8-10.09-2.15
		c4.54,0.66,9.65,2.6,13.91-0.1c1.38-0.84,3.18-2.18,2.78-4.03c-1.59-2.06-4.37-1.32-6.6-1.48c-6.02,0.24-12.05-0.12-18.05,0.33
		c-2.31,0.04-4.45,1.39-4.91,3.79c4.09,0.08,8.44-0.71,12.24,1.26c-4.52-1.01-9.14-0.26-13.7-0.11
		C363.43,899.71,363.65,897.59,363.94,895.54z"/>
</g>
<g id="_x23_ce9478ff">
	<path style="fill:#CE9478;" d="M283.92,895.14c5.99,0.23,12,0.05,17.99,0.57c0.03,0.53,0.08,1.57,0.11,2.09
		c-5.27-0.73-10.64-1.62-15.96-0.9c-1.57,0.02-2.07,1.75-2.91,2.75c1.3,0.39,2.6,0.82,3.89,1.29c0.33,0.12,0.99,0.35,1.32,0.46
		c-1.64,0.28-2.89,1.37-4.13,2.38c0.08-0.42,0.23-1.26,0.3-1.68l-0.87,0.31l-2.06-0.06c0.45-1.89,0.91-3.75,1.59-5.56
		C283.37,896.38,283.74,895.55,283.92,895.14z"/>
</g>
<g id="_x23_d45c46ff">
	<path style="fill:#D45C46;" d="M213.47,900.52c0.64-1.44,1.04-2.96,1.3-4.48c7.14,0.28,14.33,0.24,21.39,1.44
		c0.62,1.06,1.24,2.17,1.93,3.22c-1.79,1.36-3.56,3.35-6.05,3.02C225.74,903.34,219.78,900.86,213.47,900.52z"/>
</g>
<g id="_x23_ea7c51ff">
	<path style="fill:#EA7C51;" d="M709.77,896.87c0.55-0.33,1.65-0.99,2.2-1.32c1.28,0.21,2.58,0.42,3.88,0.65
		c-0.03,2.09-0.06,4.18-0.07,6.28c-0.81,0.24-2.42,0.72-3.23,0.96c-0.84-0.97-1.61-2.01-2.28-3.08
		C710.08,899.19,709.91,898.02,709.77,896.87z"/>
</g>
<g id="_x23_bd5f40ff">
	<path style="fill:#BD5F40;" d="M268.94,896.69c4.75,0,9.5-0.24,14.25,0.1c-0.68,1.81-1.14,3.67-1.59,5.56l2.06,0.06
		c-3.63,2.05-7.83,0.94-11.65,0.19c-1.89-0.23-3.11-1.78-4.41-2.97C268.04,898.64,268.49,897.66,268.94,896.69z"/>
</g>
<g id="_x23_fa9160ff">
	<path style="fill:#FA9160;" d="M283.15,899.65c0.84-1,1.34-2.73,2.91-2.75c5.32-0.72,10.69,0.17,15.96,0.9
		c-0.09,2.27,0.89,5.61-1.84,6.72c-3.72-1.82-7.92-1.92-11.82-3.12c-0.33-0.11-0.99-0.34-1.32-0.46
		C285.75,900.47,284.45,900.04,283.15,899.65z"/>
</g>
<g id="_x23_f78452ff">
	<path style="fill:#F78452;" d="M364.06,900.5c0.46-2.4,2.6-3.75,4.91-3.79c6-0.45,12.03-0.09,18.05-0.33
		c2.23,0.16,5.01-0.58,6.6,1.48c0.4,1.85-1.4,3.19-2.78,4.03c-4.26,2.7-9.37,0.76-13.91,0.1l-0.63-0.23
		C372.5,899.79,368.15,900.58,364.06,900.5z"/>
</g>
<g id="_x23_e4b69dff">
	<path style="fill:#E4B69D;" d="M652.67,897.08c1.43-0.11,2.85-0.3,4.29-0.44c-0.02,0.39-0.04,1.17-0.06,1.56
		c-2.31,1.22-3.72,3.44-5.44,5.31c-0.28,0.13-0.83,0.4-1.11,0.54C651.97,902.07,652.45,899.55,652.67,897.08z"/>
</g>
<g id="_x23_fb9c66ff">
	<path style="fill:#FB9C66;" d="M651.46,903.51c1.72-1.87,3.13-4.09,5.44-5.31c0.12,2.58,0.29,5.16,0.28,7.76
		c-0.59,0.06-1.76,0.19-2.34,0.26C653.53,905.56,652.5,904.47,651.46,903.51z"/>
</g>
<g id="_x23_331416ff">
	<path style="fill:#331416;" d="M262.51,912.96c2.04-4.31,2.84-9.1,5.09-13.33c1.3,1.19,2.52,2.74,4.41,2.97
		c3.82,0.75,8.02,1.86,11.65-0.19l0.87-0.31c-0.07,0.42-0.22,1.26-0.3,1.68c1.24-1.01,2.49-2.1,4.13-2.38
		c3.9,1.2,8.1,1.3,11.82,3.12c0.42,0.17,1.26,0.51,1.68,0.68c0.59,6.24,0.03,12.49-0.26,18.74c-0.04,0.61-0.12,1.85-0.16,2.46
		c-0.15,2-0.44,3.99-0.72,5.99c-0.05-2.06-0.05-4.1-0.04-6.13c-7.24,0.2-14.49,0.22-21.73,0.08c-0.99-1.02-1.96-2.05-2.99-2.99
		c-1.01,0.81-1.91,1.72-2.84,2.63c-3.64-0.04-7.3-0.34-10.72-1.65c-0.29-0.1-0.87-0.29-1.16-0.38c0.07-2.14,0.12-4.26,0.18-6.38
		c0.31-0.15,0.94-0.44,1.25-0.58C262.63,915.63,262.58,914.29,262.51,912.96z"/>
	<path style="fill:#331416;" d="M650.35,904.05c0.28-0.14,0.83-0.41,1.11-0.54c1.04,0.96,2.07,2.05,3.38,2.71
		c0.49,0.26,1.46,0.78,1.95,1.04c0.06,5.21-0.05,10.42-0.06,15.63c0.11,4.08,0.22,8.16,0.07,12.25c-0.35-2.02-0.59-4.05-0.98-6.04
		c-0.02-0.24-0.06-0.71-0.09-0.95c-16.09,0.12-32.18,0.12-48.27-0.36c-0.83-4.29,0.94-8.32,4.66-10.57
		C625.12,913.65,638.07,909.7,650.35,904.05z"/>
</g>
<g id="_x23_321416ff">
	<path style="fill:#321416;" d="M387.02,904.14c3.34-0.37,5.95-2.69,8.49-4.67c10.75,6.14,22.63,10.1,34.61,13.06
		c4.01,1.03,8.26,2.18,11.08,5.44c1.28,2.63,1.11,5.56,0.85,8.4c-27.35,0.24-54.7-0.23-82.05-0.2c-0.07-0.34-0.22-1.02-0.29-1.36
		c-0.27-2.35-0.32-4.72-0.29-7.07c0.01-5.5,0.54-11.16,3.18-16.09c4.56-0.15,9.18-0.9,13.7,0.11l0.63,0.23
		C380.1,903.34,383.5,904.64,387.02,904.14z"/>
</g>
<g id="_x23_2f1214ff">
	<path style="fill:#2F1214;" d="M213.47,900.52c6.31,0.34,12.27,2.82,18.57,3.2c2.49,0.33,4.26-1.66,6.05-3.02
		c1.26,1.07,2.55,2.09,3.8,3.2c0.63,7.32,0.37,14.73,0,22.08c-10.9-0.45-21.83-0.26-32.71-1.12c0.24-3.1,0.53-6.18,0.62-9.26
		C210.03,910.38,210.09,904.83,213.47,900.52z"/>
</g>
<g id="_x23_321316ff">
	<path style="fill:#321316;" d="M682.88,911.19c9.33-3.08,18.2-7.37,27.39-10.83c0.67,1.07,1.44,2.11,2.28,3.08
		c1.05,0.41,2.11,0.82,3.18,1.24l0.53,0.22c-0.31,6.85,0.26,13.72-0.43,20.56c-13.12,0.39-26.27,0.15-39.38,0.62
		c-0.42,0.03-1.25,0.09-1.67,0.13c-0.08,1.68-0.09,3.38-0.13,5.09c-0.06,1.25-0.13,2.53-0.27,3.79c0.05-4.08,0.12-8.16-0.07-12.23
		c-0.28-6.4-0.04-12.81-0.1-19.21c1.75,0.01,3.51,0.03,5.27,0.09C680.9,906.08,681.86,908.65,682.88,911.19z"/>
</g>
<g id="_x23_331417ff">
	<path style="fill:#331417;" d="M734.53,901.47c0.24-0.33,0.71-0.99,0.95-1.32c0.47,0.36,1.42,1.08,1.89,1.44
		c4.24,5.61,5.1,12.97,5.34,19.8c0.04,1.16,0.08,2.34,0.12,3.52c-2.73-0.05-5.47-0.09-8.19-0.12c-0.01-0.23-0.05-0.69-0.06-0.92
		C734.33,916.41,734.42,908.93,734.53,901.47z"/>
</g>
<g id="_x23_9e5d3dff">
	<path style="fill:#9E5D3D;" d="M716.26,904.9c0.92,6.23-0.02,12.55,0.56,18.81c5.92-0.1,11.84-0.17,17.76,0.16
		c0.01,0.23,0.05,0.69,0.06,0.92c0.15,3.69,0.99,7.43,0.45,11.13c-1.9,5.21-8.39,5.95-13.15,5.31c-3.42-0.29-5.82-3.08-7.1-6.04
		c0.15-3.26,0.6-6.5,0.99-9.73C716.52,918.62,715.95,911.75,716.26,904.9z"/>
</g>
<g id="_x23_311214ff">
	<path style="fill:#311214;" d="M320.47,909.94c-0.05-0.99,0.29-1.81,1.02-2.46c5.27,2.59,10.88,4.4,16.56,5.87
		c3.57,0.91,6.9,2.65,9.68,5.08c1.55,2.44,2.04,5.34,1.91,8.2c-9.29,0.35-18.6,0.13-27.9,0.04l-0.96-0.01
		c-0.03,3.13-0.01,6.29-0.43,9.42c-0.03-3.06,0.04-6.11,0.13-9.15c0.01-0.69,0.04-2.08,0.05-2.77
		C320.6,919.42,320.27,914.68,320.47,909.94z"/>
</g>
<g id="_x23_7d3f27ff">
	<path style="fill:#7D3F27;" d="M769.24,921.83c0.57,0.74,1.15,1.49,1.74,2.25c4.86,0.06,9.71-0.04,14.56-0.36l0.01,0.2
		c-0.05,3.39,0.37,6.89-0.49,10.22c-2.36,6.09-12.31,7.06-15.14,0.82C768.48,930.77,769.43,926.18,769.24,921.83z"/>
</g>
<g id="_x23_fffefdff">
	<path style="fill:#FFFEFD;" d="M273.12,925.98c0.93-0.91,1.83-1.82,2.84-2.63c1.03,0.94,2,1.97,2.99,2.99
		c7.24,0.14,14.49,0.12,21.73-0.08c-0.01,2.03-0.01,4.07,0.04,6.13v0.18c-8.79-1.4-17.71-0.3-26.56-0.77
		c-0.24-0.98-0.47-1.94-0.67-2.9C273.39,928.17,273.21,926.71,273.12,925.98z"/>
	<path style="fill:#FFFEFD;" d="M359.71,924.81c0.07,0.34,0.22,1.02,0.29,1.36c27.35-0.03,54.7,0.44,82.05,0.2
		c-0.13,1.79-0.26,3.6-0.37,5.42c-22.55,0.67-45.14,0.18-67.71,0.16c-4.49,0.19-8.99,0.18-13.46-0.33
		C360.22,929.35,359.94,927.08,359.71,924.81z"/>
</g>
<g id="_x23_a86643ff">
	<path style="fill:#A86643;" d="M301.6,923.94c6.24-1.57,12.65-0.25,18.93,0.22c-0.01,0.69-0.04,2.08-0.05,2.77
		c-6.35-0.14-12.71,0.05-19.04-0.53C301.48,925.79,301.56,924.55,301.6,923.94z"/>
</g>
<g id="_x23_965534ff">
	<path style="fill:#965534;" d="M656.73,922.89c5.86-0.34,11.72-0.34,17.58-0.03c0.19,4.07,0.12,8.15,0.07,12.23
		c-3.85,5.5-14.06,6.16-17.58,0.05C656.95,931.05,656.84,926.97,656.73,922.89z"/>
</g>
<g id="_x23_cdc4caff">
	<path style="fill:#CDC4CA;" d="M209.18,924.86c10.88,0.86,21.81,0.67,32.71,1.12c-0.04,0.65-0.12,1.95-0.16,2.6
		c-0.1,2.46-0.1,4.95,0.15,7.42c-0.43-1.59-0.77-3.2-1.12-4.77c-10.63-0.08-21.27-0.05-31.9-0.15
		C208.93,929,209.02,926.92,209.18,924.86z"/>
</g>
<g id="_x23_d3c4caff">
	<path style="fill:#D3C4CA;" d="M261.79,931.11c-0.01-2.27-0.37-4.65,0.61-6.78c3.42,1.31,7.08,1.61,10.72,1.65
		c0.09,0.73,0.27,2.19,0.37,2.92c-0.13,0.56-0.4,1.67-0.53,2.22C269.24,931.49,265.51,931.33,261.79,931.11z"/>
</g>
<g id="_x23_955435ff">
	<path style="fill:#955435;" d="M301.44,926.4c6.33,0.58,12.69,0.39,19.04,0.53c-0.09,3.04-0.16,6.09-0.13,9.15
		c-3.14,4.53-9.2,4.14-14.01,3.49c-3.31-0.66-5.18-3.89-5.62-7v-0.18C301,930.39,301.29,928.4,301.44,926.4z"/>
	<path style="fill:#955435;" d="M834.12,925.83c4.5,0.59,9.05,0.62,13.57,0.2c1.83-0.04,3.67,0,5.52,0.05
		c0.16,4.86,0.25,11.22-5.17,13.35c-3.24,0.1-6.48,0.2-9.71,0.07C833.08,936.96,833.17,930.75,834.12,925.83z"/>
</g>
<g id="_x23_fffefbff">
	<path style="fill:#FFFEFB;" d="M674.78,926.21c0.42-0.04,1.25-0.1,1.67-0.13c2.84,0.33,5.69,0.65,8.55,0.88
		c-0.04,1.8-0.09,3.6-0.12,5.41c-3.4-0.5-6.81-0.77-10.23-1.07C674.69,929.59,674.7,927.89,674.78,926.21z"/>
	<path style="fill:#FFFEFB;" d="M735.84,925.75c2.33-0.04,4.66,0.02,7,0.16c-0.12,1.86-0.23,3.73-0.34,5.6
		c-2.15,0.14-4.31,0.28-6.45,0.44C735.99,929.88,735.92,927.8,735.84,925.75z"/>
</g>
<g id="_x23_dbd0d6ff">
	<path style="fill:#DBD0D6;" d="M676.45,926.08c13.11-0.47,26.26-0.23,39.38-0.62c-0.39,3.23-0.84,6.47-0.99,9.73
		c-0.25-0.49-0.74-1.46-0.99-1.95c-9.65-0.74-19.39,0.72-28.97-0.87c0.03-1.81,0.08-3.61,0.12-5.41
		C682.14,926.73,679.29,926.41,676.45,926.08z"/>
</g>
<g id="_x23_f8d7c9ff">
	<path style="fill:#F8D7C9;" d="M853.21,926.08c12.3,1.68,24.8,1.53,37.09,3.42c4.53,0.83,9.46,0.86,13.44,3.47
		c-5.35,3.22-11.81,3.11-17.79,4.11c-6.98,0.53-13.93,1.58-20.94,1.65c-5.67,0.08-11.3,1.36-16.97,0.7
		C853.46,937.3,853.37,930.94,853.21,926.08z"/>
</g>
<g id="_x23_fefeffff">
	<path style="fill:#FEFEFF;" d="M321.74,926.67c9.3,0.09,18.61,0.31,27.9-0.04c-0.46,2.27-0.15,6.26-3.58,5.66
		c-7.99,0.03-15.99,0.25-23.97-0.2C321.97,930.27,321.85,928.46,321.74,926.67z"/>
</g>
<g id="_x23_f9d8caff">
	<path style="fill:#F9D8CA;" d="M97.28,933.03c8.78-4.23,18.89-4.06,28.4-5.1c-0.01,0.44-0.04,1.32-0.05,1.76
		c-0.19,2.82,0.33,5.65,1.56,8.21c-5.12,0.59-10.18-0.71-15.27-1.08C106.92,936.21,101.55,936.02,97.28,933.03z"/>
</g>
<g id="_x23_9a5a3aff">
	<path style="fill:#9A5A3A;" d="M241.73,928.58c6.37-1.59,12.96-0.94,19.43-0.59c0.15,2.72,0.33,5.45,0.35,8.19
		c-2.19,5.31-8.83,4.91-13.56,4.55c-2.83-0.01-4.99-2.33-6.07-4.73C241.63,933.53,241.63,931.04,241.73,928.58z"/>
</g>
<g id="_x23_fffefeff">
	<path style="fill:#FFFEFE;" d="M607.46,927.79c16.09,0.48,32.18,0.48,48.27,0.36c0.03,0.24,0.07,0.71,0.09,0.95
		c-0.09-0.13-0.28-0.39-0.38-0.51c-0.07,1.16-0.22,3.5-0.3,4.67c-15.77,0.27-31.56,0.37-47.31-0.21
		C607.68,931.3,607.54,929.54,607.46,927.79z"/>
</g>
<g id="_x23_975639ff">
	<path style="fill:#975639;" d="M125.63,929.69c2.66-0.37,5.33-0.68,8.01-0.79c3.49-0.1,6.99-0.08,10.48-0.08
		c0.59,3.58-0.26,7.29-2.84,9.92c-4.68,0.37-9.64,1.06-14.09-0.84C125.96,935.34,125.44,932.51,125.63,929.69z"/>
</g>
</svg>
