<svg xmlns="http://www.w3.org/2000/svg" version="1.1" xmlns:xlink="http://www.w3.org/1999/xlink" width="512" height="512" x="0" y="0" viewBox="0 0 512 512" style="enable-background:new 0 0 512 512" xml:space="preserve" class=""><g><path fill="#9e5ae7" fill-rule="evenodd" d="M362.621 168.928h125.972c4.36 0 7.927 3.567 7.927 7.927v102.282c0 4.36-3.567 7.927-7.927 7.927H362.621c-4.36 0-7.927-3.567-7.927-7.927V176.855c0-4.36 3.567-7.927 7.927-7.927z" clip-rule="evenodd" opacity="1" data-original="#6ce75a"></path><path fill="#b3a2ff" fill-rule="evenodd" d="M321.579 338.528h125.972c4.36 0 7.927 3.567 7.927 7.928v102.281c0 4.36-3.567 7.927-7.927 7.927H321.579c-4.36 0-7.927-3.567-7.927-7.927V346.456c0-4.361 3.567-7.928 7.927-7.928z" clip-rule="evenodd" opacity="1" data-original="#43a2ff" class=""></path><path fill="#cfa2ff" fill-rule="evenodd" d="M125.849 385.364h125.972c4.36 0 7.927 3.567 7.927 7.927v102.282c0 4.36-3.567 7.927-7.927 7.927H125.849c-4.36 0-7.928-3.567-7.928-7.927V393.291c0-4.36 3.568-7.927 7.928-7.927z" clip-rule="evenodd" opacity="1" data-original="#ffd54f" class=""></path><path fill="#ee73ff" fill-rule="evenodd" d="M321.579 8.5h125.972c4.36 0 7.927 3.567 7.927 7.927v102.281c0 4.361-3.567 7.928-7.927 7.928H321.579c-4.36 0-7.927-3.567-7.927-7.928V16.428c0-4.361 3.567-7.928 7.927-7.928z" clip-rule="evenodd" opacity="1" data-original="#ff6372" class=""></path><g fill-rule="evenodd" clip-rule="evenodd"><path fill="#d1d3d3" d="m47.204 398.063 82.984-82.974c16.887 11.525 36.528 17.288 56.168 17.288 55.114 0 99.795-44.68 99.795-99.794 0-55.117-44.678-99.794-99.795-99.794-55.114 0-99.794 44.68-99.794 99.794 0 19.64 5.764 39.28 17.288 56.167l-83.147 83.164c-7.066 7.445-6.915 19.071.169 26.155 7.228 7.229 19.099 7.206 26.332-.006z" opacity="1" data-original="#d1d3d3" class=""></path><circle cx="186.356" cy="232.582" r="71.453" fill="#f4c4fe" opacity="1" data-original="#c9f0ff" class=""></circle></g><path fill-rule="evenodd" d="M434.147 67.57a7.493 7.493 0 0 1-7.498 7.498h-10.375a7.493 7.493 0 0 1-7.498-7.498 7.494 7.494 0 0 1 7.498-7.503h10.375a7.495 7.495 0 0 1 7.498 7.503zm-99.22-29.855a7.494 7.494 0 0 1 7.498-7.503h15.562a7.494 7.494 0 0 1 7.498 7.503 7.492 7.492 0 0 1-7.498 7.498h-15.562a7.494 7.494 0 0 1-7.498-7.498zm0 59.711a7.497 7.497 0 0 1 7.498-7.503h24.428a7.497 7.497 0 0 1 7.498 7.503 7.493 7.493 0 0 1-7.498 7.498h-24.428a7.494 7.494 0 0 1-7.498-7.498zm0-29.856a7.494 7.494 0 0 1 7.498-7.503h44.847c4.103 0 7.498 3.357 7.498 7.503 0 4.14-3.395 7.498-7.498 7.498h-44.847a7.493 7.493 0 0 1-7.498-7.498zm99.22 29.856a7.493 7.493 0 0 1-7.498 7.498h-35.227c-4.103 0-7.498-3.358-7.498-7.498 0-4.141 3.395-7.503 7.498-7.503h35.227a7.497 7.497 0 0 1 7.498 7.503zm-58.051-59.711c0-4.145 3.395-7.503 7.498-7.503h43.055a7.494 7.494 0 0 1 7.498 7.503 7.492 7.492 0 0 1-7.498 7.498h-43.055c-4.103 0-7.498-3.358-7.498-7.498zM238.443 444.434c0 4.14-3.395 7.498-7.498 7.498h-10.422a7.493 7.493 0 0 1-7.498-7.498 7.494 7.494 0 0 1 7.498-7.503h10.422c4.103.001 7.498 3.358 7.498 7.503zm-58.051-29.855a7.494 7.494 0 0 1 7.498-7.503h43.055c4.103 0 7.498 3.358 7.498 7.503 0 4.141-3.395 7.498-7.498 7.498H187.89a7.493 7.493 0 0 1-7.498-7.498zm58.051 59.711c0 4.14-3.395 7.498-7.498 7.498h-35.227a7.493 7.493 0 0 1-7.498-7.498 7.497 7.497 0 0 1 7.498-7.503h35.227c4.103 0 7.498 3.362 7.498 7.503zm-99.266 0a7.497 7.497 0 0 1 7.498-7.503h24.427a7.497 7.497 0 0 1 7.498 7.503 7.493 7.493 0 0 1-7.498 7.498h-24.427a7.493 7.493 0 0 1-7.498-7.498zm0-29.856a7.494 7.494 0 0 1 7.498-7.503h44.847a7.493 7.493 0 0 1 7.498 7.503 7.493 7.493 0 0 1-7.498 7.498h-44.847a7.492 7.492 0 0 1-7.498-7.498zm0-29.855a7.494 7.494 0 0 1 7.498-7.503h15.609c4.103 0 7.498 3.358 7.498 7.503 0 4.141-3.395 7.498-7.498 7.498h-15.609a7.493 7.493 0 0 1-7.498-7.498zm195.75-46.837a7.494 7.494 0 0 1 7.498-7.503h15.562a7.494 7.494 0 0 1 7.498 7.503 7.492 7.492 0 0 1-7.498 7.498h-15.562a7.494 7.494 0 0 1-7.498-7.498zm0 29.855a7.492 7.492 0 0 1 7.498-7.498h44.847c4.103 0 7.498 3.358 7.498 7.498s-3.395 7.498-7.498 7.498h-44.847a7.493 7.493 0 0 1-7.498-7.498zm41.169-29.855c0-4.145 3.395-7.503 7.498-7.503h43.055a7.494 7.494 0 0 1 7.498 7.503 7.492 7.492 0 0 1-7.498 7.498h-43.055c-4.103 0-7.498-3.358-7.498-7.498zm-41.169 59.711a7.492 7.492 0 0 1 7.498-7.498h24.428a7.492 7.492 0 0 1 7.498 7.498 7.494 7.494 0 0 1-7.498 7.503h-24.428a7.495 7.495 0 0 1-7.498-7.503zm99.22-29.856a7.493 7.493 0 0 1-7.498 7.498h-10.375a7.493 7.493 0 0 1-7.498-7.498 7.492 7.492 0 0 1 7.498-7.498h10.375a7.494 7.494 0 0 1 7.498 7.498zm0 29.856a7.494 7.494 0 0 1-7.498 7.503h-35.227c-4.103 0-7.498-3.358-7.498-7.503 0-4.141 3.395-7.498 7.498-7.498h35.227a7.493 7.493 0 0 1 7.498 7.498zm41.074-199.457c0 4.145-3.395 7.503-7.545 7.503h-10.375a7.494 7.494 0 0 1-7.498-7.503 7.492 7.492 0 0 1 7.498-7.498h10.375c4.149-.001 7.545 3.357 7.545 7.498zm-99.267 0a7.492 7.492 0 0 1 7.498-7.498h44.847a7.493 7.493 0 0 1 7.498 7.498 7.494 7.494 0 0 1-7.498 7.503h-44.847a7.495 7.495 0 0 1-7.498-7.503zm99.267-29.856c0 4.141-3.395 7.498-7.545 7.498h-43.008c-4.15 0-7.498-3.358-7.498-7.498s3.348-7.503 7.498-7.503h43.008c4.149 0 7.545 3.363 7.545 7.503zm-99.267 0a7.497 7.497 0 0 1 7.498-7.503h15.562c4.15 0 7.545 3.363 7.545 7.503 0 4.141-3.395 7.498-7.545 7.498h-15.562a7.494 7.494 0 0 1-7.498-7.498zm39.424 59.716a7.493 7.493 0 0 1-7.498 7.498h-24.428a7.493 7.493 0 0 1-7.498-7.498 7.494 7.494 0 0 1 7.498-7.503h24.428a7.493 7.493 0 0 1 7.498 7.503zm59.843 0c0 4.14-3.395 7.498-7.545 7.498h-35.18a7.493 7.493 0 0 1-7.498-7.498 7.494 7.494 0 0 1 7.498-7.503h35.18c4.149 0 7.545 3.357 7.545 7.503zm13.77 21.282V176.853c0-.217-.236-.424-.424-.424H362.609a.435.435 0 0 0-.424.424v102.285c0 .217.189.425.424.425h125.958c.188-.001.424-.208.424-.425zm-302.657 45.738c-18.674 0-36.642-5.527-51.968-15.982a7.491 7.491 0 0 0-9.526.892l-82.95 82.969c-4.386 4.334-11.412 4.339-15.751.014-4.197-4.201-4.244-11.195-.094-15.628l83.092-83.087a7.51 7.51 0 0 0 .896-9.53c-10.469-15.322-15.986-33.284-15.986-51.939 0-50.892 41.404-92.292 92.287-92.292s92.287 41.4 92.287 92.292c0 50.887-41.404 92.291-92.287 92.291zm134.776 21.579V448.74c0 .217.236.425.424.425h126.005c.189 0 .425-.207.425-.425V346.455c0-.217-.236-.424-.425-.424H321.534c-.188 0-.424.207-.424.424zm0-330.027v102.28c0 .222.236.429.424.429h126.005c.189 0 .425-.208.425-.429V16.428c0-.222-.236-.429-.425-.429H321.534c-.188 0-.424.207-.424.429zm-68.897 376.864a.435.435 0 0 0-.424-.429H125.831a.435.435 0 0 0-.424.429v102.28c0 .222.189.429.424.429h125.958a.435.435 0 0 0 .424-.429zm236.354-231.864H362.609c-8.535 0-15.42 6.923-15.42 15.425v48.228h-53.854c-1.65-23.951-11.176-45.762-26.078-62.842l39.424-39.419c1.839 6.513 7.781 11.318 14.854 11.318H447.54c8.488 0 15.421-6.923 15.421-15.43V16.428c0-8.507-6.932-15.43-15.421-15.43H321.534c-8.488 0-15.42 6.923-15.42 15.43v85.751l-49.468 49.454c-18.816-16.401-43.432-26.342-70.312-26.342-59.183 0-107.33 48.129-107.33 107.293 0 19.584 5.282 38.513 15.232 55.127L15.388 366.61c-.094.047-.094.094-.142.141-9.761 10.276-9.62 26.701.283 36.622 5.094 5.085 11.79 7.627 18.486 7.627a26.055 26.055 0 0 0 18.438-7.626v-.005l78.753-78.711c14.477 8.696 30.699 13.793 47.629 14.958v38.245H125.83c-8.535 0-15.468 6.922-15.468 15.43v102.28c0 8.507 6.932 15.43 15.468 15.43h125.958c8.488 0 15.42-6.923 15.42-15.43v-102.28c0-8.507-6.932-15.43-15.42-15.43h-57.957v-38.25c23.956-1.665 45.743-11.214 62.814-26.078l49.468 49.45v85.756c0 8.507 6.932 15.425 15.42 15.425h126.005c8.488 0 15.421-6.918 15.421-15.425V346.455c0-8.507-6.932-15.425-15.421-15.425H321.534c-7.074 0-13.015 4.801-14.854 11.313l-39.424-39.414c14.902-17.081 24.428-38.896 26.078-62.847h53.854v39.056c0 8.507 6.885 15.425 15.42 15.425h125.958c8.488 0 15.421-6.918 15.421-15.425V176.853c0-8.502-6.932-15.425-15.42-15.425zM194.681 270.673c0-4.617-3.726-8.38-8.347-8.38-4.622 0-8.394 3.763-8.394 8.38 0 4.612 3.772 8.375 8.394 8.375 4.621 0 8.347-3.763 8.347-8.375zm21.268-55.783c0-16.326-13.298-29.606-29.615-29.606s-29.615 13.28-29.615 29.606c0 3.329.566 6.602 1.651 9.724 1.32 3.914 5.612 5.984 9.526 4.626s5.989-5.636 4.621-9.545a15.033 15.033 0 0 1-.802-4.805c0-8.055 6.555-14.605 14.619-14.605s14.571 6.55 14.571 14.605c0 8.054-6.507 14.609-14.571 14.609a7.493 7.493 0 0 0-7.498 7.498v12.747c0 4.145 3.348 7.503 7.498 7.503s7.498-3.358 7.498-7.503v-6.206c12.685-3.329 22.117-14.911 22.117-28.648zm-29.615 81.644c35.274 0 63.946-28.686 63.946-63.95s-28.672-63.955-63.946-63.955-63.946 28.691-63.946 63.955 28.672 63.95 63.946 63.95zm0-142.906c-43.527 0-78.989 35.42-78.989 78.956s35.462 78.951 78.989 78.951c43.526 0 78.941-35.415 78.941-78.951.001-43.536-35.415-78.956-78.941-78.956z" clip-rule="evenodd" fill="#332b3c" opacity="1" data-original="#000000" class=""></path></g></svg>