<svg xmlns="http://www.w3.org/2000/svg" version="1.1" xmlns:xlink="http://www.w3.org/1999/xlink" width="512" height="512" x="0" y="0" viewBox="0 0 512 512" style="enable-background:new 0 0 512 512" xml:space="preserve"><g><g fill-rule="evenodd" clip-rule="evenodd"><path fill="#a277e8" d="M246.401 182.135c4.552 5.484 4.259 13.661-.879 18.798l-33.71 33.701c-6.393 6.391-14.001 9.546-23.041 9.546H143.8a3.995 3.995 0 0 0-3.997 4.002v102.07h-12.804V328.82c0-8.808-7.158-15.977-15.968-15.977H55.949v-64.661a4.001 4.001 0 0 0-3.997-4.002 3.997 3.997 0 0 0-4.002 4.002v102.07H36.951c-9.347 0-16.952-7.605-16.952-16.952V233.185c0-9.347 7.605-16.952 16.952-16.952h144.511c6.059 0 11.484-2.241 15.769-6.527l28.525-28.539c5.45-5.452 14.313-5.448 19.765-.002l.88.879zm68.24 281.414c0 11.103-13.835 17.754-22.663 20.904-15.864 5.659-34.933 7.548-51.687 7.548-16.751 0-35.818-1.89-51.679-7.548-8.828-3.149-22.661-9.801-22.661-20.904 0-41.002 33.35-74.34 74.35-74.34 40.988-.001 74.34 33.351 74.34 74.34zm103.02-74.341c40.994 0 74.34 33.346 74.34 74.34 0 11.103-13.837 17.755-22.664 20.904-15.863 5.659-34.932 7.548-51.685 7.548-16.751 0-35.818-1.89-51.679-7.548-8.828-3.149-22.662-9.801-22.662-20.904 0-41.001 33.349-74.34 74.35-74.34z" opacity="1" data-original="#a4d4ff"></path><path fill="#1f4571" d="M207.771 66.04a6.997 6.997 0 0 1 6.997-7.002h228.411a7.007 7.007 0 0 1 7.002 7.002c0 3.863-3.143 6.997-7.002 6.997H214.768a6.995 6.995 0 0 1-6.997-6.997zm242.41 80.498c0 3.863-3.143 6.997-7.002 6.997H328.971a7.002 7.002 0 0 1-7.001-6.997 7.003 7.003 0 0 1 7.001-7.002h114.208a7.007 7.007 0 0 1 7.002 7.002zm-242.41-40.251a6.996 6.996 0 0 1 6.997-6.997h228.411c3.859 0 7.002 3.134 7.002 6.997a7.007 7.007 0 0 1-7.002 7.002H214.768a6.997 6.997 0 0 1-6.997-7.002zm32.519 382.714c-40.002 0-71.34-11.18-71.34-25.452 0-39.338 31.997-71.34 71.35-71.34 39.329 0 71.34 32.002 71.34 71.34.001 14.272-31.338 25.452-71.35 25.452zm.01-110.791c-47.07 0-85.349 38.279-85.349 85.339 0 9.223 5.04 22.064 29.057 30.91 14.973 5.51 34.953 8.54 56.283 8.54 42.482 0 85.349-12.197 85.349-39.451-.001-47.059-38.29-85.338-85.34-85.338zm-29.221-50.081c0-16.107 13.11-29.207 29.221-29.207 16.097 0 29.212 13.1 29.212 29.207 0 16.102-13.114 29.212-29.212 29.212-16.112-.001-29.221-13.11-29.221-29.212zm72.432 0c0-23.829-19.392-43.206-43.211-43.206-23.829 0-43.22 19.377-43.22 43.206 0 23.819 19.391 43.211 43.22 43.211 23.819-.001 43.211-19.392 43.211-43.211zm134.14 160.872c-40.002 0-71.34-11.18-71.34-25.452 0-39.338 31.997-71.34 71.35-71.34 39.338 0 71.34 32.002 71.34 71.34 0 14.272-31.344 25.452-71.35 25.452zm.01-110.791c-47.069 0-85.354 38.279-85.354 85.339 0 9.223 5.04 22.064 29.061 30.91 14.973 5.51 34.953 8.54 56.283 8.54C460.137 503 503 490.803 503 463.549c0-47.06-38.28-85.339-85.339-85.339zm-29.212-50.081c0-16.107 13.1-29.207 29.212-29.207 16.098 0 29.207 13.1 29.207 29.207 0 16.102-13.109 29.212-29.207 29.212-16.112-.001-29.212-13.11-29.212-29.212zm72.417 0c0-23.829-19.387-43.206-43.206-43.206-23.829 0-43.211 19.377-43.211 43.206 0 23.819 19.382 43.211 43.211 43.211 23.82-.001 43.206-19.392 43.206-43.211zM97.869 117.524c16.982 0 30.788 13.811 30.788 30.793 0 16.978-13.806 30.793-30.788 30.793-16.978 0-30.788-13.815-30.788-30.793-.001-16.983 13.81-30.793 30.788-30.793zm0 75.584c24.699 0 44.792-20.097 44.792-44.792 0-24.699-20.093-44.792-44.792-44.792s-44.787 20.093-44.787 44.792c0 24.695 20.088 44.792 44.787 44.792zm391.132 30.238V22.999H168.95v182.235h12.512c3.186 0 5.727-1.054 7.99-3.308l28.525-28.534c8.023-8.018 20.182-9.43 29.664-4.24l43.907-43.912a7.001 7.001 0 0 1 9.901 0 7.01 7.01 0 0 1 0 9.901l-43.907 43.912c5.19 9.482 3.779 21.636-4.24 29.654l-14.643 14.639zm-279.31 9.166 33.71-33.701c4.277-4.277 4.277-11.242 0-15.519v-.005c-4.282-4.277-11.242-4.277-15.524 0l-28.525 28.539c-4.852 4.847-11.034 7.407-17.89 7.407H36.951c-7.689 0-13.952 6.258-13.952 13.952V333.3c0 7.694 6.263 13.952 13.952 13.952h7.999v-99.07a6.998 6.998 0 0 1 7.002-7.002 7.003 7.003 0 0 1 6.997 7.002v61.661h52.081c10.46 0 18.968 8.508 18.968 18.977v18.431h6.804v-99.07a6.997 6.997 0 0 1 6.997-7.002h44.971c8.248.001 15.091-2.837 20.921-8.667zm-93.692 142.347a4.973 4.973 0 0 1-4.969 4.969H44.781a4.975 4.975 0 0 1-4.974-4.969v-13.608h12.145a7.005 7.005 0 0 0 6.997-6.997v-30.412h52.081a4.975 4.975 0 0 1 4.969 4.979zM495.998 9h-334.05a6.997 6.997 0 0 0-6.997 7.002v189.233h-118C21.54 205.235 9 217.77 9 233.185V333.3c0 11.449 6.926 21.311 16.808 25.621v15.938c0 10.461 8.513 18.973 18.973 18.973h66.249c10.46 0 18.968-8.512 18.968-18.973v-13.608h13.801c3.859 0 7.002-3.139 7.002-6.997v-99.075h37.969c11.98 0 22.351-4.296 30.821-12.766l5.068-5.068h271.339a6.998 6.998 0 0 0 7.002-7.002V16.002A6.998 6.998 0 0 0 495.998 9z" opacity="1" data-original="#1f4571"></path></g></g></svg>