<svg xmlns="http://www.w3.org/2000/svg" version="1.1" xmlns:xlink="http://www.w3.org/1999/xlink" width="512" height="512" x="0" y="0" viewBox="0 0 682.667 682.667" style="enable-background:new 0 0 512 512" xml:space="preserve" class=""><g><defs><clipPath id="a" clipPathUnits="userSpaceOnUse"><path d="M0 512h512V0H0Z" fill="#000000" opacity="1" data-original="#000000"></path></clipPath></defs><g clip-path="url(#a)" transform="matrix(1.33333 0 0 -1.33333 0 682.667)"><path d="M0 0c0-126.551-102.59-229.141-229.141-229.141-126.55 0-229.14 102.59-229.14 229.141 0 126.551 102.59 229.141 229.14 229.141C-102.59 229.141 0 126.551 0 0" style="fill-opacity:1;fill-rule:nonzero;stroke:none" transform="translate(465.781 236.64)" fill="#7d42dd" data-original="#e94444" class="" opacity="1"></path><path d="M0 0c-91.617 0-166.154 74.537-166.154 166.154 0 91.617 74.537 166.154 166.154 166.154 91.617 0 166.154-74.537 166.154-166.154C166.154 74.537 91.617 0 0 0" style="fill-opacity:1;fill-rule:nonzero;stroke:none" transform="translate(236.64 70.487)" fill="#ececec" data-original="#ececec" class=""></path><path d="M0 0c-56.886 0-103.167 46.281-103.167 103.167 0 56.887 46.281 103.168 103.167 103.168 56.887 0 103.168-46.281 103.168-103.168C103.168 46.281 56.887 0 0 0" style="fill-opacity:1;fill-rule:nonzero;stroke:none" transform="translate(236.64 133.473)" fill="#7d42dd" data-original="#e94444" class="" opacity="1"></path><path d="M0 0c-22.155 0-40.181 18.025-40.181 40.181S-22.155 80.362 0 80.362c22.155 0 40.182-18.025 40.182-40.181S22.155 0 0 0" style="fill-opacity:1;fill-rule:nonzero;stroke:none" transform="translate(236.64 196.46)" fill="#5a5a5a" data-original="#5a5a5a" class=""></path><path d="M0 0c-6.685 0-13.297-.303-19.836-.864 117.262-10.057 209.305-108.41 209.305-228.277 0-119.866-92.043-218.219-209.305-228.276A231.928 231.928 0 0 1 0-458.281c126.551 0 229.141 102.59 229.141 229.14C229.141-102.59 126.551 0 0 0" style="fill-opacity:1;fill-rule:nonzero;stroke:none" transform="translate(236.64 465.781)" fill="#6642dd" data-original="#d83131" class="" opacity="1"></path><path d="m0 0-50.269-50.268a10.643 10.643 0 0 1-3.096-8.194l2.911-46.381L8.77-45.619 6.05-2.287C5.858.762 2.16 2.16 0 0" style="fill-opacity:1;fill-rule:nonzero;stroke:none" transform="translate(449.066 503.455)" fill="#6653e5" data-original="#0055a3" class="" opacity="1"></path><path d="m0 0-50.268-50.268a10.646 10.646 0 0 0-8.194-3.097l-46.381 2.911L-45.619 8.77l43.332-2.72C.763 5.859 2.16 2.16 0 0" style="fill-opacity:1;fill-rule:nonzero;stroke:none" transform="translate(503.455 449.066)" fill="#6653e5" data-original="#0055a3" class="" opacity="1"></path><path d="M0 0c0-126.551-102.59-229.141-229.141-229.141-126.55 0-229.14 102.59-229.14 229.141 0 126.551 102.59 229.141 229.14 229.141C-102.59 229.141 0 126.551 0 0Z" style="stroke-width:15;stroke-linecap:round;stroke-linejoin:round;stroke-miterlimit:10;stroke-dasharray:516, 35, 600, 0;stroke-dashoffset:0;stroke-opacity:1" transform="translate(465.781 236.64)" fill="none" stroke="#000000" stroke-width="15" stroke-linecap="round" stroke-linejoin="round" stroke-miterlimit="10" stroke-dasharray="516, 35, 600, 0" stroke-dashoffset="0" stroke-opacity="" data-original="#000000" opacity="1"></path><path d="M0 0c91.617 0 166.154 74.537 166.154 166.154 0 91.617-74.537 166.154-166.154 166.154-91.617 0-166.154-74.537-166.154-166.154C-166.154 74.537-91.617 0 0 0Z" style="stroke-width:15;stroke-linecap:round;stroke-linejoin:round;stroke-miterlimit:10;stroke-dasharray:227, 35, 600, 0;stroke-dashoffset:0;stroke-opacity:1" transform="translate(236.64 70.487)" fill="none" stroke="#000000" stroke-width="15" stroke-linecap="round" stroke-linejoin="round" stroke-miterlimit="10" stroke-dasharray="227, 35, 600, 0" stroke-dashoffset="0" stroke-opacity="" data-original="#000000" opacity="1"></path><path d="M0 0c-56.886 0-103.167 46.281-103.167 103.167 0 56.887 46.281 103.168 103.167 103.168 56.887 0 103.168-46.281 103.168-103.168C103.168 46.281 56.887 0 0 0Z" style="stroke-width:15;stroke-linecap:round;stroke-linejoin:round;stroke-miterlimit:10;stroke-dasharray:none;stroke-opacity:1" transform="translate(236.64 133.473)" fill="none" stroke="#000000" stroke-width="15" stroke-linecap="round" stroke-linejoin="round" stroke-miterlimit="10" stroke-dasharray="none" stroke-opacity="" data-original="#000000" opacity="1"></path><path d="M0 0c-22.155 0-40.181 18.025-40.181 40.181S-22.155 80.362 0 80.362c22.155 0 40.182-18.025 40.182-40.181S22.155 0 0 0Z" style="stroke-width:15;stroke-linecap:round;stroke-linejoin:round;stroke-miterlimit:10;stroke-dasharray:none;stroke-opacity:1" transform="translate(236.64 196.46)" fill="none" stroke="#000000" stroke-width="15" stroke-linecap="round" stroke-linejoin="round" stroke-miterlimit="10" stroke-dasharray="none" stroke-opacity="" data-original="#000000" opacity="1"></path><path d="m0 0 250.398 250.398" style="stroke-width:15;stroke-linecap:round;stroke-linejoin:round;stroke-miterlimit:10;stroke-dasharray:none;stroke-opacity:1" transform="translate(236.64 236.64)" fill="none" stroke="#000000" stroke-width="15" stroke-linecap="round" stroke-linejoin="round" stroke-miterlimit="10" stroke-dasharray="none" stroke-opacity="" data-original="#000000" opacity="1"></path><path d="m0 0-50.269-50.268a10.643 10.643 0 0 1-3.096-8.194l2.911-46.381L8.77-45.619 6.05-2.287C5.858.762 2.16 2.16 0 0Z" style="stroke-width:15;stroke-linecap:round;stroke-linejoin:round;stroke-miterlimit:10;stroke-dasharray:none;stroke-opacity:1" transform="translate(449.066 503.455)" fill="none" stroke="#000000" stroke-width="15" stroke-linecap="round" stroke-linejoin="round" stroke-miterlimit="10" stroke-dasharray="none" stroke-opacity="" data-original="#000000" opacity="1"></path><path d="m0 0-50.268-50.268a10.646 10.646 0 0 0-8.194-3.097l-46.381 2.911L-45.619 8.77l43.332-2.72C.763 5.859 2.16 2.16 0 0Z" style="stroke-width:15;stroke-linecap:round;stroke-linejoin:round;stroke-miterlimit:10;stroke-dasharray:none;stroke-opacity:1" transform="translate(503.455 449.066)" fill="none" stroke="#000000" stroke-width="15" stroke-linecap="round" stroke-linejoin="round" stroke-miterlimit="10" stroke-dasharray="none" stroke-opacity="" data-original="#000000" opacity="1"></path></g></g></svg>